<?xml version="1.0" encoding="utf-8"?>
<!-- Generator: Adobe Illustrator 19.1.0, SVG Export Plug-In . SVG Version: 6.00 Build 0)  -->
<svg version="1.1" id="Layer_1" xmlns="http://www.w3.org/2000/svg" xmlns:xlink="http://www.w3.org/1999/xlink" x="0px" y="0px"
	 viewBox="0 0 306 103" style="enable-background:new 0 0 306 103;" xml:space="preserve">
<style type="text/css">
	.st0{fill:#FFA200;}
</style>
<g id="XMLID_106_">
	<g id="XMLID_5_">
		<path id="XMLID_8_" class="st0" d="M15.8,15.5v44.8c0,0,0.1,0,0.1,0c0.1,0,1.2-0.4,1.7-0.8c0.3-0.2,15.9-17.2,16.2-17.5
			c0.1-0.1,0.2-0.1,0.2,0c0.1,0.1-0.2,16.3-0.2,16.6c0,0.3,0,0.6,0.5,0.8c0.4,0.2,2,0.9,2.2,0.9c0.1,0,0,0.1-0.1,0.1
			c-0.1,0-8.7,0-8.7,0s-0.1,0,0-0.1c0.1-0.1,2.9-1,3.1-1c0.4-0.1,0.5-0.2,0.6-0.9c0-0.7,0.2-4.5,0.2-4.7c0-0.2,0.1-0.7-0.6-0.8
			c-0.3,0-1.3-0.1-2.3-0.1c-1.2,0-2.4,0-2.7,0c-0.7,0-0.8,0.1-1.2,0.3c-0.3,0.2-4.5,5.4-4.7,5.7c-0.2,0.2-0.1,0.5,0.3,0.6
			c0.5,0.1,3.1,0.7,3.7,0.8c0.1,0,0.1,0.1-0.1,0.1c-0.1,0-6.7,0-8.3,0v27h72v-72H15.8z M46.4,43.5c-0.4,0.2-0.6,0.4-0.7,0.8
			c-0.1,0.3-3.4,14.2-3.4,14.4c-0.1,0.3-0.1,0.6,0.3,0.7c0.4,0.2,2.3,0.8,2.4,0.9c0.2,0.1,0.1,0.2,0,0.2c-0.2,0-8,0-8.1,0
			c-0.2,0-0.2,0-0.1-0.1c0.2-0.1,2-0.7,2.1-0.8c0.2-0.1,0.6-0.2,0.8-0.7c0.1-0.3,3.5-14.3,3.5-14.6c0.1-0.3,0-0.7-0.4-0.8
			c-0.2-0.1-2.3-0.8-2.4-0.8c-0.1,0-0.1-0.1,0-0.1c0.1,0,8.4,0,8.5,0c0.1,0,0.2,0.1,0.1,0.1c-0.1,0-1.5,0.4-1.7,0.5
			C47.1,43.2,46.6,43.4,46.4,43.5z M62.8,59.3c-0.2,0.1-3.1,1.2-5.8,1.3c-7.1,0.2-9.6-4.7-8.4-9.2c0.6-2.4,2.2-4.6,4.2-6.1
			c1.1-0.9,4.5-3,8.8-3c0.8,0,2.9,0.1,4.5,0.5c0.8,0.2,0.6,0.6,0.6,0.9c0,0.2-1.7,5.1-1.8,5.3c-0.1,0.2-0.2,0.2-0.2,0
			c0-0.1,0.2-4.5,0.2-4.7c0-0.5,0-0.8-0.5-0.9c-0.7-0.2-4.2-0.5-6.7,0.7c-4.3,2-6.8,6.6-6.3,10.3c0.4,3,2.8,5.5,6.7,5.6
			c1.2,0,2.1-0.1,2.3-0.2c0.4-0.1,0.4-0.2,0.5-0.4c0.1-0.2,0.7-2.9,0.8-3c0-0.1,0.2-0.5-0.2-0.6c-0.4-0.1-3.9-1-4.1-1.1
			c-0.2,0-0.1-0.1,0-0.1c0.1,0,6.3,0,6.5,0c0.3,0,1-0.1,0.8,0.6c-0.2,0.7-1.2,3.8-1.3,4C63.2,59.1,63,59.3,62.8,59.3z M84.3,60.5
			c-0.1,0-8.8,0-8.8,0s-0.1,0,0-0.1c0.1-0.1,2.9-1,3.1-1c0.4-0.1,0.5-0.2,0.6-0.9c0-0.7,0.2-4.5,0.2-4.7c0-0.2,0.1-0.7-0.6-0.8
			c-0.3,0-1.2-0.1-2.3-0.1c-1.2,0-2.4,0-2.7,0c-0.7,0-0.8,0.1-1.2,0.3c-0.3,0.2-4.5,5.4-4.7,5.7c-0.2,0.2-0.1,0.5,0.3,0.6
			c0.5,0.1,3.1,0.7,3.7,0.8c0.1,0,0.1,0.1-0.1,0.1c-0.1,0-8.2,0-8.2,0c-0.1,0-0.1-0.1,0-0.1c0.1,0,1.2-0.4,1.7-0.9
			c0.3-0.2,15.9-17.2,16.2-17.5c0.1-0.1,0.2-0.1,0.2,0c0.1,0.1-0.2,16.3-0.2,16.6c0,0.3,0,0.6,0.5,0.8c0.4,0.2,2,0.9,2.2,0.9
			C84.5,60.4,84.4,60.5,84.3,60.5z"/>
		<path id="XMLID_7_" class="st0" d="M26.5,52.2c0,0,3.7,0,4.3,0c0.6,0,0.8-0.2,0.8-0.6c0-0.2,0.1-4.7,0.1-5.2
			c0-0.5-0.3-0.5-0.6-0.1c-0.2,0.2-4.6,5-4.9,5.3C25.9,51.8,25.8,52.2,26.5,52.2z"/>
		<path id="XMLID_6_" class="st0" d="M78.9,46.3c-0.2,0.2-4.6,5-4.9,5.3c-0.2,0.3-0.3,0.6,0.4,0.6c0,0,3.7,0,4.3,0
			c0.6,0,0.8-0.2,0.8-0.6c0-0.2,0.1-4.7,0.1-5.2C79.5,45.9,79.3,45.9,78.9,46.3z"/>
	</g>
	<g id="XMLID_2_">
		<path id="XMLID_3_" d="M128.1,35.6v30.8h-5.4l-16.6-20.2v20.2h-6.2V35.6h5.4l16.6,20.2V35.6H128.1z"/>
		<path id="XMLID_13_" d="M143.2,43.9c6.7,0,10.9,4.6,10.9,11.7v1.6h-16.2l0,0.1c0.7,2.9,3.3,4.2,5.9,4.2c2.6,0,4.7-0.9,6.2-2.2
			l2.4,4.8c-1.8,1.5-4.5,2.9-8.8,2.9c-7.4,0-11.8-5-11.8-11.5C131.9,48.9,136.3,43.9,143.2,43.9z M143,48.8c-2.8,0-4.6,1.5-5.2,4.1
			h9.9C147.5,50.6,145.8,48.8,143,48.8z"/>
		<path id="XMLID_16_" d="M163.5,35.6v12c1.5-2.1,4-3.7,7.4-3.7c5.4,0,9.9,4.1,9.9,11.6s-4.6,11.6-10,11.6c-3.2,0-5.7-1.4-7.3-3.7
			v3.1h-5.8V35.6H163.5z M169.1,49.5c-3.3,0-5.8,2.2-5.8,5.9c0,3.6,2.5,5.9,5.8,5.9c3.3,0,5.8-2.3,5.8-5.9S172.4,49.5,169.1,49.5z"
			/>
		<path id="XMLID_37_" d="M196.4,43.9c0.8,0,1.5,0.1,2.2,0.3v6.2c-0.8-0.3-1.7-0.4-2.6-0.4c-3.8,0-5.5,2.2-5.5,6.4v9.9h-5.8v-22h5.6
			v3.6C191.4,45.5,193.4,43.9,196.4,43.9z"/>
		<path id="XMLID_41_" d="M211.6,44c6.4,0,9.6,2.8,9.6,8.9v13.6h-5.8v-3c-1.1,1.8-3.3,3.4-6.8,3.4c-4.4,0-7.4-2.8-7.4-6.9
			c0-4,3-6.5,7-6.9l6-0.5c0.8-0.1,1.1-0.4,1.1-0.9v-0.4c0-1.3-1.2-2.2-3.8-2.2c-2.3,0-4.7,0.7-5.5,2.8l-4.3-3.1
			C203.2,45.6,206.8,44,211.6,44z M215.4,56.7l-5.5,0.7c-1.8,0.3-2.7,1.2-2.7,2.4c0,1.4,1.1,2.3,3.1,2.3c3.1,0,5.1-2.1,5.1-4.5V56.7
			z"/>
		<path id="XMLID_44_" d="M234.9,43.9c4,0,6.8,1.3,8.8,3.3l-3.3,4.2c-1.2-1.4-3.6-2.2-5.9-2.2c-1.8,0-2.8,0.6-2.8,1.5
			c0,1.1,1.2,1.4,5.1,2.2c3.8,0.8,7,2.3,7,6.9c0,5-3.7,7.2-9.5,7.2c-4.2,0-7.8-1.2-9.8-3.7l3.4-4.4c1.5,1.8,3.9,2.9,7,2.9
			c1.6,0,2.9-0.4,2.9-1.7c0-1.2-1.2-1.5-4.9-2.2c-3.3-0.7-7.3-2.2-7.3-7C225.6,46.5,229.1,43.9,234.9,43.9z"/>
		<path id="XMLID_46_" d="M255.3,57.8l-2.3,2.2v6.4h-5.8V35.6h5.8v17.3l8-8.4h7.7l-9.5,9.5l9.5,12.5h-7.5L255.3,57.8z"/>
		<path id="XMLID_48_" d="M280.6,44c6.4,0,9.6,2.8,9.6,8.9v13.6h-5.8v-3c-1.1,1.8-3.3,3.4-6.8,3.4c-4.4,0-7.4-2.8-7.4-6.9
			c0-4,3-6.5,7-6.9l6-0.5c0.8-0.1,1.1-0.4,1.1-0.9v-0.4c0-1.3-1.2-2.2-3.8-2.2c-2.3,0-4.7,0.7-5.5,2.8l-4.3-3.1
			C272.2,45.6,275.8,44,280.6,44z M284.4,56.7l-5.5,0.7c-1.8,0.3-2.7,1.2-2.7,2.4c0,1.4,1.1,2.3,3.1,2.3c3.1,0,5.1-2.1,5.1-4.5V56.7
			z"/>
	</g>
</g>
</svg>
