<svg id="Layer_1" xmlns="http://www.w3.org/2000/svg" viewBox="0 0 306 103"><style>.st0{fill:#ffa200}</style><g id="XMLID_106_"><g id="XMLID_5_"><path id="XMLID_8_" class="st0" d="M15.8 15.5v44.8h.1c.1 0 1.2-.4 1.7-.8.3-.2 15.9-17.2 16.2-17.5.1-.1.2-.1.2 0 .1.1-.2 16.3-.2 16.6 0 .3 0 .6.5.8.4.2 2 .9 2.2.9.1 0 0 .1-.1.1h-8.7s-.1 0 0-.1 2.9-1 3.1-1c.4-.1.5-.2.6-.9 0-.7.2-4.5.2-4.7 0-.2.1-.7-.6-.8-.3 0-1.3-.1-2.3-.1H26c-.7 0-.8.1-1.2.3-.3.2-4.5 5.4-4.7 5.7-.2.2-.1.5.3.6.5.1 3.1.7 3.7.8.1 0 .1.1-.1.1h-8.3v27h72v-72H15.8zm30.6 28c-.4.2-.6.4-.7.8-.1.3-3.4 14.2-3.4 14.4-.1.3-.1.6.3.7.4.2 2.3.8 2.4.9.2.1.1.2 0 .2h-8.1c-.2 0-.2 0-.1-.1.2-.1 2-.7 2.1-.8.2-.1.6-.2.8-.7.1-.3 3.5-14.3 3.5-14.6.1-.3 0-.7-.4-.8-.2-.1-2.3-.8-2.4-.8-.1 0-.1-.1 0-.1h8.5c.1 0 .2.1.1.1s-1.5.4-1.7.5c-.2 0-.7.2-.9.3zm16.4 15.8c-.2.1-3.1 1.2-5.8 1.3-7.1.2-9.6-4.7-8.4-9.2.6-2.4 2.2-4.6 4.2-6.1 1.1-.9 4.5-3 8.8-3 .8 0 2.9.1 4.5.5.8.2.6.6.6.9 0 .2-1.7 5.1-1.8 5.3-.1.2-.2.2-.2 0 0-.1.2-4.5.2-4.7 0-.5 0-.8-.5-.9-.7-.2-4.2-.5-6.7.7-4.3 2-6.8 6.6-6.3 10.3.4 3 2.8 5.5 6.7 5.6 1.2 0 2.1-.1 2.3-.2.4-.1.4-.2.5-.4.1-.2.7-2.9.8-3 0-.1.2-.5-.2-.6-.4-.1-3.9-1-4.1-1.1-.2 0-.1-.1 0-.1h6.5c.3 0 1-.1.8.6-.2.7-1.2 3.8-1.3 4-.2-.1-.4.1-.6.1zm21.5 1.2h-8.8s-.1 0 0-.1 2.9-1 3.1-1c.4-.1.5-.2.6-.9 0-.7.2-4.5.2-4.7 0-.2.1-.7-.6-.8-.3 0-1.2-.1-2.3-.1h-2.7c-.7 0-.8.1-1.2.3-.3.2-4.5 5.4-4.7 5.7-.2.2-.1.5.3.6.5.1 3.1.7 3.7.8.1 0 .1.1-.1.1h-8.2c-.1 0-.1-.1 0-.1s1.2-.4 1.7-.9c.3-.2 15.9-17.2 16.2-17.5.1-.1.2-.1.2 0 .1.1-.2 16.3-.2 16.6 0 .3 0 .6.5.8.4.2 2 .9 2.2.9.3.2.2.3.1.3z"/><path id="XMLID_7_" class="st0" d="M26.5 52.2h4.3c.6 0 .8-.2.8-.6 0-.2.1-4.7.1-5.2s-.3-.5-.6-.1c-.2.2-4.6 5-4.9 5.3-.3.2-.4.6.3.6z"/><path id="XMLID_6_" class="st0" d="M78.9 46.3c-.2.2-4.6 5-4.9 5.3-.2.3-.3.6.4.6h4.3c.6 0 .8-.2.8-.6 0-.2.1-4.7.1-5.2-.1-.5-.3-.5-.7-.1z"/></g><g id="XMLID_2_"><path id="XMLID_3_" d="M128.1 35.6v30.8h-5.4l-16.6-20.2v20.2h-6.2V35.6h5.4l16.6 20.2V35.6h6.2z"/><path id="XMLID_13_" d="M143.2 43.9c6.7 0 10.9 4.6 10.9 11.7v1.6h-16.2v.1c.7 2.9 3.3 4.2 5.9 4.2 2.6 0 4.7-.9 6.2-2.2l2.4 4.8c-1.8 1.5-4.5 2.9-8.8 2.9-7.4 0-11.8-5-11.8-11.5.1-6.6 4.5-11.6 11.4-11.6zm-.2 4.9c-2.8 0-4.6 1.5-5.2 4.1h9.9c-.2-2.3-1.9-4.1-4.7-4.1z"/><path id="XMLID_16_" d="M163.5 35.6v12c1.5-2.1 4-3.7 7.4-3.7 5.4 0 9.9 4.1 9.9 11.6s-4.6 11.6-10 11.6c-3.2 0-5.7-1.4-7.3-3.7v3.1h-5.8V35.6h5.8zm5.6 13.9c-3.3 0-5.8 2.2-5.8 5.9 0 3.6 2.5 5.9 5.8 5.9s5.8-2.3 5.8-5.9-2.5-5.9-5.8-5.9z"/><path id="XMLID_37_" d="M196.4 43.9c.8 0 1.5.1 2.2.3v6.2c-.8-.3-1.7-.4-2.6-.4-3.8 0-5.5 2.2-5.5 6.4v9.9h-5.8v-22h5.6v3.6c1.1-2.4 3.1-4 6.1-4z"/><path id="XMLID_41_" d="M211.6 44c6.4 0 9.6 2.8 9.6 8.9v13.6h-5.8v-3c-1.1 1.8-3.3 3.4-6.8 3.4-4.4 0-7.4-2.8-7.4-6.9 0-4 3-6.5 7-6.9l6-.5c.8-.1 1.1-.4 1.1-.9v-.4c0-1.3-1.2-2.2-3.8-2.2-2.3 0-4.7.7-5.5 2.8l-4.3-3.1c1.5-3.2 5.1-4.8 9.9-4.8zm3.8 12.7l-5.5.7c-1.8.3-2.7 1.2-2.7 2.4 0 1.4 1.1 2.3 3.1 2.3 3.1 0 5.1-2.1 5.1-4.5v-.9z"/><path id="XMLID_44_" d="M234.9 43.9c4 0 6.8 1.3 8.8 3.3l-3.3 4.2c-1.2-1.4-3.6-2.2-5.9-2.2-1.8 0-2.8.6-2.8 1.5 0 1.1 1.2 1.4 5.1 2.2 3.8.8 7 2.3 7 6.9 0 5-3.7 7.2-9.5 7.2-4.2 0-7.8-1.2-9.8-3.7l3.4-4.4c1.5 1.8 3.9 2.9 7 2.9 1.6 0 2.9-.4 2.9-1.7 0-1.2-1.2-1.5-4.9-2.2-3.3-.7-7.3-2.2-7.3-7 0-4.4 3.5-7 9.3-7z"/><path id="XMLID_46_" d="M255.3 57.8L253 60v6.4h-5.8V35.6h5.8v17.3l8-8.4h7.7l-9.5 9.5 9.5 12.5h-7.5l-5.9-8.7z"/><path id="XMLID_48_" d="M280.6 44c6.4 0 9.6 2.8 9.6 8.9v13.6h-5.8v-3c-1.1 1.8-3.3 3.4-6.8 3.4-4.4 0-7.4-2.8-7.4-6.9 0-4 3-6.5 7-6.9l6-.5c.8-.1 1.1-.4 1.1-.9v-.4c0-1.3-1.2-2.2-3.8-2.2-2.3 0-4.7.7-5.5 2.8l-4.3-3.1c1.5-3.2 5.1-4.8 9.9-4.8zm3.8 12.7l-5.5.7c-1.8.3-2.7 1.2-2.7 2.4 0 1.4 1.1 2.3 3.1 2.3 3.1 0 5.1-2.1 5.1-4.5v-.9z"/></g></g></svg>