<svg xmlns="http://www.w3.org/2000/svg" width="1000" height="800" viewBox="-443.5 448.6 134.7 89.7"><path fill="#009B7B" d="M-382.2 458.6s5.6-5.8 5.9-5.8c.3.1 5.9 5.8 5.9 5.8 1.4 1.6 4 4.6.1 8.8-1.1 1.1-2.3 2.1-5.2 5.1l-.8-12.9-.8 12.9c-2.8-2.9-4.1-3.9-5.2-5.1-3.9-4.3-1.3-7.2.1-8.8zm11.8 30.8l-1.6 1.6-4-4.3.1-2.8 5.5 5.5zm-13.8-3.3c-.4-1.5-.1-3.4 1.9-5.5 1.1-1.1 2.3-2.1 5.2-5.1l.1 2.9c.1 0-7.2 7.7-7.2 7.7zm1.6 2.8c-.5-.5-1-1.2-1.3-2l7.1-7.1.1 2.8-5.9 6.3zm2.1 2.1l-1.6-1.6 5.4-5.5.1 2.8c.1.1-3.9 4.3-3.9 4.3zm7.9.7c-1.6 1.6-3.5 3.5-3.6 3.5-.2 0-2-1.9-3.6-3.5l3.5-3.5.2 3.1.2-3.1 3.3 3.5zm-3-13.3l.1-2.9c2.8 2.9 4.1 3.9 5.2 5.1 2.1 2.2 2.3 4 1.9 5.5l-7.2-7.7zm-.2 4.2l.1-2.8 7.1 7.1c-.3.8-.9 1.4-1.3 2l-5.9-6.3zm-15.8-2.7s-5.8-5.6-5.8-5.9c.1-.3 5.8-5.9 5.8-5.9 1.6-1.4 4.6-4 8.8-.1 1.1 1.1 2.1 2.3 5.1 5.2l-12.9.8 12.9.8c-2.9 2.8-3.9 4.1-5.1 5.2-4.3 3.9-7.2 1.3-8.8-.1zm30.7-11.9s5.8 5.6 5.8 5.9c-.1.3-5.8 5.9-5.8 5.9-1.6 1.4-4.6 4-8.8.1-1.1-1.1-2.1-2.3-5.1-5.2l12.9-.8-12.9-.8c2.9-2.8 3.9-4.1 5.1-5.2 4.3-3.9 7.2-1.3 8.8.1"/><path fill="#231F20" d="M-368.2 492.6v1.8h.3v-.7h.2c.2 0 .3 0 .3.1.1.1.2.2.2.4v.2h.3v-.4c0-.1 0-.2-.1-.3-.1-.1-.2-.2-.3-.2.1 0 .2 0 .3-.1.1-.1.2-.2.2-.3 0-.2-.1-.4-.3-.4-.1 0-.3-.1-.5-.1h-.6zm1.1.5c0 .1-.1.2-.2.3h-.6v-.6h.3c.2 0 .3 0 .4.1.1 0 .1.1.1.2zm1.2.4c0-.4-.2-.8-.5-1.1-.3-.3-.7-.5-1.1-.5-.4 0-.8.2-1.1.5-.3.3-.5.7-.5 1.1 0 .4.2.8.5 1.1.3.3.7.5 1.1.5.4 0 .8-.2 1.1-.5.3-.3.5-.7.5-1.1zm-1.6-1.4c.4 0 .7.1 1 .4.3.3.4.6.4 1s-.1.7-.4 1c-.3.3-.6.4-1 .4s-.7-.1-1-.4c-.3-.3-.4-.6-.4-1s.1-.7.4-1c.3-.3.6-.4 1-.4M-404.4 529.1c-.8 0-.9-1.5-.9-2.1 0-.9.2-3.5 1.4-3.5.8 0 .9 1.5.9 2.1-.1 1-.2 3.5-1.4 3.5zm-.5.6c2.3 0 3.7-2.1 3.7-4.4 0-1.5-.8-2.3-2.3-2.3-2.3 0-3.7 2.1-3.7 4.4 0 1.6.9 2.3 2.3 2.3M-397.7 523.3c.1-1 .2-3.2 1.1-3.6.2.4.5.8.9.8.3 0 .6-.2.6-.5 0-.5-.7-.7-1.1-.7-.7 0-2.7.3-3.1 3.3l-.1.8h-.8l-.1.5h.8c-.2 2.3-.5 5.8-.6 6.5-.3 1.4-.3 1.8-1 2.2-.2-.4-.5-.7-1-.7-.3 0-.5.2-.5.5 0 .5.5.8.9.8 1.2 0 3-1.2 3.4-3.4.2-1.2.3-2.6.5-5.8h1l.1-.5h-1M-388.6 525.7h-1.5l.7-5.3.8 5.3zm-2.1 4.4l.3-2.3h2l.4 2.3h2.5l-2.3-11.9h-3l-2.3 11.9h2.4M-384.8 521.2v8.9h2.3v-6.3c0-.5.2-.7.7-.7.4 0 .5.3.5.7v6.3h2.3v-6.3c0-.5.2-.7.6-.7.4 0 .6.3.6.7v6.3h2.3v-7.3c0-1.2-1-1.9-2-1.9-.6 0-1.2.4-1.7 1.2-.3-.7-1-1.2-1.7-1.2-.6 0-1.3.5-1.7 1.3v-1h-2.2M-368.4 526.1v-2.5c0-1.9-1.5-2.6-3.1-2.6-1.8 0-3.1.8-3.1 3v3.6c0 2 1.4 2.8 3.1 2.8 2 0 3.1-1.1 3-3.4h-2.3c0 .7 0 1.6-.8 1.5-.5 0-.7-.4-.7-.9V526c0 .1 3.9.1 3.9.1zm-3.9-1.7v-.6c0-.6.2-1.2.8-1.2.6 0 .8.6.8.9v.9h-1.6M-367.3 521.2v8.9h2.3v-5.5c0-.7.3-.9.9-.9.2 0 .5 0 .7.1V521c-.9 0-1.5.7-1.8 1.6v-1.4h-2.1M-360 520.4v-2.1h-2.3v2.1h2.3zm0 9.7v-8.9h-2.3v8.9h2.3M-352.7 524.6c.1-2.4-.8-3.5-3-3.6-1.8 0-2.8.8-2.8 3v3.6c0 2 1.2 2.8 2.8 2.8h.8c1-.1 1.8-.6 2.1-1.7.1-.5.2-1.6.2-2.1h-2.2c0 .7.1 2.1-.7 2.1-.6 0-.7-.5-.7-1V524c0-.6.1-1.1.7-1.1.3 0 .5.2.6.6l.1 1v.2h2.1M-347.5 530.1h2.2c-.1-.3-.2-.6-.2-1v-5.4c0-2-.8-2.7-3.1-2.7-1.8 0-3.2.8-3.1 3.1h2.3c0-.7 0-1.4.9-1.4.5 0 .7.4.7.9 0 1-1 1.1-2 1.4-1 .4-2 1-2 3 0 1.4.8 2.4 2.1 2.4.9 0 1.4-.4 2-1.1l.2.8zm-.3-2.9c0 .6-.2 1.3-.8 1.3-.5 0-.8-.4-.8-1s.2-.9.5-1.1c.3-.2.7-.4 1.1-.7v1.5M-434.5 513.7v-5h3.1v-2.4h-3.1v-2.1h3.4v-2.4h-5.9v11.9h2.5M-426 513.7h2.2c-.1-.3-.2-.6-.2-1v-5.4c0-2-.8-2.7-3.1-2.7-1.8 0-3.2.8-3.1 3.1h2.3c0-.7 0-1.4.9-1.4.5 0 .7.4.7.9 0 .9-1 1.1-2 1.4-1 .4-2 1-2 3 0 1.4.8 2.4 2.1 2.4.9 0 1.4-.4 2-1.1 0 .1.2.8.2.8zm-.3-2.9c0 .6-.2 1.4-.8 1.4-.5 0-.8-.4-.8-1s.2-.9.5-1.1c.3-.2.7-.4 1.1-.7v1.4M-422.8 504.9v8.9h2.3v-5.5c0-.7.3-.9.9-.9.2 0 .5 0 .7.1v-2.9c-.9 0-1.5.7-1.8 1.6v-1.3h-2.1M-418.1 504.9v8.9h2.3v-6.3c0-.5.2-.7.7-.7.4 0 .5.3.5.7v6.3h2.3v-6.3c0-.5.2-.7.6-.7.4 0 .6.3.6.7v6.3h2.3v-7.3c0-1.2-1-1.9-2-1.9-.6 0-1.2.4-1.7 1.2-.3-.7-1-1.2-1.7-1.2-.6 0-1.3.5-1.7 1.3v-1h-2.2M-397.4 506v-1c0-2.4-1.3-3.4-3.4-3.4-2.3 0-3.4 1.2-3.4 3.8v4.9c0 2.4.9 3.8 3.2 3.8 2.6 0 3.6-1.4 3.6-3.5v-1.5h-2.5v1.1c0 .7-.1 1.7-.9 1.7-.7 0-.9-.4-.9-1.1v-5.9c0-.8.2-1.3 1-1.2.5 0 .8.5.8 1.5v.8h2.5M-396.2 504.9v8.9h2.3v-5.5c0-.7.3-.9.9-.9.2 0 .5 0 .7.1v-2.9c-.9 0-1.5.7-1.8 1.6v-1.3h-2.1M-385.4 509.7v-2.5c0-1.9-1.5-2.6-3.1-2.6-1.8 0-3.1.8-3.1 3v3.6c0 2 1.4 2.8 3.1 2.8 2 0 3.1-1.1 3-3.4h-2.3c0 .7 0 1.6-.8 1.5-.5 0-.7-.4-.7-.9v-1.6c0 .1 3.9.1 3.9.1zm-3.9-1.7v-.6c0-.6.2-1.2.8-1.2.6 0 .8.6.8.9v.9h-1.6M-378.5 513.7v-11.9h-2.3v3.8c-.5-.8-1.1-1.1-1.7-1.1-1.5 0-1.9 1.7-1.9 3v3.1c0 1.5.3 3.2 2 3.3.7 0 1.4-.5 1.8-1.3v1c0 .1 2.1.1 2.1.1zm-3.6-5.5c0-.6 0-1.6.7-1.6.6 0 .7.9.7 1.7v2.1c0 .9-.1 1.5-.7 1.5-.7 0-.7-.9-.7-1.4v-2.3M-374.7 504v-2.1h-2.3v2.1h2.3zm0 9.7v-8.9h-2.3v8.9h2.3M-372.8 506.7v5.1c0 1.3.7 2 1.9 2l1.5-.1V512h-.6c-.3 0-.5-.1-.5-.6v-4.7h1.1v-1.8h-1.1v-2.5h-2.3v2.5h-.9v1.8h.9M-365.3 509.8v1.3c0 1.6 1 3 3.3 3 2.1 0 3.2-1.3 3.2-3.6 0-1.4-.3-2.2-.9-2.8-.6-.6-1.4-1-2.3-1.7-.5-.4-.8-.7-.8-1.5.1-.5.4-.8.9-.8.8.1.8 1 .8 1.7h2.3c.1-2.2-1-3.9-3.2-3.9-1.9 0-3.2 1.1-3.2 3.4 0 1 .3 1.8.7 2.4.5.6 1.1 1.1 1.9 1.6.7.4 1.4.8 1.4 1.8 0 .6-.3 1.2-.8 1.2-.8 0-1-.6-1-1.3v-.8h-2.3M-351.7 509.7v-2.5c0-1.9-1.5-2.6-3.1-2.6-1.8 0-3.1.8-3.1 3v3.6c0 2 1.4 2.8 3.1 2.8 2 0 3.1-1.1 3-3.4h-2.3c0 .7 0 1.6-.8 1.5-.5 0-.7-.4-.7-.9v-1.6h3.9zm-3.9-1.7v-.6c0-.6.2-1.2.8-1.2.6 0 .8.6.8.9v.9h-1.6M-350.6 504.9v8.9h2.3v-5.5c0-.7.3-.9.9-.9.2 0 .5 0 .7.1v-2.9c-.9 0-1.5.7-1.8 1.6v-1.3h-2.1M-343.8 504.9h-2.3l1.7 8.9h2.6l1.8-8.9h-2.2l-.8 5.7-.8-5.7M-336.8 504v-2.1h-2.3v2.1h2.3zm0 9.7v-8.9h-2.3v8.9h2.3M-329.4 508.2c.1-2.4-.8-3.5-3-3.6-1.8 0-2.8.8-2.8 3v3.6c0 2 1.2 2.8 2.8 2.8h.8c1-.1 1.8-.6 2.1-1.7.1-.5.2-1.6.2-2.1h-2.2c0 .7.1 2.1-.7 2.1-.6 0-.7-.5-.7-1v-3.7c0-.6.1-1.1.7-1.1.3 0 .5.2.6.6l.1 1v.2h2.1M-322.1 509.7v-2.5c0-1.9-1.5-2.6-3.1-2.6-1.8 0-3.1.8-3.1 3v3.6c0 2 1.4 2.8 3.1 2.8 2 0 3.1-1.1 3-3.4h-2.3c0 .7 0 1.6-.8 1.5-.5 0-.7-.4-.7-.9v-1.6h3.9zm-3.9-1.7v-.6c0-.6.2-1.2.8-1.2.6 0 .8.6.8.9v.9h-1.6M-315.6 507.5c.1-2-1.2-2.9-2.9-2.9-1.6 0-3 .8-3 2.7 0 .6.2 1.2.6 1.7.7.9 2 1.3 2.9 1.8.2.2.3.4.3.7 0 .6-.3.8-.8.8-.7 0-.8-.7-.8-1.3h-2.2c-.1 2.1 1.2 3 3 3 1.7 0 3-.8 3-2.8 0-2.1-1.6-2.5-3.1-3.3-.3-.2-.7-.4-.7-.9s.3-.7.8-.7c.7 0 .7.6.8 1.2h2.1"/></svg>