<?xml version="1.0" encoding="utf-8"?>
<!-- Generator: Adobe Illustrator 19.2.1, SVG Export Plug-In . SVG Version: 6.00 Build 0)  -->
<svg version="1.1" id="Layer_1" xmlns="http://www.w3.org/2000/svg" xmlns:xlink="http://www.w3.org/1999/xlink" x="0px" y="0px"
	 viewBox="0 0 718.7 292.7" style="enable-background:new 0 0 718.7 292.7;" xml:space="preserve">
<style type="text/css">
	.st0{fill:#50C6DB;}
</style>
<g>
	<g>
		<path class="st0" d="M146,82.3c-35.2,0-63.8,28.6-63.8,63.8s28.6,63.8,63.8,63.8s63.8-28.6,63.8-63.8S181.3,82.3,146,82.3z
			 M128.9,91.3c5.4-1.7,11.1-2.6,17.1-2.6c6.2,0,12.2,1,17.8,2.8c-3.7,2.5-6.3,6-7.7,10.2c-2.4,7.3,0.1,14,2.4,19.8l0.2,0.6
			c1.3,3.5,1.9,7.9-1.4,11c-1.4-1.2-2.9-2.2-4.7-3c0.5-7.2-3.7-13.5-11.7-17.2l-0.6-0.3c-5.3-2.4-9.9-4.5-12.1-8.8
			c-2.5-4.8-1.1-9.3,0.6-12.4L128.9,91.3z M155.1,145.9c0,5-4,9-9,9s-9-4-9-9s4-9,9-9S155.1,141,155.1,145.9z M119.1,95.4
			c-0.7,4.2,0,8.4,2,12.2c3.6,6.8,10.1,9.8,15.9,12.4l0.6,0.3c3.4,1.5,7,4.2,7.1,8.6c-1.9,0.1-3.7,0.6-5.4,1.3
			c-4.8-5.5-12.3-7.1-20.6-4.2l-0.7,0.2c-5.4,2-10.1,3.7-14.9,2.1c-4.8-1.5-7.2-5.3-8.3-8.3C100.2,109.7,108.6,101,119.1,95.4z
			 M91.2,163c-1.6-5.3-2.5-11-2.5-16.9c0-5.7,0.9-11.3,2.4-16.5c2.5,3.1,5.8,5.3,9.6,6.5c7.4,2.4,14.1,0,20.1-2.2l0.7-0.2
			c3.6-1.3,8.2-1.9,11.5,1.5c-1.1,1.3-2,2.8-2.6,4.4c-7.5-0.7-14.1,3.3-17.8,11.3l-0.3,0.6c-2.4,5.1-4.5,9.6-8.9,11.8
			c-4.5,2.2-9,1.1-11.9-0.2L91.2,163z M118.5,196.4c-10-5.5-18.2-13.9-23.5-24.1c0.9,0.1,1.8,0.2,2.7,0.2c3.2,0,6.2-0.7,9.1-2.1
			c7-3.4,10-9.9,12.6-15.5l0.3-0.6c1.6-3.4,4.5-7.1,9.4-6.8c0.2,1.7,0.6,3.4,1.2,4.9c-5.8,4.7-7.5,12.2-4.3,20.5l0.2,0.7
			c2,5.3,3.8,9.9,2.3,14.5c-1.7,5.1-6,7.3-9.4,8.3L118.5,196.4z M163.3,200.8c-5.5,1.7-11.3,2.7-17.3,2.7c-6.1,0-12.1-1-17.6-2.8
			c3.7-2.5,6.3-6,7.7-10.2c2.4-7.3-0.1-14-2.4-19.8l-0.2-0.6c-1.3-3.5-2-8,1.6-11.2c1.4,1.2,2.9,2.1,4.5,2.8
			c-0.7,7.3,3.5,13.8,11.7,17.5l0.6,0.3c5.3,2.4,9.9,4.5,12.1,8.8c2.5,4.8,1.1,9.3-0.6,12.4C163.5,200.6,163.5,200.8,163.3,200.8z
			 M173.2,196.6c0.6-4.2-0.1-8.3-2-12.1c-3.6-6.8-10.1-9.8-15.9-12.4l-0.6-0.3c-3.5-1.6-7.2-4.4-7.1-9c1.8-0.2,3.5-0.6,5.1-1.2
			c4.8,5.7,12.4,7.5,20.8,4.5l0.7-0.2c5.4-2,10.1-3.7,14.9-2.1c4.7,1.5,7.1,5.1,8.2,8.1C192,182.3,183.6,191,173.2,196.6z
			 M203.4,146.1c0,5.7-0.8,11.2-2.4,16.4c-2.5-3-5.7-5.2-9.5-6.4c-7.4-2.4-14.1,0-20.1,2.2l-0.7,0.2c-3.7,1.3-8.4,1.9-11.7-1.7
			c1.1-1.3,1.9-2.7,2.6-4.2c0.7,0.1,1.3,0.1,1.9,0.1c6.8,0,12.6-4.1,16.1-11.4l0.3-0.6c2.4-5.1,4.5-9.6,8.9-11.8
			c4.5-2.2,9-1.2,12,0.2C202.5,134.5,203.4,140.2,203.4,146.1z M185.4,121.8c-7,3.4-10,9.9-12.6,15.5l-0.3,0.6
			c-1.6,3.5-4.5,7.2-9.5,6.8c-0.1-1.7-0.5-3.4-1.1-4.9c5.8-4.7,7.5-12.2,4.3-20.5l-0.3-0.7c-2-5.3-3.8-9.9-2.3-14.5
			c1.7-5.1,6-7.3,9.4-8.3l0.4-0.1c10,5.5,18.2,13.9,23.5,24.1C193,119.3,189,120,185.4,121.8z"/>
		<path class="st0" d="M146,64.8c-44.9,0-81.3,36.4-81.3,81.3s36.4,81.3,81.3,81.3c44.9,0,81.3-36.4,81.3-81.3S190.9,64.8,146,64.8z
			 M146,217.1c-39.2,0-71.1-31.9-71.1-71.1S106.9,75,146,75c39.2,0,71.1,31.9,71.1,71.1S185.2,217.1,146,217.1z"/>
		<path class="st0" d="M213.6,79.1c-7.6-7.7-17.4-13.3-26.2-15.1c-0.5-0.1-1.1,0.2-1.3,0.7c-0.2,0.5,0.1,1.1,0.6,1.3
			c8.3,3.8,16.4,9.5,23.3,16.5c7,7.1,12.7,15.2,16.4,23.6c0.2,0.4,0.6,0.7,1,0.7c0.1,0,0.2,0,0.3-0.1c0.5-0.2,0.9-0.7,0.7-1.3
			C226.6,96.3,221.3,86.8,213.6,79.1z"/>
		<path class="st0" d="M105.1,226.1c-8.3-3.8-16.4-9.5-23.3-16.5c-7-7.1-12.7-15.2-16.4-23.6c-0.2-0.5-0.8-0.8-1.3-0.6
			c-0.5,0.2-0.9,0.7-0.7,1.3c1.9,9.3,7.2,18.7,14.9,26.5c7.6,7.7,17.4,13.3,26.2,15.1c0.1,0,0.1,0,0.2,0c0.5,0,0.9-0.3,1-0.8
			C105.9,226.9,105.6,226.3,105.1,226.1z"/>
		<path class="st0" d="M292.8,113.8h-30c-1,0-1.8,0.8-1.8,1.8v61.6c0,1,0.8,1.8,1.8,1.8h6c1,0,1.8-0.8,1.8-1.8V151H290
			c1,0,1.8-0.8,1.8-1.8v-6c0-1-0.8-1.8-1.8-1.8h-19.4v-18.2h22.2c1,0,1.8-0.8,1.8-1.8v-6C294.6,114.5,293.8,113.8,292.8,113.8z"/>
		<path class="st0" d="M339.1,169.4h-22.2v-53.9c0-1-0.8-1.8-1.8-1.8h-6c-1,0-1.8,0.8-1.8,1.8v61.6c0,1,0.8,1.8,1.8,1.8h30
			c1,0,1.8-0.8,1.8-1.8v-6C340.8,170.2,340,169.4,339.1,169.4z"/>
		<path class="st0" d="M381,113.5h-6.7c-0.6,0-1.2,0.4-1.5,0.9l-13.6,25.1l-13.8-25.1c-0.3-0.6-0.9-0.9-1.5-0.9h-6.7
			c-0.6,0-1.2,0.3-1.5,0.9c-0.3,0.5-0.3,1.2,0,1.7l18.7,34.4v26.6c0,1,0.8,1.8,1.8,1.8h6c1,0,1.8-0.8,1.8-1.8v-26l18.7-35.1
			c0.3-0.5,0.3-1.2,0-1.7C382.2,113.9,381.6,113.5,381,113.5z"/>
		<path class="st0" d="M650.6,169.4h-22.2v-53.9c0-1-0.8-1.8-1.8-1.8h-6c-1,0-1.8,0.8-1.8,1.8v61.6c0,1,0.8,1.8,1.8,1.8h30
			c1,0,1.8-0.8,1.8-1.8v-6C652.4,170.2,651.6,169.4,650.6,169.4z"/>
		<path class="st0" d="M507.1,113.8h-6c-1,0-1.8,0.8-1.8,1.8v25.9h-21.5v-25.9c0-1-0.8-1.8-1.8-1.8h-6c-1,0-1.8,0.8-1.8,1.8v61.6
			c0,1,0.8,1.8,1.8,1.8h6c1,0,1.8-0.8,1.8-1.8V151h21.5v26.2c0,1,0.8,1.8,1.8,1.8h6c1,0,1.8-0.8,1.8-1.8v-61.6
			C508.8,114.5,508,113.8,507.1,113.8z"/>
		<path class="st0" d="M555.4,113.8H525c-1,0-1.8,0.8-1.8,1.8v61.6c0,1,0.8,1.8,1.8,1.8h30.4c1,0,1.8-0.8,1.8-1.8v-6
			c0-1-0.8-1.8-1.8-1.8h-22.6V151h19.7c1,0,1.8-0.8,1.8-1.8v-6c0-1-0.8-1.8-1.8-1.8h-19.7v-18.2h22.6c1,0,1.8-0.8,1.8-1.8v-6
			C557.2,114.5,556.4,113.8,555.4,113.8z"/>
		<path class="st0" d="M603.3,113.8H573c-1,0-1.8,0.8-1.8,1.8v61.6c0,1,0.8,1.8,1.8,1.8h30.4c1,0,1.8-0.8,1.8-1.8v-6
			c0-1-0.8-1.8-1.8-1.8h-22.6V151h19.8c1,0,1.8-0.8,1.8-1.8v-6c0-1-0.8-1.8-1.8-1.8h-19.8v-18.2h22.6c1,0,1.8-0.8,1.8-1.8v-6
			C605.1,114.5,604.3,113.8,603.3,113.8z"/>
		<path class="st0" d="M456.1,113.7h-6.6c-0.6,0-1.1,0.4-1.2,1l-10.1,43.6l-10.3-43.7c-0.1-0.6-0.6-1-1.2-1H420
			c-0.6,0-1.1,0.4-1.2,1l-10.3,43.6l-10.1-43.6c-0.1-0.6-0.6-1-1.2-1h-6.6c-0.4,0-0.7,0.2-1,0.5c-0.2,0.3-0.3,0.7-0.2,1.1l14.6,62.7
			c0,0.2,0.1,0.4,0.3,0.6c0.2,0.3,0.6,0.5,1,0.5h6.6c0.6,0,1.1-0.4,1.2-1l10.4-43.8l10.3,43.8c0.1,0.6,0.6,1,1.2,1h6.6
			c0.6,0,1.1-0.4,1.2-1l14.6-62.8c0.1-0.4,0-0.8-0.2-1.1C456.8,113.9,456.4,113.7,456.1,113.7z"/>
	</g>
</g>
</svg>
