<svg xmlns="http://www.w3.org/2000/svg" viewBox="0 0 88.226669 29.053333" height="29.053" width="88.227"><path d="M12.682 7.93v-.44H7.474v.44s1.64-.174 1.64 1.383v3.66H3.706v-3.66c0-1.557 1.64-1.382 1.64-1.382v-.44H.136v.44s1.64-.175 1.64 1.382v8.41c0 1.555-1.64 1.38-1.64 1.38v.442h5.207v-.442s-1.639.175-1.639-1.38v-3.877h5.41v3.877c0 1.555-1.64 1.38-1.64 1.38v.442h5.207v-.442s-1.64.175-1.64-1.38v-8.41c0-1.557 1.64-1.382 1.64-1.382M42.85 9.313c0-1.557 1.64-1.382 1.64-1.382v-.44h-5.208v.44s1.64-.175 1.64 1.382v8.41c0 1.555-1.64 1.38-1.64 1.38v.442h5.208v-.442s-1.64.175-1.64-1.38v-8.41"/><path d="M19.209 16.115c0 1.99-1.525 3.605-3.407 3.605-1.882 0-3.408-1.615-3.408-3.605 0-1.991 1.526-3.606 3.408-3.606s3.407 1.615 3.407 3.606M52.12 19.25c-.182 0-.717-.182-.717-1.122V14.88c0-2.295-1.383-2.374-1.761-2.374-.378 0-.952.13-1.344.418-.33.24-.725.549-.965.738v-1.065l-.17-.143c-.992.47-2.205.757-2.205.757v.339c.849-.248 1.031.274 1.031.665v3.98c0 .874-.392 1.017-.64 1.03-.247.013-.451.026-.451.026v.295h3.492v-.295l-.418-.026c-.497-.048-.64-.483-.64-.835v-4.154c.527-.573 1.152-.843 1.723-.843.679 0 1.004.522 1.004 1.213v3.784c0 .705-.443.874-.626.874h-.425v.282h3.57v-.295h-.457"/><path d="M30.228 19.25c-.183 0-.718-.182-.718-1.122V14.88c0-2.295-1.383-2.374-1.76-2.374-.38 0-.935.157-1.344.418-.46.292-.945.701-1.12.853-.36-1.22-1.316-1.27-1.62-1.27-.38 0-.953.13-1.344.417-.33.24-.725.549-.966.738v-1.065l-.17-.143c-.991.47-2.204.757-2.204.757v.339c.848-.248 1.03.274 1.03.665v3.98c0 .874-.392 1.017-.64 1.03-.247.013-.45.026-.45.026v.295h3.49v-.295l-.417-.026c-.498-.048-.639-.483-.639-.835v-4.154c.526-.573 1.152-.843 1.722-.843.68 0 1.005.522 1.005 1.213v3.784c0 .705-.443.874-.627.874h-.425v.282h3.57v-.295h-.457c-.183 0-.717-.182-.717-1.122V14.88c0-.216-.012-.412-.035-.591.536-.61 1.181-.896 1.77-.896.679 0 1.005.522 1.005 1.213v3.784c0 .705-.444.874-.627.874h-.425v.282h3.57v-.295h-.457"/><path d="M35.84 16.977c-.563 1.066-1.34 1.617-2.394 1.617-1.761 0-2.191-1.837-2.24-3.171h4.685c0-2.032-1.354-2.909-2.646-2.909-1.19 0-3.234.84-3.234 3.886 0 1.455.664 3.36 2.971 3.36 2.308 0 3.235-2.595 3.235-2.595l-.376-.188M68.655 16.977c-.564 1.066-1.341 1.617-2.395 1.617-1.76 0-2.192-1.837-2.24-3.171h4.685c0-2.032-1.354-2.909-2.645-2.909-1.19 0-3.235.84-3.235 3.886 0 1.455.665 3.36 2.971 3.36 2.308 0 3.235-2.595 3.235-2.595l-.376-.188M53.534 19.693h-.406v-2.49h.406s.22 2.115 1.875 2.115c.688 0 1.157-.521 1.157-1.042 0-.52-.188-.813-1.25-1.396-1.063-.583-2.22-1.187-2.22-2.427s.865-1.99 2.23-1.99c.896 0 1.427.563 1.615.147h.333v2.333h-.365s-.218-1.917-1.49-1.917c-.551 0-1.166.26-1.166.864 0 .605.313.938 1.448 1.553 1.135.614 2.083 1.03 2.083 2.406 0 1.375-1.5 1.917-2.187 1.917-1.396 0-1.823-.677-2.063-.073M62.325 18.234c-.23.362-.61.675-1.005.576-.427-.107-.593-.445-.593-1.12v-4.43h1.548v-.593h-1.548v-1.663c0-.363-.219-.397-.379-.131-.708 1.168-1.515 1.843-1.746 1.992-.23.148-.131.396.05.396h.626v4.133c0 1.696.428 2.387 1.548 2.387s1.844-1.218 1.844-1.218l-.345-.33M74.94 17.991v-3.177c0-.912-.362-2.35-2.35-2.35-1.877 0-2.565 1.013-2.565 1.675 0 .438.238.888.75.888.551 0 .902-.437.689-1.163-.142-.484.4-.8 1.05-.8s1.001.475 1.001 1.188v.804c-.396.177-.988.407-1.801.76-1.389.6-1.99 1.287-1.99 2.326 0 1.037.664 1.613 1.777 1.613.914 0 1.69-.627 2.048-.975.103.53.444 1.013 1.116 1.013.826 0 1.364-.888 1.364-.888v-.563c-.776.675-1.088.5-1.088-.35M82.458 17.991V9.38c0-.336-.318-.248-.371-.23-.999.344-2.14.68-2.14.68v.416c.822-.168 1.052.106 1.052.425v2.415a2.017 2.017 0 0 0-1.481-.614c-1.578 0-3.267 1.354-3.267 4.1 0 2.248 1.59 3.254 2.87 3.254.878 0 1.546-.498 1.878-.81v.33c0 .424.242.427.39.37.884-.336 2.069-.708 2.069-.708v-.44c-.902.123-1-.213-1-.576"/><path d="M0 29.053h84.404v-8.26H0z" fill="gray"/><path d="M3.88 25.993h.097c.133.58.535.907 1.085.907.513 0 .833-.305.833-.75 0-.439-.32-.617-.855-.908-.892-.475-1.383-.803-1.383-1.627 0-.87.661-1.517 1.747-1.517.453 0 .84.112 1.19.35a8.738 8.738 0 0 0-.247.817h-.08a1.021 1.021 0 0 0-.997-.714c-.439 0-.728.268-.728.655 0 .409.281.587.81.862.476.245.87.401 1.085.624.268.275.394.595.394 1.004 0 .996-.721 1.672-1.865 1.672-.573 0-1.012-.104-1.331-.349.089-.305.17-.646.245-1.026M10.726 24.737v-.372c0-.788-.007-1.516-.089-2.17.52.022 1.019.029 1.494.029.483 0 .937-.007 1.375-.03-.014.105-.03.216-.03.32 0 .104.016.209.03.313a34.161 34.161 0 0 0-1.672-.082c-.022.252-.022.498-.022.735v.863c.587-.022 1.152-.037 1.665-.06-.016.097-.03.202-.03.313 0 .104.014.207.03.32a31.199 31.199 0 0 0-1.665-.068v.892c0 .416 0 .75.03.996a30.35 30.35 0 0 0 1.664-.111 2.029 2.029 0 0 0 .008.647 74.908 74.908 0 0 0-1.8-.037c-.363 0-.72.007-1.077.037.089-.736.089-1.584.089-2.535M17.617 24.781c0-.951-.03-1.814-.089-2.587.14.023.275.03.409.03.133 0 .267-.007.401-.03 1.01 1.13 2.044 2.268 3.1 3.413v-.878c0-.223-.008-1.07-.03-2.535.105.023.208.03.305.03.111 0 .216-.007.327-.036-.06.52-.067 1.56-.067 3.106v.409c0 .602.007 1.115.059 1.569a1.486 1.486 0 0 0-.319-.037c-.104 0-.216.014-.328.037a138.549 138.549 0 0 0-3.24-3.56v2.17c0 .125.007.586.022 1.39a1.49 1.49 0 0 0-.312-.037c-.104 0-.209.014-.32.037.06-.773.082-1.606.082-2.49M26.373 24.737c0-.952-.014-1.807-.081-2.543a4.635 4.635 0 0 0 1.286 0c-.068.752-.083 1.606-.083 2.543 0 .892.008 1.731.083 2.535a6.241 6.241 0 0 0-.64-.037c-.215 0-.43.014-.646.037.074-.848.08-1.687.08-2.535M31.62 24.811c0 1.628.99 2.557 2.81 2.557 1.71 0 2.81-1.04 2.81-2.63 0-1.674-.973-2.64-2.727-2.64-1.829 0-2.892 1.033-2.892 2.713M40.972 27.272a5.197 5.197 0 0 1 1.227 0 18.79 18.79 0 0 1-.06-1.412v-1.005a36.33 36.33 0 0 1 1.494 2.417c.223-.023.446-.037.662-.037.223 0 .446.014.661.037l-1.672-2.505c.795-.187 1.205-.625 1.205-1.3 0-.871-.595-1.288-1.792-1.288-.684 0-1.122.038-1.324.038-.104 0-.237-.007-.401-.023.075.789.097 1.636.097 2.543 0 .855-.015 1.694-.097 2.535M57.72 23.376c-.157-.52-.647-.832-1.36-.832-1.064 0-1.695.773-1.695 2.14 0 1.465.624 2.245 1.776 2.245.476 0 1.01-.186 1.442-.55l.089.023-.17.624c-.477.23-.99.342-1.554.342-1.747 0-2.758-.989-2.758-2.653 0-1.569 1.107-2.625 2.877-2.625.557 0 1.1.127 1.65.372a4.818 4.818 0 0 0-.194.9l-.104.014M61.406 27.272c.127-.016.238-.023.35-.023.111 0 .223.007.32.023.17-.454.341-.951.528-1.495.29-.014.579-.014.87-.014.29 0 .579 0 .868.014.156.469.32.96.491 1.495.216-.023.424-.03.64-.03.215 0 .43.007.639.03a93.142 93.142 0 0 1-2.067-5.174c-.081.015-.17.023-.267.023s-.194-.008-.298-.023a66.154 66.154 0 0 1-2.074 5.174M69.799 27.272c.215-.023.423-.037.624-.037.208 0 .409.014.602.037-.038-.484-.06-.951-.06-1.412v-1.005a36.275 36.275 0 0 1 1.494 2.417c.224-.023.447-.037.663-.037.222 0 .445.014.661.037l-1.673-2.505c.796-.187 1.205-.625 1.205-1.3 0-.871-.595-1.288-1.792-1.288-.684 0-1.122.038-1.323.038-.104 0-.238-.007-.401-.023.074.789.096 1.636.096 2.543 0 .855-.015 1.694-.096 2.535M77.581 24.737v-.372c0-.788-.008-1.516-.089-2.17.52.022 1.018.029 1.494.029.483 0 .936-.007 1.375-.03-.015.105-.03.216-.03.32 0 .104.015.209.03.313a34.18 34.18 0 0 0-1.672-.082c-.022.252-.022.498-.022.735v.863c.587-.022 1.151-.037 1.664-.06-.014.097-.029.202-.029.313 0 .104.015.207.03.32a31.175 31.175 0 0 0-1.665-.068v.892c0 .416 0 .75.029.996a30.316 30.316 0 0 0 1.665-.111 1.886 1.886 0 0 0-.022.29c0 .12.015.237.03.357a75.05 75.05 0 0 0-1.8-.037c-.363 0-.72.007-1.077.037.09-.736.09-1.584.09-2.535M15.981 19.224c-.966 0-2.088-.978-2.088-3.822 0-1.814 1.058-2.341 1.748-2.362.888-.026 2.127.678 2.127 3.627 0 2.14-1.213 2.557-1.787 2.557M32.932 13.128c1.291 0 1.329 1.743 1.329 1.743h-3.043c.091-.903.615-1.743 1.714-1.743M65.747 13.128c1.29 0 1.328 1.743 1.328 1.743h-3.043c.09-.903.615-1.743 1.715-1.743M71.363 18.28c-.275-.701-.1-1.44.614-1.914.515-.344 1.198-.602 1.538-.719v2.437c-.855.826-1.905.823-2.152.195M79.717 18.806c-1.256 0-1.975-1.155-1.975-2.969 0-1.13.41-2.72 1.826-2.72.84 0 1.242.678 1.431 1.229v3.79c-.35.495-.863.67-1.282.67" fill="#fff"/><path d="M44.308.62s.936.74.936 2.224c0 1.483-1.19 3.824-3.16 3.824-1.971 0-3.787-2.654-3.045-5.268l1.503 1.366 1.21-2.771 1.54 2.459L44.309.619" fill="gray"/><path d="M36.478 7.809s1.679.287 2.728.751c1.05.464 1.824 2.022.664 2.873-1.16.851-2.199-.044-2.199-.044l-1.193-3.58M46.544 9.355s-.442 1.78-.885 2.652c-.182.362-.453.984-1.303.984-.851 0-1.36-.586-1.36-1.326 0-.74.52-1.481 1.415-1.746.895-.265 2.133-.564 2.133-.564" fill="#bfbfbf"/><path d="M32.818 24.737c0-1.413.624-2.223 1.613-2.223.974 0 1.605.796 1.605 2.223 0 1.412-.63 2.207-1.605 2.207-.996 0-1.613-.802-1.613-2.207M42.132 24.625v-1.108c0-.29.008-.594.022-.899.06 0 .112-.007.164-.007.698 0 1.01.282 1.01.922 0 .765-.356 1.092-1.166 1.092h-.03M62.811 25.287c.194-.572.416-1.145.676-1.702.246.557.461 1.13.648 1.702-.224.007-.447.015-.662.015-.223 0-.439-.008-.662-.015M70.958 24.625v-1.108c0-.29.008-.594.022-.899.06 0 .112-.007.164-.007.7 0 1.011.282 1.011.922 0 .765-.357 1.092-1.168 1.092h-.029M85.404 21.677a1.415 1.415 0 1 0 1.414-1.415c-.78 0-1.414.635-1.414 1.415" fill="gray"/><path d="M85.654 21.677c0-.642.523-1.164 1.164-1.164a1.165 1.165 0 1 1-1.164 1.165" fill="#fff"/><path d="M87.565 22.357c-.088-.005-.14-.047-.186-.11l-.44-.587c.11-.024.386-.08.386-.391 0-.358-.351-.407-.541-.407h-.588v.044c.15.017.181.037.181.21v1.006c0 .174-.009.223-.181.235v.044h.59v-.044c-.17-.01-.192-.054-.192-.21v-.458l.12-.004.507.716h.344v-.044" fill="gray"/><path d="M86.594 21.032c0-.067.02-.084.133-.084.087 0 .366.007.366.316 0 .332-.32.337-.499.34v-.572" fill="#fff"/></svg>