<?xml version="1.0" encoding="UTF-8" standalone="no"?>
<svg
   xmlns:dc="http://purl.org/dc/elements/1.1/"
   xmlns:cc="http://creativecommons.org/ns#"
   xmlns:rdf="http://www.w3.org/1999/02/22-rdf-syntax-ns#"
   xmlns:svg="http://www.w3.org/2000/svg"
   xmlns="http://www.w3.org/2000/svg"
   viewBox="0 0 88.226669 29.053333"
   height="29.053333"
   width="88.226669"
   xml:space="preserve"
   id="svg2"
   version="1.1"><metadata
     id="metadata8"><rdf:RDF><cc:Work
         rdf:about=""><dc:format>image/svg+xml</dc:format><dc:type
           rdf:resource="http://purl.org/dc/dcmitype/StillImage" /></cc:Work></rdf:RDF></metadata><defs
     id="defs6" /><g
     transform="matrix(1.3333333,0,0,-1.3333333,0,29.053333)"
     id="g10"><g
       transform="scale(0.1)"
       id="g12"><path
         id="path14"
         style="fill:#000000;fill-opacity:1;fill-rule:nonzero;stroke:none"
         d="m 95.1172,158.418 v 3.305 H 56.0586 v -3.305 c 0,0 12.3008,1.309 12.3008,-10.363 v -27.45 H 27.7891 v 27.45 c 0,11.672 12.2929,10.363 12.2929,10.363 v 3.305 H 1.03125 v -3.305 c 0,0 12.29295,1.309 12.29295,-10.363 V 84.9805 C 13.3242,73.3164 1.03125,74.625 1.03125,74.625 V 71.3125 H 40.082 v 3.3125 c 0,0 -12.2929,-1.3086 -12.2929,10.3555 V 114.055 H 68.3594 V 84.9805 C 68.3594,73.3164 56.0586,74.625 56.0586,74.625 v -3.3125 h 39.0586 v 3.3125 c 0,0 -12.3008,-1.3086 -12.3008,10.3555 v 63.0745 c 0,11.672 12.3008,10.363 12.3008,10.363" /><path
         id="path16"
         style="fill:#000000;fill-opacity:1;fill-rule:nonzero;stroke:none"
         d="m 321.379,148.055 c 0,11.672 12.297,10.363 12.297,10.363 v 3.305 h -39.063 v -3.305 c 0,0 12.301,1.309 12.301,-10.363 V 84.9805 c 0,-11.6641 -12.301,-10.3555 -12.301,-10.3555 v -3.3125 h 39.063 v 3.3125 c 0,0 -12.297,-1.3086 -12.297,10.3555 v 63.0745" /><path
         id="path18"
         style="fill:#000000;fill-opacity:1;fill-rule:nonzero;stroke:none"
         d="M 144.066,97.0391 C 144.066,82.1094 132.629,70 118.512,70 104.398,70 92.9531,82.1094 92.9531,97.0391 c 0,14.9339 11.4449,27.0429 25.5589,27.0429 14.117,0 25.554,-12.109 25.554,-27.0429" /><path
         id="path20"
         style="fill:#000000;fill-opacity:1;fill-rule:nonzero;stroke:none"
         d="m 390.906,73.5234 c -1.371,0 -5.383,1.3672 -5.383,8.4141 v 24.3675 c 0,17.218 -10.371,17.804 -13.211,17.804 -2.835,0 -7.14,-0.972 -10.078,-3.129 -2.472,-1.808 -5.433,-4.117 -7.238,-5.535 0,4.731 0,7.985 0,7.985 l -1.269,1.074 c -7.442,-3.524 -16.539,-5.676 -16.539,-5.676 v -2.543 c 6.363,1.86 7.73,-2.058 7.73,-4.992 V 81.4492 c 0,-6.5586 -2.938,-7.6328 -4.797,-7.7265 -1.855,-0.1016 -3.387,-0.1993 -3.387,-0.1993 v -2.2109 h 26.192 v 2.2109 l -3.137,0.1993 c -3.73,0.3554 -4.793,3.6171 -4.793,6.2578 v 31.1565 c 3.945,4.301 8.637,6.324 12.918,6.324 5.09,0 7.531,-3.914 7.531,-9.102 V 79.9805 c 0,-5.2852 -3.324,-6.5508 -4.699,-6.5508 -1.367,0 -3.187,0 -3.187,0 v -2.1172 h 26.773 v 2.2109 c 0,0 -2.051,0 -3.426,0" /><path
         id="path22"
         style="fill:#000000;fill-opacity:1;fill-rule:nonzero;stroke:none"
         d="m 226.711,73.5234 c -1.375,0 -5.383,1.3672 -5.383,8.4141 v 24.3675 c 0,17.218 -10.375,17.804 -13.207,17.804 -2.844,0 -7.012,-1.175 -10.078,-3.129 -3.453,-2.191 -7.082,-5.261 -8.395,-6.402 -2.707,9.145 -9.875,9.531 -12.16,9.531 -2.836,0 -7.14,-0.972 -10.074,-3.129 -2.476,-1.808 -5.437,-4.117 -7.242,-5.535 0,4.731 0,7.985 0,7.985 l -1.27,1.074 c -7.441,-3.524 -16.539,-5.676 -16.539,-5.676 v -2.543 c 6.364,1.86 7.731,-2.058 7.731,-4.992 V 81.4492 c 0,-6.5586 -2.942,-7.6328 -4.797,-7.7265 -1.859,-0.1016 -3.387,-0.1993 -3.387,-0.1993 v -2.2109 h 26.184 v 2.2109 l -3.129,0.1993 c -3.735,0.3554 -4.793,3.6171 -4.793,6.2578 v 31.1565 c 3.945,4.301 8.637,6.324 12.914,6.324 5.094,0 7.535,-3.914 7.535,-9.102 V 79.9805 c 0,-5.2852 -3.324,-6.5508 -4.699,-6.5508 -1.367,0 -3.188,0 -3.188,0 v -2.1172 h 26.774 v 2.2109 c 0,0 -2.055,0 -3.43,0 -1.367,0 -5.379,1.3672 -5.379,8.4141 v 24.3675 c 0,1.621 -0.09,3.093 -0.261,4.437 4.019,4.578 8.863,6.719 13.277,6.719 5.09,0 7.535,-3.914 7.535,-9.102 V 79.9805 c 0,-5.2852 -3.324,-6.5508 -4.699,-6.5508 -1.371,0 -3.192,0 -3.192,0 v -2.1172 h 26.774 v 2.2109 c 0,0 -2.051,0 -3.422,0" /><path
         id="path24"
         style="fill:#000000;fill-opacity:1;fill-rule:nonzero;stroke:none"
         d="m 268.805,90.5703 c -4.231,-7.9922 -10.059,-12.1289 -17.961,-12.1289 -13.207,0 -16.434,13.7774 -16.793,23.7886 h 35.133 c 0,15.235 -10.157,21.813 -19.844,21.813 -8.93,0 -24.258,-6.301 -24.258,-29.1446 0,-10.9101 4.98,-25.2031 22.285,-25.2031 17.305,0 24.258,19.4649 24.258,19.4649 l -2.82,1.4101" /><path
         id="path26"
         style="fill:#000000;fill-opacity:1;fill-rule:nonzero;stroke:none"
         d="m 514.914,90.5703 c -4.234,-7.9922 -10.062,-12.1289 -17.961,-12.1289 -13.207,0 -16.441,13.7774 -16.797,23.7886 h 35.133 c 0,15.235 -10.156,21.813 -19.84,21.813 -8.929,0 -24.261,-6.301 -24.261,-29.1446 0,-10.9101 4.984,-25.2031 22.285,-25.2031 17.304,0 24.261,19.4649 24.261,19.4649 l -2.82,1.4101" /><path
         id="path28"
         style="fill:#000000;fill-opacity:1;fill-rule:nonzero;stroke:none"
         d="m 401.508,70.2031 h -3.047 v 18.6758 h 3.047 c 0,0 1.64,-15.8633 14.062,-15.8633 5.157,0 8.672,3.9102 8.672,7.8125 0,3.9063 -1.406,6.0977 -9.375,10.4727 -7.969,4.375 -16.64,8.9022 -16.64,18.2032 0,9.297 6.484,14.922 16.718,14.922 6.719,0 10.703,-4.223 12.11,-1.098 h 2.5 v -17.5 h -2.735 c 0,0 -1.64,14.375 -11.172,14.375 -4.14,0 -8.75,-1.949 -8.75,-6.48 0,-4.535 2.344,-7.035 10.86,-11.645 8.515,-4.6053 15.625,-7.7303 15.625,-18.0468 0,-10.3085 -11.25,-14.375 -16.406,-14.375 -10.469,0 -13.672,5.0782 -15.469,0.5469" /><path
         id="path30"
         style="fill:#000000;fill-opacity:1;fill-rule:nonzero;stroke:none"
         d="m 467.438,81.1484 c -1.731,-2.7148 -4.571,-5.0625 -7.54,-4.3242 -3.199,0.8047 -4.445,3.336 -4.445,8.3985 v 33.2223 h 11.613 v 4.453 h -11.613 v 12.473 c 0,2.719 -1.641,2.973 -2.84,0.984 -5.312,-8.765 -11.363,-13.828 -13.097,-14.941 -1.727,-1.109 -0.985,-2.969 0.371,-2.969 1.363,0 4.699,0 4.699,0 0,0 0,-18.273 0,-30.9997 0,-12.7187 3.207,-17.9062 11.609,-17.9062 8.399,0 13.828,9.1367 13.828,9.1367 l -2.585,2.4726" /><path
         id="path32"
         style="fill:#000000;fill-opacity:1;fill-rule:nonzero;stroke:none"
         d="m 562.055,82.9648 v 23.8282 c 0,6.844 -2.719,17.633 -17.637,17.633 -14.07,0 -19.227,-7.602 -19.227,-12.571 0,-3.281 1.778,-6.66 5.625,-6.66 4.129,0 6.758,3.282 5.161,8.727 -1.063,3.629 3.003,6 7.878,6 4.879,0 7.508,-3.567 7.508,-8.91 v -6.032 c -2.968,-1.328 -7.414,-3.054 -13.511,-5.6948 -10.411,-4.5 -14.918,-9.6602 -14.918,-17.4493 0,-7.7812 4.976,-12.1015 13.32,-12.1015 6.859,0 12.672,4.707 15.367,7.3164 0.77,-3.9805 3.324,-7.5977 8.367,-7.5977 6.192,0 10.231,6.6602 10.231,6.6602 v 4.2226 c -5.821,-5.0625 -8.164,-3.7539 -8.164,2.6289" /><path
         id="path34"
         style="fill:#000000;fill-opacity:1;fill-rule:nonzero;stroke:none"
         d="m 618.438,82.9648 v 64.5942 c 0,2.519 -2.387,1.859 -2.786,1.722 -7.492,-2.582 -16.047,-5.101 -16.047,-5.101 v -3.121 c 6.165,1.261 7.891,-0.793 7.891,-3.184 v -18.113 c -2.574,2.574 -6.113,4.609 -11.113,4.609 -11.832,0 -24.504,-10.156 -24.504,-30.7499 0,-16.8633 11.926,-24.4102 21.523,-24.4102 6.594,0 11.602,3.7383 14.094,6.0782 v -2.4727 c 0,-3.1836 1.809,-3.207 2.918,-2.7812 6.633,2.5195 15.52,5.3086 15.52,5.3086 v 3.3085 c -6.762,-0.9296 -7.496,1.5899 -7.496,4.3125" /><path
         id="path36"
         style="fill:#808080;fill-opacity:1;fill-rule:nonzero;stroke:none"
         d="M 0,0 H 633.027 V 61.9492 H 0 Z" /><path
         id="path38"
         style="fill:#ffffff;fill-opacity:1;fill-rule:nonzero;stroke:none"
         d="m 29.0977,22.9492 h 0.7265 c 1,-4.3476 4.0156,-6.7969 8.1406,-6.7969 3.8477,0 6.2461,2.2852 6.2461,5.6289 0,3.2852 -2.3984,4.625 -6.414,6.8047 -6.6875,3.5625 -10.3711,6.0196 -10.3711,12.2032 0,6.5234 4.9609,11.3789 13.1015,11.3789 3.4024,0 6.3047,-0.8399 8.9219,-2.6211 -0.7812,-2.2344 -1.3984,-4.293 -1.8437,-6.1328 h -0.6094 c -1.1133,3.3437 -4.0117,5.3515 -7.4688,5.3515 -3.2929,0 -5.4648,-2.0078 -5.4648,-4.9101 0,-3.0664 2.1133,-4.4024 6.0781,-6.4649 3.5664,-1.8398 6.5196,-3.0117 8.1367,-4.6797 2.0118,-2.0664 2.9571,-4.4648 2.9571,-7.5312 0,-7.4688 -5.4102,-12.543 -13.9922,-12.543 -4.2969,0 -7.586,0.7813 -9.9805,2.6211 0.668,2.2852 1.2774,4.8477 1.836,7.6914" /><path
         id="path40"
         style="fill:#ffffff;fill-opacity:1;fill-rule:nonzero;stroke:none"
         d="m 80.4453,32.3711 v 2.7891 c 0,5.9101 -0.0547,11.371 -0.6641,16.2812 3.8946,-0.168 7.6368,-0.2187 11.1993,-0.2187 3.625,0 7.0273,0.0507 10.3125,0.2187 -0.105,-0.7812 -0.219,-1.6172 -0.219,-2.3984 0,-0.7813 0.114,-1.5625 0.219,-2.3438 -5.0157,0.336 -9.1992,0.5625 -12.5391,0.6133 -0.1641,-1.8906 -0.1641,-3.7344 -0.1641,-5.5156 v -6.4688 c 4.4024,0.168 8.6368,0.2774 12.4842,0.4492 -0.113,-0.7265 -0.226,-1.5117 -0.226,-2.3437 0,-0.7813 0.113,-1.5586 0.226,-2.3984 -4.8474,0.2773 -9.031,0.5039 -12.4842,0.5039 v -6.6914 c 0,-3.1211 0,-5.6289 0.2188,-7.4688 3.3437,0.1094 7.5234,0.3906 12.4844,0.8359 -0.105,-0.7265 -0.164,-1.4531 -0.164,-2.1757 0,-0.8946 0.109,-1.7813 0.223,-2.6758 -6.02,0.1679 -10.5356,0.2773 -13.4926,0.2773 -2.7266,0 -5.4024,-0.0547 -8.0782,-0.2773 0.6641,5.5195 0.6641,11.875 0.6641,19.0078" /><path
         id="path42"
         style="fill:#ffffff;fill-opacity:1;fill-rule:nonzero;stroke:none"
         d="m 132.125,32.0391 c 0,7.1367 -0.223,13.6054 -0.664,19.4023 1.055,-0.168 2.059,-0.2187 3.066,-0.2187 1,0 2,0.0507 3.008,0.2187 7.582,-8.4726 15.332,-17.0039 23.246,-25.5937 v 6.582 c 0,1.6719 -0.054,8.0312 -0.219,19.0117 0.782,-0.168 1.559,-0.2187 2.286,-0.2187 0.832,0 1.617,0.0507 2.449,0.2695 -0.449,-3.8984 -0.5,-11.7031 -0.5,-23.3008 v -3.0625 c 0,-4.5195 0.051,-8.3672 0.441,-11.7656 -0.773,0.1679 -1.558,0.2773 -2.39,0.2773 -0.782,0 -1.621,-0.1094 -2.457,-0.2773 -7.801,8.9219 -15.942,17.7851 -24.305,26.7031 V 23.7891 c 0,-0.9453 0.051,-4.4024 0.168,-10.4258 -0.781,0.1679 -1.563,0.2773 -2.344,0.2773 -0.781,0 -1.562,-0.1094 -2.398,-0.2773 0.445,5.7969 0.613,12.0429 0.613,18.6758" /><path
         id="path44"
         style="fill:#ffffff;fill-opacity:1;fill-rule:nonzero;stroke:none"
         d="m 197.797,32.3711 c 0,7.1406 -0.106,13.5508 -0.609,19.0703 1.617,-0.2187 3.234,-0.3398 4.847,-0.3398 1.617,0 3.235,0.1211 4.797,0.3398 -0.504,-5.6328 -0.617,-12.043 -0.617,-19.0703 0,-6.6875 0.058,-12.9844 0.617,-19.0078 -1.617,0.1679 -3.234,0.2773 -4.797,0.2773 -1.613,0 -3.23,-0.1094 -4.847,-0.2773 0.558,6.3555 0.609,12.6523 0.609,19.0078" /><path
         id="path46"
         style="fill:#ffffff;fill-opacity:1;fill-rule:nonzero;stroke:none"
         d="m 237.156,31.8164 c 0,-12.207 7.418,-19.1797 21.074,-19.1797 12.825,0 21.075,7.8086 21.075,19.7344 0,12.5469 -7.301,19.7969 -20.461,19.7969 -13.711,0 -21.688,-7.7539 -21.688,-20.3516" /><path
         id="path48"
         style="fill:#ffffff;fill-opacity:1;fill-rule:nonzero;stroke:none"
         d="m 307.289,13.3633 c 1.621,0.1679 3.184,0.2773 4.688,0.2773 1.562,0 3.066,-0.1094 4.511,-0.2773 -0.273,3.625 -0.441,7.1328 -0.441,10.5898 v 7.5313 c 4.183,-6.2461 7.914,-12.2656 11.203,-18.1211 1.672,0.1679 3.344,0.2773 4.961,0.2773 1.676,0 3.344,-0.1094 4.961,-0.2773 l -12.539,18.7851 c 5.961,1.3985 9.031,4.6875 9.031,9.7539 0,6.5274 -4.461,9.6524 -13.434,9.6524 -5.132,0 -8.418,-0.2813 -9.929,-0.2813 -0.781,0 -1.781,0.0547 -3.012,0.168 0.563,-5.9102 0.727,-12.2656 0.727,-19.0703 0,-6.4102 -0.11,-12.707 -0.727,-19.0078" /><path
         id="path50"
         style="fill:#ffffff;fill-opacity:1;fill-rule:nonzero;stroke:none"
         d="m 432.895,42.5781 c -1.172,3.9024 -4.848,6.2383 -10.2,6.2383 -7.972,0 -12.711,-5.793 -12.711,-16.0508 0,-10.9844 4.68,-16.8359 13.321,-16.8359 3.57,0 7.582,1.3945 10.816,4.125 l 0.668,-0.1719 -1.277,-4.6797 c -3.571,-1.7265 -7.418,-2.5664 -11.653,-2.5664 -13.105,0 -20.683,7.418 -20.683,19.9024 0,11.7656 8.304,19.6836 21.574,19.6836 4.18,0 8.25,-0.9493 12.379,-2.7891 -0.731,-2.2305 -1.172,-4.5156 -1.453,-6.75 l -0.781,-0.1055" /><path
         id="path52"
         style="fill:#ffffff;fill-opacity:1;fill-rule:nonzero;stroke:none"
         d="m 460.547,13.3633 c 0.949,0.1133 1.781,0.1679 2.621,0.1679 0.836,0 1.672,-0.0546 2.398,-0.1679 1.286,3.3984 2.563,7.1328 3.961,11.207 2.172,0.1094 4.344,0.1094 6.524,0.1094 2.172,0 4.344,0 6.515,-0.1094 1.172,-3.5156 2.399,-7.1914 3.684,-11.207 1.617,0.1679 3.18,0.2226 4.797,0.2226 1.613,0 3.23,-0.0547 4.793,-0.2226 -5.742,13.2695 -10.926,26.2031 -15.504,38.8047 -0.609,-0.1133 -1.277,-0.1719 -2,-0.1719 -0.731,0 -1.453,0.0586 -2.234,0.1719 -4.68,-13.1602 -9.813,-26.1524 -15.555,-38.8047" /><path
         id="path54"
         style="fill:#ffffff;fill-opacity:1;fill-rule:nonzero;stroke:none"
         d="m 523.492,13.3633 c 1.613,0.1679 3.172,0.2773 4.68,0.2773 1.558,0 3.066,-0.1094 4.519,-0.2773 -0.285,3.625 -0.449,7.1328 -0.449,10.5898 v 7.5313 c 4.18,-6.2461 7.918,-12.2656 11.203,-18.1211 1.676,0.1679 3.348,0.2773 4.969,0.2773 1.668,0 3.34,-0.1094 4.961,-0.2773 l -12.551,18.7851 c 5.969,1.3985 9.035,4.6875 9.035,9.7539 0,6.5274 -4.461,9.6524 -13.437,9.6524 -5.129,0 -8.418,-0.2813 -9.922,-0.2813 -0.781,0 -1.785,0.0547 -3.008,0.168 0.555,-5.9102 0.723,-12.2656 0.723,-19.0703 0,-6.4102 -0.113,-12.707 -0.723,-19.0078" /><path
         id="path56"
         style="fill:#ffffff;fill-opacity:1;fill-rule:nonzero;stroke:none"
         d="m 581.859,32.3711 v 2.7891 c 0,5.9101 -0.058,11.371 -0.668,16.2812 3.903,-0.168 7.637,-0.2187 11.207,-0.2187 3.622,0 7.02,0.0507 10.313,0.2187 -0.113,-0.7812 -0.227,-1.6172 -0.227,-2.3984 0,-0.7813 0.114,-1.5625 0.227,-2.3438 -5.02,0.336 -9.199,0.5625 -12.543,0.6133 C 590,45.4219 590,43.5781 590,41.7969 v -6.4688 c 4.402,0.168 8.637,0.2774 12.484,0.4492 -0.105,-0.7265 -0.218,-1.5117 -0.218,-2.3437 0,-0.7813 0.113,-1.5586 0.218,-2.3984 -4.847,0.2773 -9.027,0.5039 -12.484,0.5039 v -6.6914 c 0,-3.1211 0,-5.6289 0.219,-7.4688 3.351,0.1094 7.531,0.3906 12.492,0.8359 -0.113,-0.7265 -0.168,-1.4531 -0.168,-2.1757 0,-0.8946 0.109,-1.7813 0.227,-2.6758 -6.028,0.1679 -10.54,0.2773 -13.497,0.2773 -2.73,0 -5.406,-0.0547 -8.082,-0.2773 0.668,5.5195 0.668,11.875 0.668,19.0078" /><path
         id="path58"
         style="fill:#ffffff;fill-opacity:1;fill-rule:nonzero;stroke:none"
         d="m 119.859,73.7227 c -7.246,0 -15.66,7.332 -15.66,28.6643 0,13.605 7.93,17.558 13.11,17.711 6.656,0.195 15.953,-5.086 15.953,-27.1996 0,-16.0468 -9.102,-19.1757 -13.403,-19.1757" /><path
         id="path60"
         style="fill:#ffffff;fill-opacity:1;fill-rule:nonzero;stroke:none"
         d="m 246.992,119.438 c 9.684,0 9.965,-13.071 9.965,-13.071 h -22.82 c 0.683,6.77 4.609,13.071 12.855,13.071" /><path
         id="path62"
         style="fill:#ffffff;fill-opacity:1;fill-rule:nonzero;stroke:none"
         d="m 493.102,119.438 c 9.679,0 9.964,-13.071 9.964,-13.071 h -22.828 c 0.684,6.77 4.614,13.071 12.864,13.071" /><path
         id="path64"
         style="fill:#ffffff;fill-opacity:1;fill-rule:nonzero;stroke:none"
         d="m 535.223,80.8047 c -2.063,5.2539 -0.746,10.7891 4.601,14.3515 3.864,2.5782 8.985,4.5118 11.539,5.3908 V 82.2695 c -6.41,-6.1914 -14.289,-6.1757 -16.14,-1.4648" /><path
         id="path66"
         style="fill:#ffffff;fill-opacity:1;fill-rule:nonzero;stroke:none"
         d="m 597.875,76.8516 c -9.414,0 -14.813,8.664 -14.813,22.2695 0,8.4769 3.071,20.4059 13.696,20.4059 6.304,0 9.32,-5.086 10.738,-9.222 v -28.43 c -2.633,-3.7109 -6.476,-5.0234 -9.621,-5.0234" /><path
         id="path68"
         style="fill:#808080;fill-opacity:1;fill-rule:nonzero;stroke:none"
         d="m 332.309,213.254 c 0,0 7.023,-5.559 7.023,-16.684 0,-11.121 -8.926,-28.679 -23.707,-28.679 -14.781,0 -28.395,19.902 -22.832,39.511 l 11.269,-10.246 9.071,20.782 11.562,-18.442 7.614,13.758" /><path
         id="path70"
         style="fill:#bfbfbf;fill-opacity:1;fill-rule:nonzero;stroke:none"
         d="m 273.586,159.336 c 0,0 12.59,-2.156 20.461,-5.637 7.875,-3.48 13.676,-15.164 4.976,-21.547 -8.703,-6.382 -16.488,0.332 -16.488,0.332 l -8.949,26.852" /><path
         id="path72"
         style="fill:#bfbfbf;fill-opacity:1;fill-rule:nonzero;stroke:none"
         d="m 349.078,147.734 c 0,0 -3.316,-13.343 -6.633,-19.89 -1.371,-2.711 -3.398,-7.375 -9.777,-7.375 -6.383,0 -10.191,4.394 -10.191,9.941 0,5.559 3.894,11.11 10.605,13.098 6.715,1.988 15.996,4.226 15.996,4.226" /><path
         id="path74"
         style="fill:#808080;fill-opacity:1;fill-rule:nonzero;stroke:none"
         d="m 246.137,32.3711 c 0,10.5977 4.679,16.6719 12.093,16.6719 7.309,0 12.043,-5.9688 12.043,-16.6719 0,-10.5899 -4.734,-16.5547 -12.043,-16.5547 -7.468,0 -12.093,6.0195 -12.093,16.5547" /><path
         id="path76"
         style="fill:#808080;fill-opacity:1;fill-rule:nonzero;stroke:none"
         d="m 315.992,33.2148 v 8.3047 c 0,2.1719 0.055,4.4571 0.164,6.7422 0.446,0 0.836,0.0586 1.227,0.0586 5.238,0 7.582,-2.1211 7.582,-6.9141 0,-5.7421 -2.676,-8.1914 -8.75,-8.1914 h -0.223" /><path
         id="path78"
         style="fill:#808080;fill-opacity:1;fill-rule:nonzero;stroke:none"
         d="m 471.086,28.2461 c 1.449,4.293 3.117,8.5898 5.07,12.7695 1.844,-4.1797 3.457,-8.4765 4.856,-12.7695 -1.676,-0.0547 -3.352,-0.1094 -4.961,-0.1094 -1.676,0 -3.293,0.0547 -4.965,0.1094" /><path
         id="path80"
         style="fill:#808080;fill-opacity:1;fill-rule:nonzero;stroke:none"
         d="m 532.188,33.2148 v 8.3047 c 0,2.1719 0.054,4.4571 0.164,6.7422 0.445,0 0.836,0.0586 1.226,0.0586 5.246,0 7.586,-2.1211 7.586,-6.9141 0,-5.7421 -2.68,-8.1914 -8.758,-8.1914 h -0.218" /><path
         id="path82"
         style="fill:#808080;fill-opacity:1;fill-rule:nonzero;stroke:none"
         d="m 640.531,55.3203 c 0,-5.8437 4.758,-10.6015 10.606,-10.6015 5.851,0 10.605,4.7578 10.605,10.6015 0,5.8516 -4.754,10.6094 -10.605,10.6094 -5.848,0 -10.606,-4.7578 -10.606,-10.6094" /><path
         id="path84"
         style="fill:#ffffff;fill-opacity:1;fill-rule:nonzero;stroke:none"
         d="m 642.406,55.3203 c 0,4.8164 3.918,8.7344 8.731,8.7344 4.816,0 8.73,-3.918 8.73,-8.7344 0,-4.8125 -3.914,-8.7265 -8.73,-8.7265 -4.813,0 -8.731,3.914 -8.731,8.7265" /><path
         id="path86"
         style="fill:#808080;fill-opacity:1;fill-rule:nonzero;stroke:none"
         d="m 656.734,50.2227 c -0.656,0.0351 -1.043,0.3515 -1.394,0.8242 l -3.293,4.4062 c 0.82,0.1758 2.894,0.5938 2.894,2.9297 0,2.6875 -2.636,3.0508 -4.062,3.0508 h -4.41 v -0.332 c 1.121,-0.1211 1.359,-0.2774 1.359,-1.5704 v -7.5429 c 0,-1.3086 -0.066,-1.6758 -1.359,-1.7656 v -0.3321 h 4.426 v 0.3321 c -1.274,0.0703 -1.438,0.4023 -1.438,1.5742 v 3.4336 l 0.895,0.0351 3.808,-5.375 h 2.574 v 0.3321" /><path
         id="path88"
         style="fill:#ffffff;fill-opacity:1;fill-rule:nonzero;stroke:none"
         d="m 649.457,60.1602 c 0,0.5039 0.148,0.6289 0.992,0.6289 0.653,0 2.75,-0.0508 2.75,-2.3711 0,-2.4883 -2.398,-2.5274 -3.742,-2.543 v 4.2852" /></g></g></svg>