<svg xmlns="http://www.w3.org/2000/svg" width="995.4" height="376.2" viewBox="0 0 165.9 62.7"><g fill="#0081C3"><path d="M72.4 44.6h1.3l7 11.2V44.6h1.1v12.7h-1.4l-6.9-11v11h-1.1V44.6zM85.3 53.2c0 1.9.9 3.5 3.1 3.5 1.3 0 2.3-.9 2.6-2.1h1.1c-.5 2.1-1.9 3.1-4 3.1-2.7 0-3.9-2.3-3.9-4.7 0-2.4 1.3-4.7 4-4.7 3 0 4.1 2.2 4.1 4.9h-7zm5.7-1c-.1-1.7-1-3-2.9-3-1.7 0-2.7 1.4-2.8 3H91zM95.4 57.3h-1.1c0-.6.1-1.3.1-2V44.6h1.1v5.2c.6-1 1.9-1.6 3-1.6 2.6 0 3.6 2.4 3.6 4.6 0 2.2-1 4.7-3.6 4.7-1.3 0-2.4-.6-3.1-1.6V57.3zm0-4.6c0 2 .7 3.9 3 3.9 2 0 2.5-2.2 2.5-3.8 0-1.7-.7-3.6-2.7-3.6s-2.8 1.8-2.8 3.5zM105.4 57.3h-1.1v-6.8c0-.7-.1-1.4-.1-2h1.1l.1 1.3c.3-.9 1.1-1.5 2-1.6h1.1v1c-.2 0-.4-.1-.7-.1-1.6 0-2.4 1.1-2.4 2.8v5.4zM115.5 51.1c-.1-1.4-.8-1.9-2.1-1.9-1.1 0-2 .3-2.2 1.5H110c.3-1.8 1.6-2.5 3.3-2.5 2 0 3.2.9 3.1 2.9v4.2c0 .7.1 1.4.1 2h-1.1V56l-.1.1c-.4.7-1.6 1.4-2.8 1.4-1.6 0-3-1-3-2.7 0-1.2.7-2.1 1.8-2.6 1.2-.5 2.7-.3 4-.4v-.7zm-2.7 5.5c2.3 0 2.8-1.9 2.7-3.7-1.5.1-4.7-.2-4.7 2 0 1.2.9 1.7 2 1.7zM122 48.2c1.7 0 3.1.6 3.2 2.4h-1.1c-.1-1.1-1.1-1.5-2.2-1.5-1 0-2 .4-2 1.4 0 1.3 1.7 1.2 4.1 2 .9.3 1.5 1.1 1.5 2.1 0 2-1.9 2.9-3.7 2.9-1.5 0-3.3-.7-3.3-2.7h1.1c.1 1.3 1.3 1.7 2.5 1.7 1.1 0 2.3-.5 2.3-1.8s-1.4-1.5-2.8-1.8c-1.4-.3-2.8-.7-2.8-2.4-.1-1.6 1.6-2.3 3.2-2.3zM128.6 52.1l4.3-3.6h1.4l-4.5 3.8 4.8 5h-1.3l-4.7-4.8v4.8h-1.1V44.6h1.1v7.5zM140.9 51.1c-.1-1.4-.8-1.9-2.1-1.9-1.1 0-2 .3-2.2 1.5h-1.1c.3-1.8 1.6-2.5 3.3-2.5 2 0 3.2.9 3.1 2.9v4.2c0 .7.1 1.4.1 2h-1V56l-.1.1c-.4.7-1.6 1.4-2.8 1.4-1.6 0-3-1-3-2.7 0-1.2.7-2.1 1.8-2.6 1.2-.5 2.7-.3 4-.4v-.7zm-2.6 5.5c2.3 0 2.8-1.9 2.7-3.7-1.5.1-4.7-.2-4.7 2 0 1.2.9 1.7 2 1.7z"/></g><path fill="#0081C3" d="M75 16.9h1.8c1.2 0 2.6 0 2.6-1.7 0-1.8-1.6-1.8-2.9-1.8H75v3.5zm0-5.4h1.9c.8 0 2.2 0 2.2-1.6s-1.3-1.6-2.2-1.6H75v3.2zm-2.6-5.2h4.7c.7 0 2.2 0 3.1.6 1.2.7 1.4 2 1.4 2.7 0 .5-.1 1.3-.7 1.9-.1.1-.7.7-1.4.9 1.9.4 2.7 1.7 2.7 3.1 0 1.5-.9 2.5-1.9 3-1 .5-2.7.5-3.2.5h-4.7V6.3zM84 6.3h2.6v12.6H84z"/><g fill="#0081C3"><path d="M91.4 10.1v5.3c0 .8 0 1.9 1.4 1.9 1.7 0 1.7-1.2 1.7-2.7v-4.5h2.7v5.8c0 1.9.1 2.1.1 2.4 0 .2 0 .4.1.6h-2.5l-.1-1.2c-.3.4-.9 1.4-2.6 1.4-1.2 0-2.2-.5-2.7-1.2-.6-.7-.6-1.9-.6-2.4V10h2.5zM104.9 13.6c0-.4 0-2-1.5-2-1.1 0-1.6.9-1.7 2h3.2zm-3.3 1.6c0 .6 0 2.4 1.8 2.4.6 0 1.3-.2 1.5-1.2h2.4c0 .4-.1 1.2-.8 1.9-.6.7-1.8 1-3.1 1-.8 0-2.2-.1-3.1-1.1-.8-.8-1.1-2-1.1-3.4s.3-3.1 1.8-4.2c.7-.5 1.5-.7 2.5-.7 1.3 0 2.8.5 3.6 2.1.6 1.2.6 2.5.5 3.2h-6zM116.5 10.4c-.1-.4-.2-2.2-2-2.2-2 0-2.8 2.1-2.8 4.7 0 .8 0 4.3 2.6 4.3 1.1 0 2.2-.7 2.3-2.4h2.8c-.1.8-.1 1.9-1.1 3-1.1 1.2-2.5 1.4-3.7 1.4-4.4 0-5.8-3.2-5.8-6.3 0-4 2.2-6.7 5.8-6.7 2.8 0 4.7 1.7 4.7 4.2h-2.8zM120.9 12.3c0-.4-.1-1.7-.1-2.2h2.4l.1 1.7c.3-.8.9-1.8 3-1.7v2.3c-2.6-.2-2.8 1.1-2.8 2.2V19h-2.6v-6.7zM131.9 17.5c1.1 0 1.9-.7 1.9-3 0-1.2-.2-2.8-1.9-2.8-1.9 0-1.9 2.2-1.9 3 0 1.9.7 2.8 1.9 2.8m0-7.6c3.2 0 4.6 2.2 4.6 4.6 0 2.5-1.4 4.7-4.6 4.7-2.5 0-4.5-1.6-4.5-4.7-.1-2 1-4.6 4.5-4.6M140.2 16.4c0 .6.4 1.2 1.5 1.2.9 0 1.4-.5 1.4-1 0-.4-.2-.7-1.2-1l-1.6-.4c-.7-.2-2.2-.6-2.2-2.4 0-1.7 1.6-2.8 3.9-2.8 1.8 0 3.3.8 3.4 2.6H143c-.1-1-.9-1-1.3-1-.7 0-1.2.3-1.2.9 0 .6.4.7 1.2.9l1.6.4c1.6.4 2.4 1.3 2.4 2.5 0 1.5-1.3 3-4.1 3-1.1 0-2.2-.2-3-1.1-.6-.6-.6-1.3-.6-1.7h2.2zM149 16.4c0 .6.4 1.2 1.5 1.2.9 0 1.4-.5 1.4-1 0-.4-.2-.7-1.2-1l-1.6-.4c-.7-.2-2.2-.6-2.2-2.4 0-1.7 1.6-2.8 3.9-2.8 1.8 0 3.3.8 3.4 2.6h-2.4c-.1-1-.9-1-1.3-1-.7 0-1.2.3-1.2.9 0 .6.4.7 1.2.9l1.6.4c1.6.4 2.4 1.3 2.4 2.5 0 1.5-1.3 3-4.1 3-1.1 0-2.2-.2-3-1.1-.6-.6-.6-1.3-.6-1.7h2.2zM75 33.9h1.8c1.2 0 2.6 0 2.6-1.7 0-1.8-1.6-1.8-2.9-1.8H75v3.5zm0-5.4h1.9c.8 0 2.2 0 2.2-1.6s-1.3-1.6-2.2-1.6H75v3.2zm-2.6-5.1h4.7c.7 0 2.1 0 3.1.6 1.2.7 1.4 2 1.4 2.7 0 .5-.1 1.3-.7 1.9-.1.1-.7.7-1.4.9 1.9.3 2.7 1.7 2.7 3.1 0 1.5-.9 2.5-1.8 3-1 .5-2.7.5-3.2.5h-4.7V23.4z"/></g><path fill="#0081C3" d="M84 23.3h2.6v12.6H84z"/><g fill="#0081C3"><path d="M91.3 27.1v5.2c0 .8 0 1.9 1.4 1.9 1.7 0 1.7-1.2 1.7-2.7v-4.4H97v5.8c0 1.9.1 2.1.1 2.4 0 .2 0 .4.1.6h-2.5l-.1-1.2c-.3.4-.9 1.4-2.6 1.4-1.2 0-2.2-.5-2.6-1.2-.6-.7-.6-1.9-.6-2.4V27h2.5zM104.8 30.6c0-.4 0-2-1.5-2-1.1 0-1.6.9-1.7 2h3.2zm-3.3 1.6c0 .6 0 2.4 1.8 2.4.6 0 1.3-.2 1.5-1.2h2.4c0 .4-.1 1.2-.8 1.9-.6.7-1.8 1-3.1 1-.7 0-2.2-.1-3.1-1.1-.8-.8-1.1-2-1.1-3.4s.3-3.1 1.8-4.2c.7-.5 1.5-.7 2.5-.7 1.3 0 2.8.5 3.6 2.1.6 1.2.6 2.5.5 3.2h-6zM111.4 31.9c0 .6 0 2.4 2.3 2.4 1.5 0 2.4-.7 2.4-1.8s-.8-1.3-2.4-1.7c-3-.8-4.6-1.6-4.6-3.8 0-2.1 1.5-3.9 5-3.9 1.3 0 2.9.3 3.8 1.5.7.9.7 1.9.7 2.3H116c0-.4-.2-1.9-2-1.9-1.3 0-2.1.7-2.1 1.7 0 1.2.9 1.4 2.7 1.8 2.2.5 4.3 1.1 4.3 3.6 0 2.3-1.9 4.1-5.4 4.1-4.8 0-4.9-3.1-4.9-4.3h2.8zM120.8 23.4h2.6v5c.3-.4.9-1.3 2.5-1.3 1.3 0 2.1.6 2.6 1.2.3.4.6 1.2.6 2.4V36h-2.6v-5.3c0-.5 0-1.9-1.4-1.9-.7 0-1.7.4-1.7 1.8V36h-2.6V23.4z"/></g><path fill="#0081C3" d="M131.4 27.1h2.6v8.8h-2.6v-8.8zm-.1-3.7h2.8v2.2h-2.8v-2.2zM141.6 30.6c0-.4 0-2-1.5-2-1.1 0-1.6.9-1.7 2h3.2zm-3.3 1.6c0 .6 0 2.4 1.8 2.4.6 0 1.3-.2 1.5-1.2h2.4c0 .4-.1 1.2-.8 1.9-.6.7-1.8 1-3.1 1-.7 0-2.2-.1-3.1-1.1-.8-.8-1.1-2-1.1-3.4s.3-3.1 1.8-4.2c.7-.5 1.5-.7 2.5-.7 1.3 0 2.8.5 3.6 2.1.6 1.2.6 2.5.5 3.2h-6zM145.9 23.3h2.6v12.6h-2.6zM154.6 34.4c.8 0 1.4-.5 1.6-1 .4-.7.4-1.6.4-2.1 0-1.7-.8-2.7-1.9-2.7-1.7 0-1.9 2.1-1.9 3 .1 1.5.5 2.8 1.8 2.8m2-11h2.6v11.2c0 .5 0 1.1.1 1.4h-2.6l-.1-1.3c-.2.3-.3.6-.9 1-.6.4-1.3.5-1.7.5-2.4 0-3.7-1.6-3.7-4.4 0-2.9 1.6-4.7 3.9-4.7 1.6 0 2.2.9 2.5 1.2v-4.9z"/><g fill="#0081C3"><path d="M61.9 32.8c-.9 0-1.6.7-1.6 1.6 0 .9.7 1.6 1.6 1.6.9 0 1.6-.7 1.6-1.6.1-.9-.7-1.6-1.6-1.6m0 2.9c-.8 0-1.4-.6-1.4-1.4 0-.8.6-1.3 1.4-1.3.8 0 1.3.6 1.3 1.3.1.9-.5 1.4-1.3 1.4"/><path d="M62.8 33.9c0-.3-.2-.5-.6-.5h-.8v1.8h.2v-.8h.4l.5.8h.3l-.5-.8c.2 0 .5-.1.5-.5m-.9.3h-.3v-.6h.5c.2 0 .4 0 .4.3 0 .4-.3.3-.6.3M61.8 6.3c-3.2 1.6-6.3 2.5-10.1 2.5-3.7 0-6.9-.9-10.1-2.5-2.1 4.1-2.4 10.8-.6 16.3C42.8 28 46.2 32.9 51.7 36c5.6-3.1 8.9-8 10.7-13.3 1.8-5.6 1.5-12.3-.6-16.4"/></g><path fill="#0081C3" d="M51.7 32.4z"/><path fill="#FFF" d="M60.3 22c-1.6 4.6-4 8.6-8.6 11.5-4.6-2.8-7-6.9-8.6-11.5-1.4-4.1-1.7-8.8-.2-12.6 2.3.8 3.6 1 4.9 1.2 1.2.3 2.2.4 3.9.4 1.7 0 2.7-.1 3.9-.3 1.2-.2 2.6-.4 4.9-1.2 1.5 3.7 1.2 8.4-.2 12.5"/><path fill="#0081C3" d="M55.7 11.7c-1.3.2-2.7.3-4 .3-1.3 0-2.6-.1-4-.3-1.3-.2-2.6-.5-4-.9-1 2.7-.8 6.2 0 9.3 1.4 5.8 4.9 10.2 8 12.2 3.1-1.9 6.6-6.4 8-12.2.7-3.1.9-6.5 0-9.3-1.4.5-2.7.8-4 .9"/><path fill="#FFF" d="M55 14.8c-.1.2-.1.2-.3.4-.3.3-.7.6-1.1 1-.3.2-.5.4-.7.7 0 .1-.1.2-.1.2-.7-.1-1.4-.2-1.9-.3v-.6s.7 0 .8-.4c0 0 0-.1-.1-.2s-.3-.1-.3-.2c.5.1 1 .3 1.5.5 0-.1-.1-.3-.1-.3-.1-.1-.2-.1-.3-.2-.3-.1-1.1-.2-1.1-.2h.7c.2 0 .3-.1.4-.1 0-.1 0-.2-.1-.3l-.2-.2c-.1-.1-.2-.3-.3-.4-.2-.2-.7-.4-.7-.4v-.5c.1-.1.3-.1.4-.1.4.2.8.5 1.4.6.1.1.1.1.1.3.1.4-.1.9 0 1.1 0 .1.1.1.2 0 .5-.3.8-.7 1.3-.9 0-.3.7.1.5.5"/><path fill="#FFF" d="M52.9 21.6s.1-1 .1-1.5c.3-.1.3-.4.2-.6-.1-.1-.3-.2-.4-.2-.6-.1-1.1-.2-1.7-.2-.5-.1-.9-.1-1.4-.2-1-.2-1.8-.7-2.2-1.6-.5-1.1-.1-2.5 1-3 .8-.4 1.7-.3 2.5 0 .3.1.4.3.6.6.1.1.2.1.3.3 0 .1 0 .1-.1.1-.2.1-.8.1-1 0h-.9c.3.1.5.3.8.4.2.1.3.1.4.1.1 0 .2.1.2.2s-.2.1-.3.1c-.2.1-.5.1-.8 0-.5-.1-.7-.4-1-.2-.2.1-.2.4-.1.6.1.4.5.6.9.7 1.2.4 2.6.2 3.8.8.5.2 1 .7 1.1 1.3.4 2-2 2.3-2 2.3"/><path fill="#FFF" d="M50.9 19.4s.2 0 .8.1c.5 0 .8.2.8.2l-.1 2.2c-.5-.1-.8-.1-1.3-.2-.1-.8-.3-1.1-.7-1.6-.1-.1 0-.2 0-.2 0-.1.4-.2.4-.2l.1-.3z"/><path fill="#FFF" d="M54.2 24.2c-.1.4-.3.6-.7.9-.4.2-.8.3-.8.3v-1.2s.1 0 .2-.1.1-.1.1-.2-.1-.2-.2-.2c-.1-.1-.3-.1-.4-.1-.6-.1-1.1-.1-1.7-.2-1.1-.2-1.8-.8-1.7-1.8 0-.7.7-.9 1.2-1.1.2.3.3.6.4.8.1.3.1.4.1.4s-.2 0-.2.2.2.2.3.2c.7.1 1.7.2 2.2.4.3.1.7.3.9.6.3.3.4.6.3 1.1"/><path fill="#FFF" d="M51.3 23.7c.5.1.7.1 1.1.1v2l-.5-.2-.5-.2-.1-1.7z"/><path fill="#FFF" d="M53.2 28.4c-.3.2-.6.3-.6.3v-.8s.1-.1.1-.2c0-.2-.6-.6-1-.7-.3-.1-.8-.3-1.1-.4-.7-.3-1-1-.7-1.7.1-.3.4-.4.6-.5l.4-.2.1 1s-.1 0-.1.1c-.1.2.1.3.1.3.5.2 1.2.5 1.7.8.7.4.9.7.9 1.1 0 .5-.2.7-.4.9"/><path fill="#FFF" d="M52.2 30.6c0 .2-.1.3-.4.3-.2 0-.4-.1-.4-.3 0-1.1-.1-3.3-.1-3.3s.3.1.5.2c0 0 .2.1.4.3l.1.1c0 .8-.1 2.3-.1 2.7M51 29.6c0 .3.1.4.1.6-.1.2-.2.2-.3 0-.1-.2-.2-.3-.2-.7-.1-.6.2-.8.4-1 .1-.1.3-.2.3-.2v.9c-.1.1-.3.2-.3.4"/><path fill="#0081C3" d="M50.2 14.3c.2.1.1.3.3.3.1 0 .2-.1.3-.2h.2c-.2-.3-.7-.3-1.1-.3.1.3.2.2.3.2M33.8 32.7c-.9 0-1.7.7-1.7 1.6 0 .9.7 1.7 1.7 1.7.9 0 1.6-.7 1.6-1.7.1-.9-.6-1.6-1.6-1.6m0 3c-.8 0-1.4-.6-1.4-1.4 0-.8.6-1.4 1.4-1.4.8 0 1.4.6 1.4 1.4 0 .8-.6 1.4-1.4 1.4"/><path fill="#0081C3" d="M34.7 33.9c0-.3-.2-.5-.7-.5h-.8v1.9h.2v-.8h.4l.5.8h.3l-.6-.8c.4-.1.7-.2.7-.6m-.9.3h-.3v-.6h.5c.2 0 .4 0 .4.3 0 .4-.3.3-.6.3M14.1 6.3v8.2H5.9v13.2h8.2V36h13.1v-8.3h8.3V14.5h-8.3V6.3z"/><g><path fill="#FFF" d="M25.7 27.5l-3.7-7c-.3-.6-.2-1.6.9-1.7l5.4-.5c.3.9.5 1.9.5 2.9 0 2.5-1.2 4.8-3.1 6.3M25.1 27.9c-1.3.8-2.8 1.3-4.5 1.3-1.6 0-3.2-.5-4.5-1.3l4-5.9c.3-.4.7-.4 1 0l4 5.9zM12.5 21.1c0-1 .2-2 .5-2.9l5.4.5c1 .1 1.1 1.1.9 1.7l-3.7 7c-1.8-1.4-3.1-3.7-3.1-6.3"/><path fill="#0081C3" d="M20.7 23.2l-.1.1-2.7 4.2c.9.4 1.8.6 2.8.6s2-.2 2.8-.6l-2.7-4.2-.1-.1zM18 19.8l-4.1-.4c-.1.5-.2 1.1-.2 1.7 0 1.7.6 3.3 1.7 4.6l2.9-5.5c0-.2 0-.4-.3-.4"/><path fill="#FFF" d="M20.7 13c3.3 0 6.1 1.9 7.3 4.7h-5.8c-.8 0-1.2-.5-1.2-.9 0-.5.1-.6.4-1.1.4-.6.1-1.6-.8-1.6s-1.2 1.1-.8 1.6c.4.5.5.6.4 1.1 0 .4-.4.9-1.2.9h-5.8c1.4-2.8 4.2-4.7 7.5-4.7"/><path fill="#0081C3" d="M26 16.6c-.9-1-2-1.8-3.4-2.2.4.7.1 1.6-.3 2-.1.1 0 .1 0 .2H26zM23.3 19.8c-.3 0-.3.2-.3.3l2.9 5.5c1.1-1.2 1.7-2.8 1.7-4.6 0-.6-.1-1.1-.2-1.7l-4.1.5zM18.7 14.4c-1.3.4-2.5 1.1-3.4 2.2H19c.1 0 .1-.1 0-.2-.4-.4-.7-1.3-.3-2"/></g></svg>