<svg xmlns="http://www.w3.org/2000/svg" width="521" height="146" viewBox="-11.5 -6.5 521 146"><path opacity=".4" fill="#4DB600" d="M58.09 48.625l-18.4 2.095-21.33 21.177c-3.777 3.751-8.248 2.258-7.743 3.109l20.444-1.771 21.943-21.789a10.656 10.656 0 0 1 5.086-2.821zm2.525-.29"/><path fill="#4DB600" d="M48.629 11.605L3.131 56.777c-4.188 4.158-4.174 10.912.033 15.089 4.205 4.175 11.007 4.188 15.195.03l45.497-45.172c4.189-4.159 4.173-10.911-.032-15.086-4.206-4.177-11.006-4.193-15.195-.033zM53.003 51.446L7.512 96.613c-4.188 4.157-4.172 10.914.034 15.092 4.207 4.176 11.006 4.186 15.194.027l45.492-45.167c4.187-4.158 4.181-10.911-.026-15.088-4.207-4.176-11.015-4.188-15.203-.031z"/><g fill="#333"><path d="M97.853 95.191c4.748 2.63 11.498 4.471 19.139 4.471 16.419 0 25.648-7.889 25.648-19.955 0-10.15-6.061-16.072-17.872-20.442-9.243-3.524-13.351-6.062-13.351-11.701 0-5.075 4.108-9.301 11.737-9.301 6.602 0 11.497 2.393 14.114 4.084l2.893-8.757c-3.582-2.269-9.524-4.006-16.713-4.006-14.923 0-23.739 8.544-23.739 19.529 0 8.177 5.648 14.803 18.164 19.313 9.39 3.384 13.059 6.485 13.059 12.406 0 5.78-4.403 10.15-13.646 10.15-6.419 0-12.756-2.537-16.475-4.793l-2.958 9.002zM167.464 98.504v-67.76h-11.708v67.76h11.708zm-5.787-95.482c-4.445 0-7.408 3.346-7.408 7.36s2.829 7.226 7.139 7.226c4.714 0 7.544-3.211 7.544-7.226-.001-4.148-2.965-7.36-7.275-7.36zM188.013 18.301v12.761h-10.704v8.678h10.704v37.291c0 9.045 1.361 15.023 4.629 18.232 2.859 2.734 7.365 4.398 13.217 4.398 4.853 0 8.706-.713 11.132-1.426l-.571-8.118c-1.855.577-3.854.866-7.279.866-6.994 0-9.42-4.908-9.42-13.569V39.74h17.983v-8.678h-17.983V14.615l-11.708 3.686zM282.236 66.008c.276-1.377.414-3.167.414-5.647 0-12.162-5.648-31.059-28.361-31.059-20.414 0-32.413 15.627-32.413 35.604 0 21.619 12.433 34.756 34.006 34.756 11.148 0 18.777-2.138 23.048-3.898l-2.204-8.496c-4.408 2.082-9.984 3.717-19.107 3.717-12.886 0-23.745-7.284-24.035-24.977h48.652zm-48.506-8.677c1.014-8.314 6.516-19.352 19.546-19.352 14.334 0 17.803 11.855 17.665 19.352H233.73zM294.278 126.568h11.708V89.977h.296c4.285 6.164 12.56 9.686 22.016 9.686 16.845 0 31.214-11.127 31.214-36.189 0-21.03-11.577-33.888-28.997-33.888-11.673 0-20.243 4.215-25.335 11.993h-.27l-.674-10.834h-10.529c.285 6.507.571 13.577.571 22.344v73.479zm11.708-67.117c0-1.555.443-3.394.887-4.949 2.364-10.187 10.787-16.239 19.652-16.239 13.741 0 21.277 11.958 21.277 25.786 0 15.988-7.98 26.936-21.721 26.936-9.309 0-17.141-6.05-19.504-14.836-.443-1.584-.592-3.312-.592-5.185V59.451h.001zM428.526 66.008c.275-1.377.413-3.167.413-5.647 0-12.162-5.647-31.059-28.36-31.059-20.415 0-32.413 15.627-32.413 35.604 0 21.619 12.433 34.756 34.006 34.756 11.148 0 18.778-2.138 23.049-3.898l-2.204-8.496c-4.408 2.082-9.985 3.717-19.107 3.717-12.886 0-23.745-7.284-24.034-24.977h48.65zm-48.506-8.677c1.014-8.314 6.516-19.352 19.546-19.352 14.334 0 17.803 11.855 17.665 19.352H380.02zM437.713 98.504h11.709V56.962c0-2.142.291-4.283.874-5.854 2.331-6.995 8.888-12.845 17.192-12.845 12.092 0 16.315 9.276 16.315 20.412v39.829h11.709V57.39c0-22.984-14.038-27.805-23.8-27.805-11.655 0-19.815 5.424-23.223 11.245h-.266l-.665-10.086h-10.417c.428 5.597.57 11.197.57 18.338v49.422h.002z"/></g></svg>