<?xml version="1.0" encoding="UTF-8" standalone="no"?>
<svg width="81px" height="80px" viewBox="0 0 81 80" version="1.1" xmlns="http://www.w3.org/2000/svg" xmlns:xlink="http://www.w3.org/1999/xlink" xmlns:sketch="http://www.bohemiancoding.com/sketch/ns">
    <!-- Generator: Sketch 3.3.1 (12005) - http://www.bohemiancoding.com/sketch -->
    <title>Bitmap + Oval 5</title>
    <desc>Created with Sketch.</desc>
    <defs>
        <circle id="path-1" cx="40" cy="40" r="40"></circle>
    </defs>
    <g id="Page-1" stroke="none" stroke-width="1" fill="none" fill-rule="evenodd" sketch:type="MSPage">
        <g id="Desktop" sketch:type="MSArtboardGroup" transform="translate(-325.000000, -1571.000000)">
            <g id="Info" sketch:type="MSLayerGroup" transform="translate(30.000000, 784.000000)">
                <g id="Schedule" transform="translate(27.000000, 668.000000)">
                    <g id="Keynote-1" transform="translate(0.000000, 119.000000)">
                        <g id="Bitmap-+-Oval-5-+-Scruff-McGruff-+-KEYNOTE" transform="translate(152.000000, 0.000000)">
                            <g transform="translate(116.500000, 0.000000)" id="Bitmap-+-Oval-5">
                                <g>
                                    <mask id="mask-2" sketch:name="Mask" fill="white">
                                        <use xlink:href="#path-1"></use>
                                    </mask>
                                    <use id="Mask" fill="#F6D236" sketch:type="MSShapeGroup" xlink:href="#path-1"></use>
                                    <path d="M49.3586957,42 L31.0071739,42 C29.995,42 29.173913,42.8282895 29.173913,43.8493421 L29.173913,47.0901316 C27.9732609,47.1361842 25.6078261,47.4453947 23.9493478,48.9690789 C22.5334783,50.2730263 22,52.1256579 22,54.4769737 C22,56.8289474 22.5334783,58.6809211 23.9493478,59.9848684 C25.6104348,61.5125 27.9745652,61.8190789 29.173913,61.8638158 L29.173913,64.3684211 C29.173913,65.8157895 30.3478261,67 31.7826087,67 L49.8908696,67 C51.0113043,67 51.9197826,66.0835526 51.9197826,64.9532895 L51.9197826,57.7894737 L39.7378261,57.7894737 C39.6667391,57.7894737 39.6086957,57.7309211 39.6086957,57.6592105 L39.6086957,55.1578947 L36.3165217,55.1578947 L36.3165217,50.5526316 L44.826087,50.5526316 L44.826087,51.2105263 L47.4347826,51.2105263 L47.4347826,51.8684211 L50.6956522,51.8684211 L50.6956522,53.8421053 L51.3478261,53.8421053 L51.3478261,55.1578947 L52,55.1578947 L52,44.5828947 C52,43.1625 50.7673913,42 49.3586957,42 L49.3586957,42 Z M29.173913,59.2361842 C28.3463043,59.1960526 26.7152174,58.9855263 25.69,58.0355263 C24.8447826,57.2506579 24.6002174,56.0539474 24.6002174,54.4769737 C24.6002174,52.9006579 24.8447826,51.7039474 25.69,50.9190789 C26.7171739,49.9657895 28.348913,49.7532895 29.173913,49.7138158 L29.173913,59.2361842 L29.173913,59.2361842 Z" id="Imported-Layers" fill="#C09801" sketch:type="MSShapeGroup" mask="url(#mask-2)"></path>
                                    <path d="M42.125,9 C41.4018125,9 40.8125,9.4623913 40.8125,10.181087 L40.8125,16.4869565 C40.8125,17.5623913 39.668,18.7826087 38.5858438,18.7826087 L33.35225,18.7826087 C30.8276563,18.7826087 29,20.4573913 29,22.9663043 C29,25.4752174 30.8276563,27.2608696 33.35225,27.2608696 L44.69225,27.2608696 C45.7744062,27.2608696 46.6544375,28.3923913 46.6544375,29.4678261 C46.6544375,30.5432609 45.7744062,31.4178261 44.69225,31.4178261 L43.3836875,31.4178261 C40.8590937,31.4178261 38.84375,33.4597826 38.84375,35.9686957 L38.84375,37.4863043 C38.84375,38.205 39.38975,39 40.1129375,39 C40.836125,39 41.4208438,38.205 41.4208438,37.4863043 L41.4208438,35.9686957 C41.4208438,34.8932609 42.3015313,34.0186957 43.3836875,34.0186957 L44.69225,34.0186957 C47.2168438,34.0186957 49.2715625,31.9767391 49.2715625,29.4678261 C49.2715625,26.958913 47.2168438,24.6521739 44.69225,24.6521739 L33.35225,24.6521739 C32.2700938,24.6521739 31.625,24.0417391 31.625,22.9663043 C31.625,21.8908696 32.2700938,21.3913043 33.35225,21.3913043 L38.5858438,21.3913043 C41.1104375,21.3913043 43.4375,18.9743478 43.4375,16.4654348 L43.4375,10.181087 C43.4375,9.4623913 42.8481875,9 42.125,9" id="Imported-Layers" fill="#FFFFFF" sketch:type="MSShapeGroup" mask="url(#mask-2)"></path>
                                </g>
                            </g>
                        </g>
                    </g>
                </g>
            </g>
        </g>
    </g>
</svg>