<svg id="Layer_1" xmlns="http://www.w3.org/2000/svg" viewBox="0 0 1085 361.6"><style>.durham-st0{fill:none}.durham-st0,.durham-st1{stroke:#c09801;stroke-width:3;stroke-linecap:round;stroke-linejoin:round;stroke-miterlimit:10}.durham-st1{fill:#e3c221}.durham-st2{fill:#c09801}</style><path class="durham-st0" d="M442.2 84.4h41.3M826.6 289.9H388.1V84.4M731.2 84.4h41.3M658.9 84.4h40.7M586.7 84.4H628M514.4 84.4h41.3M826.6 192h150.5v97.8H826.6zM977.1 192h57.9v97.8h-57.9zM977.1 161.5h54.5V192h-54.5z"/><path class="durham-st0" d="M826.6 166h150.5v26H826.6zM281.3 166h106.8v26H281.3zM977.1 136h50.3v25.5h-50.3zM514.4 125.6h41.3v121h-41.3zM586.7 125.6H628v121h-41.3zM658.9 125.6h41.3v121h-41.3zM628 81.1h30.9v165.6H628zM555.7 81.1h30.9v165.6h-30.9zM483.5 190.1v-109h30.9v165.5h-7.8M245.7 289.9V161.5h35.6v128.4h-9zM95.7 289.9V161.5h35.6v128.4h-9zM157.6 289.9V161.5h17.8v128.4h-4.5zM201.6 289.9V161.5h17.8v128.4h-4.5zM708.1 246.6h-7.9V81.1h31v109M772.5 190.1v-109h54.1v165.5h-31M419.1 246.6h-31V81.1h54.1v109M731.2 125.6h41.3v64.5h-41.3z"/><path class="durham-st0" d="M442.2 125.6h41.3v64.5h-41.3zM836 212.7h20.6v33.9H836zM846.3 212.7v33.9M856.6 229.7H836M686.4 125.6v121M672.7 125.6v121M614.2 125.6v121M600.4 125.6v121M700.2 125.6h-41.3M541.9 125.6v121M528.2 125.6v121M469.7 125.6v64.5M455.9 125.6v64.5M555.7 165.9h-41.3M483.5 157.8h-41.3M758.7 125.6v64.5M744.9 125.6v64.5M772.5 157.8h-41.3M758.7 224.5v28.8M744.9 224.5v28.8M772.5 239.8h-41.3M555.7 206.3h-41.3M628 165.9h-41.3M628 206.3h-41.3M699.9 165.9h-41.3M699.9 206.3h-41.3M192.8 212.7v55.4M184.1 212.7v55.4M201.6 231.1h-26.2M201.6 249.6h-26.2M236.9 212.7v55.4M228.2 212.7v55.4M245.7 231.1h-26.3M245.7 249.6h-26.3M148.8 212.7v55.4M140 212.7v55.4M157.5 231.1h-26.2M157.5 249.6h-26.2M700.2 246.6h-41.3M873.3 212.7h20.6v33.9h-20.6zM883.6 212.7v33.9M893.8 229.7h-20.5M910.5 212.7h20.6v33.9h-20.6zM920.8 212.7v33.9M931.1 229.7h-20.6M947.8 212.7h20.6v33.9h-20.6zM958.1 212.7v33.9M968.4 229.7h-20.6M995 212.7h20.6v33.9H995zM1005.3 212.7v33.9M1015.6 229.7H995M388.068 289.9h-106.8v-97.8h106.8zM95.713 289.9h-94.2v-97.8h94.2z"/><path class="durham-st0" d="M378.606 246.62h-20.6v-33.9h20.6zM344.72 246.62h-20.6v-33.9h20.6zM310.735 246.62h-20.6v-33.9h20.6zM201.62 268.044h-26.2v-55.4h26.2zM157.488 268.044h-26.2v-55.4h26.2zM245.753 268.044h-26.2v-55.4h26.2zM368.4 212.7v33.9M358.1 229.7h20.6M81.3 246.62H60.7v-33.9h20.6zM71 212.7v33.9M60.7 229.7h20.6M36.3 246.62H15.7v-33.9h20.6zM36.3 192.008H15.7v-11h20.6zM26 212.7v33.9M15.7 229.7h20.6M334.4 212.7v33.9M324.1 229.7h20.6M300.5 212.7v33.9M290.2 229.7h20.6M772.5 224.5h-41.3M710.7 198.5v-8.4H793v8.4M731.2 259.6v30.3h-23.1v-91.4h23.1v54.8M772.5 253.3v-54.8h23.1v91.4h-23.1v-30.3M731.2 259.6h41.3v30.3h-41.3zM836 259.6h8.1v16.9H836zM848.5 259.6h8.1v16.9h-8.1zM358.1 259.6h8.1v16.9h-8.1zM370.5 259.6h8.1v16.9h-8.1zM324.1 259.6h8.1v16.9h-8.1zM336.6 259.6h8.1v16.9h-8.1zM290.2 259.6h8.1v16.9h-8.1zM302.6 259.6h8.1v16.9h-8.1zM60.7 259.6h8.1v16.9h-8.1zM73.2 259.6h8.1v16.9h-8.1zM15.7 259.6h8.1v16.9h-8.1zM28.2 259.6h8.1v16.9h-8.1zM669.3 259.6h8.1v16.9h-8.1zM681.7 259.6h8.1v16.9h-8.1zM597.7 259.6h8.1v16.9h-8.1zM610.2 259.6h8.1v16.9h-8.1zM524.8 259.6h8.1v16.9h-8.1zM537.2 259.6h8.1v16.9h-8.1zM873.3 259.6h8.1v16.9h-8.1zM885.7 259.6h8.1v16.9h-8.1zM910.5 259.6h8.1v16.9h-8.1zM923 259.6h8.1v16.9H923zM947.8 259.6h8.1v16.9h-8.1zM960.3 259.6h8.1v16.9h-8.1zM1001.3 259.6h8.1v16.9h-8.1z"/><path class="durham-st0" d="M723.5 253.3h56.7v5.9h-56.7zM758.7 259.6v31.1M744.9 259.6v31.1M731.2 266.3h41.3M469.7 224.5v28.8M455.9 224.5v28.8M483.5 239.8h-41.3M483.5 224.5h-41.3M421.7 198.5v-8.4H504v8.4"/><path class="durham-st0" d="M442.2 259.2v30.7h-23.1v-91.4h23.1v54.8M483.5 253.3v-54.8h23.1v91.4h-23.1v-30.3M442.2 259.6h41.3v30.3h-41.3z"/><path class="durham-st0" d="M434.5 253.3h56.7v5.9h-56.7zM469.7 259.6v31.1M455.9 259.6v31.1M442.2 266.3h41.3M245.7 166h-26.3M157.6 166h-26.4M201.7 166h-26.3M245.7 289.9h-26.3M157.6 289.9h-26.4M201.7 289.9h-26.3M95.73 192.008h-20.6v-11h20.6zM92.5 78.1c5.1 0 9.3 4.2 9.3 9.3s-4.2 9.3-9.3 9.3H56c-6.4 0-11.5-5.2-11.5-11.5 0-6.4 5.2-11.5 11.5-11.5 2.3 0 4.4.7 6.1 1.8 2.3-5.9 7.9-10 14.6-10 7.6 0 13.9 5.4 15.3 12.5l.5.1zM958.2 93.7c5.1 0 9.3 4.2 9.3 9.3 0 5.1-4.2 9.3-9.3 9.3h-36.4c-6.4 0-11.5-5.2-11.5-11.5s5.2-11.5 11.5-11.5c2.3 0 4.4.7 6.1 1.8 2.3-5.9 7.9-10 14.6-10 7.6 0 13.9 5.4 15.3 12.5l.4.1zM281.7 18.5c6.9 0 12.6 5.6 12.6 12.6s-5.6 12.6-12.6 12.6h-49.1c-8.6 0-15.5-6.9-15.5-15.5s6.9-15.5 15.5-15.5c3 0 5.9.9 8.3 2.4 3-7.9 10.7-13.5 19.7-13.5 10.2 0 18.7 7.2 20.6 16.8l.5.1zM601.9 13.1c4.6 0 8.3 3.7 8.3 8.3s-3.7 8.3-8.3 8.3h-32.5c-5.7 0-10.3-4.6-10.3-10.3s4.6-10.3 10.3-10.3c2 0 3.9.6 5.5 1.6 2-5.2 7.1-8.9 13-8.9 6.7 0 12.4 4.8 13.7 11.1l.3.2zM1070.3 246.9v66.6M1066.5 246.9v66.6M1082.8 228.9c.4-.9.7-2 .7-3.1 0-2.7-5.1-7.8-5.1-7.8s-5.1 5.1-5.1 7.8c0 1.2.2 2.3.6 3.2"/><path class="durham-st0" d="M1073.5 228.9c0 2.7 4.9 7.8 4.9 7.8s4.9-5.1 4.9-7.8h-9.8zM1062.8 228.9c.4-.9.7-2 .7-3.1 0-2.7-5.1-7.8-5.1-7.8s-5.1 5.1-5.1 7.8c0 1.2.2 2.3.6 3.2"/><path class="durham-st0" d="M1053.4 228.9c0 2.7 4.9 7.8 4.9 7.8s4.9-5.1 4.9-7.8h-9.8z"/><circle class="durham-st0" cx="1068.5" cy="242.7" r="4.4"/><path class="durham-st0" d="M1075.7 324.2h-14.4c0-4 3.2-7.2 7.2-7.2 3.9 0 7.4 3.1 7.2 7.2z"/><path class="durham-st0" d="M1064.2 317.9c0-2.4 1.9-4.3 4.3-4.3s4.4 1.8 4.3 4.3M1078.4 236.3v6.4h-5.5M1058.4 236.5v6.4h5.5"/><g><circle class="durham-st1" cx="927" cy="323" r="3.3"/><path class="durham-st1" d="M932.1 331.4c0 1.7-2.3 1.6-5 1.6s-5 .1-5-1.6c0-2.4 2.3-4.4 5-4.4s5 2 5 4.4z"/></g><path class="durham-st1" d="M874.2 334.8c0-3.3 2.7-6 6-6h94.2c7.2 0 13 5.8 13 13v9.7H874.2"/><path class="durham-st1" d="M960.6 345.3c-1.9 1.5-3.1 3.9-3.1 6.5 0 4.6 3.7 8.4 8.4 8.4s8.4-3.7 8.4-8.4c0-2.5-1.1-4.8-2.9-6.3"/><circle class="durham-st1" cx="888.8" cy="351.8" r="8.4"/><path class="durham-st1" d="M980.3 345h8.2c1.1 0 2 .9 2 2v2.5c0 1.1-.9 2-2 2h-8.2"/><path class="durham-st0" d="M959.1 327.1l-2.9-3.9c-2.8-3.8-7.3-6.1-12.1-6.1h-20.3c-4.5 0-8.9 1.8-12 5.1l-5.4 5.7"/><path class="durham-st1" d="M937.6 317.1v11.7M871.1 345.2h8.2v6.5h-8.2c-1.1 0-2-.9-2-2v-2.5c0-1.1.9-2 2-2z"/><circle class="durham-st1" cx="888.8" cy="351.7" r="2.3"/><circle class="durham-st1" cx="965.9" cy="351.7" r="2.3"/><path class="durham-st2" d="M866.2 343.7c-1.4 0-2.6-1.6-2.6-3.5s1.1-3.5 2.6-3.5 1.4 7 0 7z"/><path class="durham-st1" d="M932.3 351.1c0-8.7-7.1-15.8-15.8-15.8H871c-2.2 0-4 1.8-4 4v2c0 2.2 1.8 4 4 4h20.1c3.5 0 6.3 2.8 6.3 6.3h34.9v-.5z"/><path class="durham-st0" d="M981.2 345h-19.8c-3.6 0-6.5 2.9-6.5 6.5h-4"/><path class="durham-st1" d="M996.7 339.3h10.7M1000.7 344.7h10.7M996.1 350.1h10.7"/><path class="durham-st0" d="M944.4 313.5H924c-5.4 0-10.6 2.2-14.4 6.1l-8.9 9.2h64.1l-5.9-8c-3.4-4.6-8.8-7.3-14.5-7.3z"/></svg>
