<?xml version="1.0" encoding="UTF-8" standalone="no"?>
<!-- Generator: Adobe Illustrator 13.0.0, SVG Export Plug-In . SVG Version: 6.00 Build 14948)  -->
<svg
   xmlns:dc="http://purl.org/dc/elements/1.1/"
   xmlns:cc="http://creativecommons.org/ns#"
   xmlns:rdf="http://www.w3.org/1999/02/22-rdf-syntax-ns#"
   xmlns:svg="http://www.w3.org/2000/svg"
   xmlns="http://www.w3.org/2000/svg"
   xmlns:sodipodi="http://sodipodi.sourceforge.net/DTD/sodipodi-0.dtd"
   xmlns:inkscape="http://www.inkscape.org/namespaces/inkscape"
   version="1.1"
   x="0px"
   y="0px"
   width="45px"
   height="45px"
   viewBox="0 0 128 128"
   enable-background="new 0 0 128 128"
   xml:space="preserve"
   id="svg2"
   sodipodi:version="0.32"
   inkscape:version="0.46"
   sodipodi:docname="F_icon_reversed.svg"
   inkscape:output_extension="org.inkscape.output.svg.inkscape"><metadata
   id="metadata18"><rdf:RDF><cc:Work
       rdf:about=""><dc:format>image/svg+xml</dc:format><dc:type
         rdf:resource="http://purl.org/dc/dcmitype/StillImage" /></cc:Work></rdf:RDF></metadata><defs
   id="defs16"><inkscape:perspective
     sodipodi:type="inkscape:persp3d"
     inkscape:vp_x="0 : 64 : 1"
     inkscape:vp_y="0 : 1000 : 0"
     inkscape:vp_z="128 : 64 : 1"
     inkscape:persp3d-origin="64 : 42.666667 : 1"
     id="perspective20" /></defs><sodipodi:namedview
   inkscape:window-height="669"
   inkscape:window-width="644"
   inkscape:pageshadow="2"
   inkscape:pageopacity="0.0"
   guidetolerance="10.0"
   gridtolerance="10.0"
   objecttolerance="10.0"
   borderopacity="1.0"
   bordercolor="#666666"
   pagecolor="#ffffff"
   id="base"
   showgrid="false"
   inkscape:zoom="3.609375"
   inkscape:cx="64"
   inkscape:cy="64"
   inkscape:window-x="25"
   inkscape:window-y="25"
   inkscape:current-layer="svg2" />
<g
   id="Layer_2">
	<path
   fill="#3B5998"
   d="M126,118c0,4.418-3.582,8-8,8H10c-4.418,0-8-3.582-8-8V10c0-4.418,3.582-8,8-8h108c4.418,0,8,3.582,8,8V118   z"
   id="path5"
   style="fill:#ffffff" />
</g>
<g
   id="Layer_4">
	<g
   id="g8">
		
	</g>
</g>
<g
   id="Layer_3">
	<path
   fill="#FFFFFF"
   d="M93.376,117.012H72.203V65.767H61.625v-17.66h10.578V37.504c0-14.407,5.973-22.974,22.943-22.974h14.128   v17.662h-8.831c-6.606,0-7.043,2.468-7.043,7.074l-0.024,8.839h15.998l-1.872,17.66H93.376V117.012z"
   id="path13"
   style="fill:#3b5998;fill-opacity:1" />
</g>
</svg>