<?xml version="1.0" encoding="UTF-8" standalone="no"?>
<svg width="16px" height="16px" viewBox="0 0 16 16" version="1.1" xmlns="http://www.w3.org/2000/svg" xmlns:xlink="http://www.w3.org/1999/xlink" xmlns:sketch="http://www.bohemiancoding.com/sketch/ns">
    <!-- Generator: Sketch 3.3.1 (12005) - http://www.bohemiancoding.com/sketch -->
    <title>Leaf Icon</title>
    <desc>Created with Sketch.</desc>
    <defs></defs>
    <g id="Page-1" stroke="none" stroke-width="1" fill="none" fill-rule="evenodd" sketch:type="MSPage">
        <g id="Desktop" sketch:type="MSArtboardGroup" transform="translate(-507.000000, -1113.000000)" fill="#E6C32B">
            <g id="Info" sketch:type="MSLayerGroup" transform="translate(30.000000, 784.000000)">
                <g id="Keynotes" transform="translate(60.000000, 329.000000)" sketch:type="MSShapeGroup">
                    <g id="Header" transform="translate(338.000000, 0.000000)">
                        <path d="M82.5,0.2 C81.7,0.2 81.1,0.3 81.1,0.3 L79.5,0.5 L79.3,2.1 C79.3,2.4 78.6,8.8 82.4,12.6 C85.2,15.4 89.3,15.8 91.5,15.8 C92.3,15.8 92.9,15.7 92.9,15.7 L94.5,15.5 L94.7,13.9 C94.7,13.6 95.4,7.2 91.6,3.4 C88.8,0.6 84.7,0.2 82.5,0.2 L82.5,0.2 Z M85.3,9.6 C83.8,8.1 83.4,5.8 83.3,4.1 C84.8,4.2 87.3,4.6 88.8,6.1 C90.3,7.6 90.7,9.9 90.8,11.6 C89.2,11.5 86.7,11.1 85.3,9.6 L85.3,9.6 Z" id="Leaf-Icon"></path>
                    </g>
                </g>
            </g>
        </g>
    </g>
</svg>