<svg xmlns="http://www.w3.org/2000/svg" width="597.3" height="229.1" viewBox="0 0 597.3 229.1"><style>.logo-frame-st0{fill:none;stroke-width:2.3;stroke-linecap:round;stroke-linejoin:round;stroke-miterlimit:10}.logo-frame-st0,.logo-frame-st1{stroke:#c09801}.logo-frame-st1{fill:#f1e184}.logo-frame-st1,.logo-frame-st2{stroke-width:2.3;stroke-linecap:round;stroke-linejoin:round;stroke-miterlimit:10}.logo-frame-st2{fill:none;stroke:#c29909}</style><path class="logo-frame-st0" d="M275.2 219.5v3.5c0 2.8 2.2 5 5 5H316c2.8 0 5-2.2 5-5v-3.5m-.1-209.9V6.2c0-2.8-2.2-5-5-5h-35.7c-2.8 0-5 2.2-5 5v3.5M285.9 192.5H4.2V35.2H286m26 0h280.4v157.3H311.6"/><path class="logo-frame-st0" d="M382.5 26.5H583v175.7H382.5m-162.6-.1H13.6V26.5h206.3"/><path class="logo-frame-st1" d="M589.1 22.1h7v7h-7zM1.1 22.1h7v7h-7zM589.1 198.6h7v7h-7zM379 198.6h7v7h-7zM216.4 198.6h7v7h-7zM379 23h7v7h-7zM216.4 23h7v7h-7zM1.1 198.6h7v7h-7z"/><path class="logo-frame-st0" d="M23.7 106.2V44.5h261.7v-.1L298.9 31l13.4 13.4v.1H574v58.2h18.6m-19.3 18.8v61.7H311.8l-13.5 13.5-13.5-13.5H23.2V125h-19"/><path class="logo-frame-st1" d="M20.2 102.7h7v7h-7zM569.8 118h7v7h-7z"/><path class="logo-frame-st0" d="M462.6 35.2V22.6c0-2.8-2.2-5-5-5H139.9c-2.8 0-5 2.2-5 5v12.5m0 157.4v14c0 2.8 2.2 5 5 5h317.7c2.8 0 5-2.2 5-5v-14m-239 19v3c0 2.8 2.2 5 5 5H368c2.8 0 5-2.2 5-5v-3m0-193.9v-3c0-2.8-2.2-5-5-5H228.6c-2.8 0-5 2.2-5 5v3"/><path class="logo-frame-st2" d="M364.5 182.5v-24.3c0-2.8-2.2-5-5-5H238.1c-2.8 0-5 2.2-5 5v25.3"/><path class="logo-frame-st0" d="M358.1 202.1H238.4M358.1 26.5H238.4"/><path class="logo-frame-st1" d="M19.7 179.5h7v7h-7zM20.2 40.9h7v7h-7zM569.8 179.6h7v7h-7zM569.8 41h7v7h-7z"/></svg>
