<svg id="Layer_1" xmlns="http://www.w3.org/2000/svg" viewBox="0 0 597.3 229.1"><style>.st0{fill:#f1e184;stroke:#c09801;stroke-width:2.3;stroke-linecap:round;stroke-linejoin:round;stroke-miterlimit:10}.st1{fill:#FFF}.st2{stroke:#c09801}.st2,.st3{fill:none;stroke-width:2.3;stroke-linecap:round;stroke-linejoin:round;stroke-miterlimit:10}.st3{stroke:#c29909}</style><path class="st0" d="M275.2 219.5v3.5c0 2.8 2.2 5 5 5H316c2.8 0 5-2.2 5-5v-3.5M320.9 9.6V6.2c0-2.8-2.2-5-5-5h-35.7c-2.8 0-5 2.2-5 5v3.5"/><path class="st1" d="M273.3 173.4c0-.8.2-1.6.5-2.2.4-.7.8-1.3 1.3-1.8s1.1-1 1.7-1.5c.6-.4 1.2-.9 1.7-1.3s1-.8 1.3-1.1c.4-.4.5-.7.5-1.1s-.2-.7-.5-1-.8-.4-1.4-.4c-.3 0-.6.1-.9.2s-.5.3-.7.4c-.2.2-.4.4-.6.5-.2.2-.3.4-.4.5l-3.1-2.1.9-1.2c.4-.4.8-.7 1.3-1s1.1-.5 1.8-.7c.7-.2 1.4-.3 2.2-.3.9 0 1.7.1 2.4.4s1.3.6 1.7 1.1c.5.4.8 1 1.1 1.5.2.6.4 1.1.4 1.7 0 .7-.2 1.4-.5 2s-.7 1.1-1.2 1.6-1 .9-1.5 1.3-1.1.8-1.5 1.1c-.5.3-.9.7-1.2 1-.3.3-.5.6-.5.9h6.4v3.8h-11.4v-2.3h.2zm19.9 2.6c-1 0-2-.2-2.8-.6s-1.5-1-2-1.7-.9-1.6-1.2-2.7-.4-2.2-.4-3.4c0-1.2.1-2.4.4-3.4s.7-1.9 1.2-2.7c.5-.7 1.2-1.3 2-1.7.8-.4 1.7-.6 2.8-.6 1.1 0 2.1.2 2.9.6s1.5 1 2 1.7.9 1.6 1.1 2.7c.2 1 .4 2.2.4 3.4 0 1.2-.1 2.4-.4 3.4s-.6 1.9-1.1 2.7-1.2 1.3-2 1.7-1.8.6-2.9.6zm0-3.9c.4 0 .7-.1 1-.4s.5-.6.6-1c.2-.4.3-.9.3-1.4.1-.5.1-1.1.1-1.8 0-.6 0-1.2-.1-1.8-.1-.5-.2-1-.3-1.4-.2-.4-.4-.7-.6-1-.3-.2-.6-.4-1-.4s-.7.1-1 .4c-.3.2-.5.6-.6 1s-.2.9-.3 1.4c-.1.5-.1 1.1-.1 1.8 0 .6 0 1.2.1 1.8.1.5.2 1 .3 1.4.1.4.3.7.6 1 .3.3.6.4 1 .4zm9.1-.1h2.8v-7.6l-2.2 1.2-1.8-3.2 4.8-2.6h3.4v12.3h2.6v3.6h-9.5l-.1-3.7zm21.5-8.5c-.4-.2-.8-.4-1.3-.5s-.8-.1-1.2-.1c-.3 0-.6.1-.9.2s-.6.3-.9.5-.6.5-.8.9c-.2.4-.4.8-.5 1.4.4-.3.8-.4 1.3-.6.5-.1 1-.2 1.4-.2.8 0 1.6.1 2.2.4s1.2.6 1.6 1.1.8 1 1 1.7c.2.6.3 1.3.3 2 0 .8-.1 1.5-.4 2.3s-.7 1.3-1.2 1.9c-.5.5-1.1 1-1.9 1.3-.7.3-1.6.5-2.5.5s-1.7-.1-2.5-.4-1.4-.8-2-1.4c-.6-.7-1-1.5-1.3-2.5s-.5-2.3-.5-3.7c0-1.2.2-2.3.5-3.3s.8-2 1.5-2.8c.6-.8 1.4-1.4 2.4-1.9.9-.5 2-.7 3.2-.7.9 0 1.6.1 2.3.3.6.2 1.1.4 1.6.7l-1.4 2.9zm-5.7 5.6c0 .6.1 1.2.2 1.6s.3.8.5 1 .4.4.7.5c.3.1.5.2.8.2.6 0 1.1-.2 1.4-.6s.5-.9.5-1.5c0-.7-.2-1.2-.6-1.5s-.9-.5-1.4-.5-.9.1-1.2.2c-.4.1-.7.4-.9.6zM48.6 68.2h15.7l24.9 36.2V68.2h17V133H91.4L65.6 95.8V133h-17V68.2zm68.8 0h46.7V83h-29.5v10h24.2v14h-24.2v11.1h31.5V133h-48.7V68.2zm62.8 46c1.2 1.4 2.7 2.7 4.5 3.8 1.8 1.1 3.8 1.7 6.2 1.7 3 0 5.1-.8 6.3-2.4 1.2-1.6 1.8-3.8 1.8-6.6V68.2h17.2v44.5c0 3.5-.6 6.6-1.8 9.4-1.2 2.8-2.9 5.1-5 7-2.1 1.9-4.7 3.4-7.5 4.3-2.9 1-6 1.5-9.4 1.5-4.3 0-8.4-.8-12.5-2.5-4-1.7-7.4-4.2-10.1-7.5l10.3-10.7zm51.1-1.7c1.8 1.8 4.2 3.5 7.1 5s6.1 2.2 9.6 2.2c.8 0 1.7-.1 2.6-.2.9-.2 1.7-.4 2.4-.8s1.3-.9 1.8-1.6c.5-.6.7-1.5.7-2.5 0-1.7-.9-3.1-2.6-4.2s-4.2-2.2-7.5-3.3l-3.6-1.2c-2-.6-4-1.5-6.1-2.5-2-1-3.9-2.3-5.5-3.7-1.6-1.5-2.9-3.2-3.9-5.2s-1.5-4.3-1.5-7c0-3 .6-5.8 1.7-8.3 1.1-2.6 2.7-4.8 4.8-6.7 2.1-1.9 4.7-3.4 7.8-4.5 3.1-1.1 6.7-1.6 10.8-1.6 3.2 0 6.1.3 8.7.9 2.6.6 4.9 1.3 6.8 2.1 1.9.8 3.6 1.8 5 2.7 1.4 1 2.4 1.8 3.1 2.6l-8.8 11.1c-2.3-1.7-4.6-3.1-7.1-4.1-2.5-1.1-5-1.6-7.6-1.6-.8 0-1.7.1-2.5.3-.8.2-1.6.5-2.3.9-.7.4-1.2.9-1.7 1.5-.4.6-.6 1.4-.6 2.3 0 1 .2 1.8.7 2.5s1.2 1.3 2 1.8 1.9 1 3.1 1.4 2.5.9 3.8 1.3l3.1 1c2.2.7 4.4 1.5 6.7 2.5 2.3.9 4.3 2.2 6.1 3.8 1.8 1.6 3.3 3.6 4.5 5.9 1.2 2.4 1.8 5.3 1.8 8.7 0 3-.7 5.7-2.1 8.3-1.4 2.5-3.3 4.7-5.6 6.5-2.4 1.8-5.2 3.2-8.4 4.2s-6.6 1.5-10.3 1.5c-6.5 0-11.9-.9-16.3-2.6s-8.1-4-11.1-7l10.4-12.4zm128 8.5c-7.3 9.1-17 13.7-28.9 13.7-5 0-9.6-.8-13.7-2.5-4.2-1.7-7.7-4-10.7-7-3-3-5.3-6.5-6.9-10.7-1.7-4.1-2.5-8.7-2.5-13.7 0-4.9.8-9.5 2.4-13.7s3.9-7.8 6.9-10.9 6.6-5.5 10.7-7.2 8.7-2.6 13.7-2.6c5.6 0 10.9.9 15.7 2.8 4.8 1.9 8.9 5.2 12.2 9.8l-11.4 11.5c-1.8-2.5-4-4.4-6.5-5.9s-5.4-2.2-8.7-2.2c-2.7 0-5.2.5-7.3 1.4-2.1.9-3.9 2.2-5.4 3.8-1.5 1.6-2.6 3.5-3.4 5.7s-1.2 4.5-1.2 7.1.4 5 1.2 7.2c.8 2.2 2 4.1 3.5 5.7s3.3 2.9 5.4 3.8 4.5 1.4 7.1 1.4c3.8 0 6.8-.7 9.2-2 2.4-1.3 4.7-3.4 7-6.3l11.6 10.8zm34.6 13.6c-4.9 0-9.4-.9-13.5-2.6s-7.7-4.1-10.7-7.1-5.4-6.6-7.1-10.8c-1.7-4.2-2.5-8.7-2.5-13.7 0-4.9.8-9.5 2.5-13.7s4-7.8 7.1-10.8c3-3 6.6-5.4 10.7-7.1s8.6-2.5 13.5-2.5 9.4.8 13.5 2.5 7.7 4 10.7 7.1c3 3 5.3 6.6 7 10.8 1.7 4.2 2.5 8.7 2.5 13.7 0 4.9-.8 9.5-2.5 13.7s-4 7.8-7 10.8-6.6 5.4-10.7 7.1c-4.1 1.8-8.6 2.6-13.5 2.6zm0-16.1c2.5 0 4.8-.5 6.8-1.4s3.6-2.2 5-3.8c1.4-1.6 2.4-3.5 3.1-5.7s1.1-4.5 1.1-7-.4-4.8-1.1-7-1.8-4.1-3.1-5.7c-1.4-1.6-3-2.9-5-3.8s-4.2-1.4-6.8-1.4c-2.5 0-4.8.5-6.8 1.4s-3.6 2.2-5 3.8c-1.4 1.6-2.4 3.5-3.1 5.7s-1.1 4.5-1.1 7 .4 4.8 1.1 7 1.8 4.1 3.1 5.7c1.4 1.6 3 2.9 5 3.8 2.1.9 4.3 1.4 6.8 1.4zm41.9-50.3h15.7l24.9 36.2V68.2h17V133h-14.7l-25.9-37.3V133h-17V68.2zm68.8 0h45.2v15.1h-28v12.5h21.7V110h-21.7v23.1h-17.2V68.2z"/><path class="st2" d="M285.9 192.5H4.2V35.2h281.7M312 35.2h280.5v157.3H311.6"/><path class="st2" d="M382.5 26.5H583v175.6H382.5M219.9 202.1H13.6V26.5h206.3"/><path class="st0" d="M589.1 22.1h7v7h-7zM1.1 22.1h7v7h-7zM589.1 198.6h7v7h-7zM379 198.6h7v7h-7zM216.4 198.6h7v7h-7zM379 23h7v7h-7zM216.4 23h7v7h-7zM1.1 198.6h7v7h-7z"/><path class="st2" d="M23.7 106.2V44.5h261.7v-.1L298.9 31l13.4 13.4v.1H574v58.2h18.6M573.3 121.5v61.7H311.8l-13.5 13.5-13.5-13.5H23.2V125h-19"/><path class="st0" d="M20.2 102.7h7v7h-7zM569.8 118h7v7h-7z"/><path class="st2" d="M462.6 35.2V22.6c0-2.8-2.2-5-5-5H139.9c-2.8 0-5 2.2-5 5v12.5M134.9 192.5v14c0 2.8 2.2 5 5 5h317.7c2.8 0 5-2.2 5-5v-14M223.6 211.5v3c0 2.8 2.2 5 5 5H368c2.8 0 5-2.2 5-5v-3M373 17.6v-3c0-2.8-2.2-5-5-5H228.6c-2.8 0-5 2.2-5 5v3"/><path class="st3" d="M364.5 182.5v-24.3c0-2.8-2.2-5-5-5H238.1c-2.8 0-5 2.2-5 5v25.3"/><path class="st2" d="M358.1 202.1H238.4M358.1 26.5H238.4"/><path class="st0" d="M19.7 179.5h7v7h-7zM20.2 40.9h7v7h-7zM569.8 179.6h7v7h-7zM569.8 41h7v7h-7z"/></svg>