<?xml version="1.0" encoding="UTF-8" standalone="no"?>
<svg width="48px" height="22px" viewBox="0 0 48 22" version="1.1" xmlns="http://www.w3.org/2000/svg" xmlns:xlink="http://www.w3.org/1999/xlink" xmlns:sketch="http://www.bohemiancoding.com/sketch/ns">
    <!-- Generator: Sketch 3.3.1 (12005) - http://www.bohemiancoding.com/sketch -->
    <title>Imported Layers</title>
    <desc>Created with Sketch.</desc>
    <defs></defs>
    <g id="Page-1" stroke="none" stroke-width="1" fill="none" fill-rule="evenodd" sketch:type="MSPage">
        <g id="Desktop" sketch:type="MSArtboardGroup" transform="translate(-491.000000, -890.000000)" fill="#E6C32B">
            <g id="Info" sketch:type="MSLayerGroup" transform="translate(30.000000, 784.000000)">
                <g id="Date-+-Location" transform="translate(322.500000, 106.000000)" sketch:type="MSShapeGroup">
                    <path d="M186,13.2758621 L185.022796,13.2758621 C184.482988,13.2758621 184.045592,12.8514138 184.045592,12.3275862 L184.045592,10.4310345 C184.045592,9.9072069 183.607804,9.48275862 183.068388,9.48275862 C182.52858,9.48275862 182.091184,9.05831034 182.091184,8.53448276 L182.091184,4.74137931 C182.091184,4.21755172 181.653396,3.79310345 181.113979,3.79310345 L173.296347,3.79310345 C172.756539,3.79310345 172.319142,3.36865517 172.319142,2.84482759 C172.319142,2.321 171.881355,1.89655172 171.341938,1.89655172 L165.478714,1.89655172 C164.938906,1.89655172 164.501509,1.47210345 164.501509,0.948275862 C164.501509,0.424448276 164.063722,0 163.524305,0 L139.977204,0 C139.437397,0 139,0.424448276 139,0.948275862 L139,12.3275862 C139,12.8514138 139.437397,13.2758621 139.977204,13.2758621 L147.88904,13.2758621 C148.428456,13.2758621 148.866244,13.7003103 148.866244,14.2241379 L148.866244,20.6765862 C148.866244,21.4075172 149.476801,22 150.23003,22 L184.826573,22 C185.3484,22 185.777979,21.6024828 185.802605,21.0968621 L186,15.9310345" id="Imported-Layers"></path>
                </g>
            </g>
        </g>
    </g>
</svg>