<?xml version="1.0" encoding="utf-8"?>
<!-- Generator: Adobe Illustrator 19.2.1, SVG Export Plug-In . SVG Version: 6.00 Build 0)  -->
<svg version="1.1" id="Layer_1" xmlns:sketch="http://www.bohemiancoding.com/sketch/ns"
	 xmlns="http://www.w3.org/2000/svg" xmlns:xlink="http://www.w3.org/1999/xlink" x="0px" y="0px" viewBox="0 0 140 140"
	 style="enable-background:new 0 0 140 140;" xml:space="preserve">
<style type="text/css">
	.st0{fill:#F6D236;}
	.st1{fill:none;stroke:#BE982E;stroke-width:2;stroke-linecap:round;stroke-linejoin:round;stroke-miterlimit:10;}
	.st2{fill:#F6D236;stroke:#BE982E;stroke-width:2;stroke-linecap:round;stroke-linejoin:round;stroke-miterlimit:10;}
	.st3{fill:#FFFFFF;stroke:#BE982E;stroke-width:2;stroke-linecap:round;stroke-linejoin:round;stroke-miterlimit:10;}
	.st4{fill:#E3C221;stroke:#BE982E;stroke-width:2;stroke-linecap:round;stroke-linejoin:round;stroke-miterlimit:10;}
</style>
<title>Bitmap + Oval 5</title>
<desc>Created with Sketch.</desc>
<g id="Mask" sketch:type="MSShapeGroup">
	<circle id="path-1_1_" class="st0" cx="70" cy="70" r="70"/>
</g>
<path class="st1" d="M116.8,82.2H12.1v-4.7"/>
<circle class="st2" cx="111.3" cy="83.8" r="3.4"/>
<circle class="st2" cx="101.2" cy="83.8" r="3.4"/>
<circle class="st2" cx="75.4" cy="83.8" r="3.4"/>
<circle class="st2" cx="65.3" cy="83.8" r="3.4"/>
<circle class="st2" cx="38.1" cy="83.8" r="3.4"/>
<circle class="st2" cx="28" cy="83.8" r="3.4"/>
<path class="st1" d="M15.7,52.8h86.7c2,0,3.8,1.3,4.5,3.2l1.3,3.5h5.2c2.4,0,4.5,1.6,5.2,3.9l4.3,14.6H12.1V56.3
	C12.1,54.4,13.7,52.8,15.7,52.8z"/>
<path class="st1" d="M85.5,59.5h19.7l-1-2.2c-0.5-1.1-1.6-1.7-2.8-1.7H85.5V59.5z M111.9,59.4h6.9c0.6,0,1.1,0.5,1.1,1.1v2.3
	c0,0.6-0.5,1.1-1.1,1.1"/>
<path class="st3" d="M118.6,63.4H12.1"/>
<path class="st1" d="M119.9,78c-1.9-5.2-6.8-8.7-12.3-8.7H12.1"/>
<path class="st4" d="M85.5,63.4h7V78h-7V63.4z"/>
<path class="st2" d="M89,63.4V78 M93,83.8h-8.9c-1.3,0-2.4-1.1-2.4-2.4V78h13.7v3.4C95.4,82.7,94.3,83.8,93,83.8z M55.9,83.8H47
	c-1.3,0-2.4-1.1-2.4-2.4V78h13.7v3.4C58.3,82.7,57.2,83.8,55.9,83.8z"/>
<path class="st1" d="M127.9,86.4h-10c0,0-0.1-0.2-0.1-1.7c0-6.3-12-6.7-12-6.7h19.1L127.9,86.4L127.9,86.4z"/>
</svg>
