<?xml version="1.0" encoding="UTF-8" standalone="no"?>
<svg width="140px" height="140px" viewBox="0 0 140 140" version="1.1" xmlns="http://www.w3.org/2000/svg" xmlns:xlink="http://www.w3.org/1999/xlink" xmlns:sketch="http://www.bohemiancoding.com/sketch/ns">
    <!-- Generator: Sketch 3.3.1 (12005) - http://www.bohemiancoding.com/sketch -->
    <title>Bitmap + Oval 5</title>
    <desc>Created with Sketch.</desc>
    <defs>
        <circle id="path-1" cx="70" cy="70" r="70"></circle>
    </defs>
    <g id="Page-1" stroke="none" stroke-width="1" fill="none" fill-rule="evenodd" sketch:type="MSPage">
        <g id="Desktop" sketch:type="MSArtboardGroup" transform="translate(-545.000000, -1223.000000)">
            <g id="Info" sketch:type="MSLayerGroup" transform="translate(30.000000, 784.000000)">
                <g id="Keynotes" transform="translate(60.000000, 329.000000)">
                    <g id="Keynote-2" transform="translate(455.000000, 110.000000)">
                        <g id="Bitmap-+-Oval-5">
                            <mask id="mask-2" sketch:name="Mask" fill="white">
                                <use xlink:href="#path-1"></use>
                            </mask>
                            <use id="Mask" fill="#F6D236" sketch:type="MSShapeGroup" xlink:href="#path-1"></use>
                            <path d="M116.781566,67.2048005 L23.2184343,67.2048005 C21.9121035,67.2048005 20.8497475,66.1424444 20.8497475,64.8361136 C20.8497475,63.5309672 21.9121035,62.4674268 23.2184343,62.4674268 L63.4861111,62.4674268 C70.0165808,62.4674268 75.3295455,57.1544621 75.3295455,50.6239924 L75.3295455,36.4118712 C75.3295455,33.9946263 73.5115783,32.0226944 71.1736843,31.7337146 L71.1736843,27.6903662 L73.3197146,25.5443359 C73.5506616,25.3133889 73.5506616,24.9391364 73.3197146,24.7081894 C73.0887677,24.4760581 72.7133308,24.4760581 72.4823838,24.7081894 L70.5815126,26.6078763 L68.6806414,24.7081894 C68.4496944,24.4760581 68.0742576,24.4760581 67.8433106,24.7081894 C67.6123636,24.9391364 67.6123636,25.3133889 67.8433106,25.5443359 L69.9893409,27.6903662 L69.9893409,31.7360833 C67.6609217,32.0357222 65.854798,34.0029167 65.854798,36.4118712 L65.854798,50.6239924 C65.854798,51.9303232 64.7924419,52.9926793 63.4861111,52.9926793 L23.2184343,52.9926793 C16.6879646,52.9926793 11.375,58.3068283 11.375,64.8361136 C11.375,71.3665833 16.6879646,76.679548 23.2184343,76.679548 L116.781566,76.679548 C118.086712,76.679548 119.150253,77.7430884 119.150253,79.0482348 C119.150253,80.3545657 118.086712,81.4169217 116.781566,81.4169217 L44.5366162,81.4169217 C38.0061465,81.4169217 32.6931818,86.7310707 32.6931818,93.2603561 C32.6931818,99.7908258 38.0061465,105.10379 44.5366162,105.10379 L65.854798,105.10379 C67.1611288,105.10379 68.2234848,106.167331 68.2234848,107.472477 C68.2234848,108.778808 67.1611288,109.841164 65.854798,109.841164 L61.1174242,109.841164 C58.5012096,109.841164 56.3800505,111.962323 56.3800505,114.578538 C56.3800505,117.194753 58.5012096,119.315912 61.1174242,119.315912 L65.854798,119.315912 C72.3852677,119.315912 77.6982323,114.002947 77.6982323,107.472477 C77.6982323,100.943192 72.3852677,95.6290429 65.854798,95.6290429 L44.5366162,95.6290429 C43.2302854,95.6290429 42.1679293,94.5666869 42.1679293,93.2603561 C42.1679293,91.9552096 43.2302854,90.8916692 44.5366162,90.8916692 L116.781566,90.8916692 C123.312035,90.8916692 128.625,85.5787045 128.625,79.0482348 C128.625,72.5189495 123.312035,67.2048005 116.781566,67.2048005 L116.781566,67.2048005 Z M116.781566,88.5229823 L44.5366162,88.5229823 C41.9239545,88.5229823 39.7992424,90.6488788 39.7992424,93.2603561 C39.7992424,95.8730177 41.9239545,97.9977298 44.5366162,97.9977298 L65.854798,97.9977298 C71.0789369,97.9977298 75.3295455,102.248338 75.3295455,107.472477 C75.3295455,112.697801 71.0789369,116.947225 65.854798,116.947225 L61.1174242,116.947225 C59.8110934,116.947225 58.7487374,115.884869 58.7487374,114.578538 C58.7487374,113.273391 59.8110934,112.209851 61.1174242,112.209851 L65.854798,112.209851 C68.4674596,112.209851 70.5921717,110.085139 70.5921717,107.472477 C70.5921717,104.861 68.4674596,102.735104 65.854798,102.735104 L44.5366162,102.735104 C39.3124773,102.735104 35.0618687,98.4856793 35.0618687,93.2603561 C35.0618687,88.0362172 39.3124773,83.7856086 44.5366162,83.7856086 L116.781566,83.7856086 C119.394227,83.7856086 121.518939,81.6608965 121.518939,79.0482348 C121.518939,76.4367576 119.394227,74.3108611 116.781566,74.3108611 L23.2184343,74.3108611 C17.9942955,74.3108611 13.7436869,70.0614369 13.7436869,64.8361136 C13.7436869,59.6119747 17.9942955,55.3613662 23.2184343,55.3613662 L63.4861111,55.3613662 C66.0987727,55.3613662 68.2234848,53.236654 68.2234848,50.6239924 L68.2234848,36.4118712 C68.2234848,35.1067247 69.2858409,34.0431843 70.5921717,34.0431843 C71.8985025,34.0431843 72.9608586,35.1067247 72.9608586,36.4118712 L72.9608586,50.6239924 C72.9608586,55.8493157 68.71025,60.0987399 63.4861111,60.0987399 L23.2184343,60.0987399 C20.6057727,60.0987399 18.4810606,62.2246364 18.4810606,64.8361136 C18.4810606,67.4487753 20.6057727,69.5734874 23.2184343,69.5734874 L116.781566,69.5734874 C122.005705,69.5734874 126.256313,73.824096 126.256313,79.0482348 C126.256313,84.2735581 122.005705,88.5229823 116.781566,88.5229823 L116.781566,88.5229823 Z" id="Imported-Layers" fill="#C09801" sketch:type="MSShapeGroup" mask="url(#mask-2)"></path>
                        </g>
                    </g>
                </g>
            </g>
        </g>
    </g>
</svg>