<svg id="Layer_1" xmlns="http://www.w3.org/2000/svg" viewBox="0 0 862.1 60.5"><style>.streamliner-st0{fill:none;stroke:#be982e;stroke-width:3;stroke-linecap:round;stroke-linejoin:round;stroke-miterlimit:10}.streamliner-st1{fill:#FFF}.streamliner-st1,.streamliner-st2{stroke:#be982e;stroke-width:3;stroke-linecap:round;stroke-linejoin:round;stroke-miterlimit:10}.streamliner-st2{fill:#e3c221}</style><path class="streamliner-st0" d="M842.2 50.6H668v-7.8"/><circle class="streamliner-st1" cx="833" cy="53.3" r="5.7"/><circle class="streamliner-st1" cx="816.2" cy="53.3" r="5.7"/><circle class="streamliner-st1" cx="773.2" cy="53.3" r="5.7"/><circle class="streamliner-st1" cx="756.4" cy="53.3" r="5.7"/><circle class="streamliner-st1" cx="711.2" cy="53.3" r="5.7"/><circle class="streamliner-st1" cx="694.4" cy="53.3" r="5.7"/><path class="streamliner-st0" d="M674 1.7h144.2c3.4 0 6.4 2.1 7.5 5.3l2.1 5.8h8.7c4 0 7.5 2.6 8.6 6.5l7.1 24.3H668v-36c0-3.2 2.7-5.9 6-5.9z"/><path class="streamliner-st0" d="M790.1 12.9h32.8l-1.7-3.7c-.8-1.8-2.6-2.9-4.6-2.9h-26.5v6.6zM834 12.8h11.4c1 0 1.9.8 1.9 1.9v3.8c0 1-.8 1.9-1.9 1.9"/><path class="streamliner-st1" d="M845.2 19.3H668"/><path class="streamliner-st0" d="M847.3 43.6c-3.1-8.7-11.3-14.5-20.5-14.5H668"/><path class="streamliner-st2" d="M790.1 19.3h11.7v24.3h-11.7z"/><path class="streamliner-st1" d="M795.9 19.3v24.3M802.5 53.3h-14.8c-2.2 0-4-1.8-4-4v-5.6h22.8v5.6c0 2.2-1.8 4-4 4zM740.8 53.3H726c-2.2 0-4-1.8-4-4v-5.6h22.8v5.6c0 2.2-1.8 4-4 4z"/><path class="streamliner-st0" d="M860.6 57.6h-16.7s-.2-.4-.2-2.8c0-10.5-20-11.2-20-11.2h31.8l5.1 14zM661.2 43.5H502.5v-36c0-3.3 2.7-6 6-6h146.8c3.3 0 6 2.7 6 6v43H502.5v-7.8"/><path class="streamliner-st1" d="M661.2 28.9H502.5"/><circle class="streamliner-st1" cx="646.2" cy="53.3" r="5.7"/><circle class="streamliner-st1" cx="629.4" cy="53.3" r="5.7"/><circle class="streamliner-st1" cx="533.9" cy="53.3" r="5.7"/><circle class="streamliner-st1" cx="517" cy="53.3" r="5.7"/><path class="streamliner-st1" d="M612 53.3h-14.8c-2.2 0-4-1.8-4-4v-5.6H616v5.6c0 2.2-1.8 4-4 4zM563.5 53.3h-14.8c-2.2 0-4-1.8-4-4v-5.6h22.8v5.6c0 2.2-1.8 4-4 4zM661.2 7.5h6.8M661.2 46.5h6.8"/><path class="streamliner-st0" d="M637.8 11.8h11.4v11.1h-11.4zM620.1 11.8h11.4v11.1h-11.4zM602.4 11.8h11.4v11.1h-11.4zM584.7 11.8h11.4v11.1h-11.4zM566.9 11.8h11.4v11.1h-11.4zM549.2 11.8h11.4v11.1h-11.4zM531.5 11.8h11.4v11.1h-11.4zM513.7 11.8h11.4v11.1h-11.4zM494.3 43.5H335.5v-36c0-3.3 2.7-6 6-6h146.8c3.3 0 6 2.7 6 6v43H335.5v-7.8"/><path class="streamliner-st1" d="M494.3 28.9H335.5"/><circle class="streamliner-st1" cx="479.3" cy="53.3" r="5.7"/><circle class="streamliner-st1" cx="462.4" cy="53.3" r="5.7"/><circle class="streamliner-st1" cx="366.9" cy="53.3" r="5.7"/><circle class="streamliner-st1" cx="350.1" cy="53.3" r="5.7"/><path class="streamliner-st1" d="M445.1 53.3h-14.8c-2.2 0-4-1.8-4-4v-5.6h22.8v5.6c0 2.2-1.8 4-4 4zM396.6 53.3h-14.8c-2.2 0-4-1.8-4-4v-5.6h22.8v5.6c0 2.2-1.8 4-4 4zM494.3 7.5h6.7M494.3 46.5h6.7"/><path class="streamliner-st0" d="M470.9 11.8h11.4v11.1h-11.4zM453.2 11.8h11.4v11.1h-11.4zM435.4 11.8h11.4v11.1h-11.4zM417.7 11.8h11.4v11.1h-11.4zM400 11.8h11.4v11.1H400zM382.2 11.8h11.4v11.1h-11.4zM364.5 11.8h11.4v11.1h-11.4zM346.8 11.8h11.4v11.1h-11.4zM327.3 43.5H168.5v-36c0-3.3 2.7-6 6-6h146.8c3.3 0 6 2.7 6 6v43H168.5v-7.8"/><path class="streamliner-st1" d="M327.3 28.9H168.5"/><circle class="streamliner-st1" cx="312.3" cy="53.3" r="5.7"/><circle class="streamliner-st1" cx="295.4" cy="53.3" r="5.7"/><circle class="streamliner-st1" cx="199.9" cy="53.3" r="5.7"/><circle class="streamliner-st1" cx="183.1" cy="53.3" r="5.7"/><path class="streamliner-st1" d="M278.1 53.3h-14.8c-2.2 0-4-1.8-4-4v-5.6h22.8v5.6c0 2.2-1.8 4-4 4zM229.6 53.3h-14.8c-2.2 0-4-1.8-4-4v-5.6h22.8v5.6c0 2.2-1.8 4-4 4zM327.3 7.5h6.7M327.3 46.5h6.7"/><path class="streamliner-st0" d="M303.9 11.8h11.4v11.1h-11.4zM286.2 11.8h11.4v11.1h-11.4zM268.4 11.8h11.4v11.1h-11.4zM250.7 11.8h11.4v11.1h-11.4zM233 11.8h11.4v11.1H233zM215.2 11.8h11.4v11.1h-11.4zM197.5 11.8h11.4v11.1h-11.4zM179.8 11.8h11.4v11.1h-11.4zM160.3 43.5H1.5v-36c0-3.3 2.7-6 6-6h146.8c3.3 0 6 2.7 6 6v43H1.5v-7.8"/><path class="streamliner-st1" d="M160.3 28.9H1.5"/><circle class="streamliner-st1" cx="145.3" cy="53.3" r="5.7"/><circle class="streamliner-st1" cx="128.4" cy="53.3" r="5.7"/><circle class="streamliner-st1" cx="32.9" cy="53.3" r="5.7"/><circle class="streamliner-st1" cx="16.1" cy="53.3" r="5.7"/><path class="streamliner-st1" d="M111.1 53.3H96.3c-2.2 0-4-1.8-4-4v-5.6h22.8v5.6c0 2.2-1.8 4-4 4zM62.6 53.3H47.8c-2.2 0-4-1.8-4-4v-5.6h22.8v5.6c0 2.2-1.8 4-4 4zM160.3 7.5h6.7M160.3 46.5h6.7"/><path class="streamliner-st0" d="M136.9 11.8h11.4v11.1h-11.4zM119.2 11.8h11.4v11.1h-11.4zM101.4 11.8h11.4v11.1h-11.4zM83.7 11.8h11.4v11.1H83.7zM66 11.8h11.4v11.1H66zM48.2 11.8h11.4v11.1H48.2zM30.5 11.8h11.4v11.1H30.5zM12.8 11.8h11.4v11.1H12.8z"/></svg>
