<?xml version="1.0" encoding="UTF-8" standalone="no"?>
<svg width="32px" height="27px" viewBox="0 0 32 27" version="1.1" xmlns="http://www.w3.org/2000/svg" xmlns:xlink="http://www.w3.org/1999/xlink" xmlns:sketch="http://www.bohemiancoding.com/sketch/ns">
    <!-- Generator: Sketch 3.2.2 (9983) - http://www.bohemiancoding.com/sketch -->
    <title>twitter</title>
    <desc>Created with Sketch.</desc>
    <defs></defs>
    <g id="Page-1" stroke="none" stroke-width="1" fill="none" fill-rule="evenodd" sketch:type="MSPage">
        <g id="Desktop" sketch:type="MSArtboardGroup" transform="translate(-952.000000, -41.000000)" fill="#FFFFFF">
            <path d="M984,44.7407407 C983.111107,46.0740807 982.024698,47.2098719 980.740741,48.1481481 L980.740741,49 C980.740741,50.7530952 980.487657,52.5061641 979.981481,54.2592593 C979.475306,56.0123544 978.697536,57.6975228 977.648148,59.3148148 C976.59876,60.9321069 975.345686,62.3580185 973.888889,63.5925926 C972.432091,64.8271667 970.685195,65.8148111 968.648148,66.5555556 C966.611101,67.2963 964.419765,67.6666667 962.074074,67.6666667 C958.123437,67.6666667 954.765446,66.7777867 952,65 C952.518521,65.0740744 953.037034,65.1111111 953.555556,65.1111111 C956.395076,65.1111111 959.111098,64.0740844 961.703704,62 C960.296289,61.9753085 959.03087,61.5370413 957.907407,60.6851852 C956.783945,59.8333291 956.012348,58.753093 955.592593,57.4444444 C956.012348,57.5185189 956.419751,57.5555556 956.814815,57.5555556 C957.40741,57.5555556 957.987651,57.4814822 958.555556,57.3333333 C957.049375,57.0370356 955.796301,56.2839567 954.796296,55.0740741 C953.796291,53.8641915 953.296296,52.4691437 953.296296,50.8888889 L953.296296,50.8148148 C954.234573,51.3333359 955.222217,51.6049381 956.259259,51.6296296 C954.308632,50.3209811 953.333333,48.5061844 953.333333,46.1851852 C953.333333,45.09876 953.629627,44.0370422 954.222222,43 C955.876551,45.00001 957.870359,46.5864139 960.203704,47.7592593 C962.537049,48.9321046 965.049369,49.5925919 967.740741,49.7407407 C967.641975,49.3209856 967.592593,48.8148178 967.592593,48.2222222 C967.592593,46.4197441 968.228389,44.8765496 969.5,43.5925926 C970.771611,42.3086356 972.320979,41.6666667 974.148148,41.6666667 C976.024701,41.6666667 977.629623,42.3580178 978.962963,43.7407407 C980.41976,43.444443 981.802463,42.9135841 983.111111,42.1481481 C982.617281,43.728403 981.654328,44.9382674 980.222222,45.7777778 C981.481488,45.6296289 982.740734,45.2839533 984,44.7407407 L984,44.7407407 Z" id="twitter" sketch:type="MSShapeGroup"></path>
        </g>
    </g>
</svg>