<?xml version="1.0" encoding="utf-8"?>
<!-- Generator: Adobe Illustrator 19.2.1, SVG Export Plug-In . SVG Version: 6.00 Build 0)  -->
<!DOCTYPE svg PUBLIC "-//W3C//DTD SVG 1.1//EN" "http://www.w3.org/Graphics/SVG/1.1/DTD/svg11.dtd">
<svg version="1.1" id="Layer_1" xmlns="http://www.w3.org/2000/svg" xmlns:xlink="http://www.w3.org/1999/xlink" x="0px" y="0px"
	 viewBox="0 0 598 232" style="enable-background:new 0 0 598 232;" xml:space="preserve">
<style type="text/css">
	.st0{fill:none;stroke:#C09801;stroke-width:2.3;stroke-linecap:round;stroke-linejoin:round;stroke-miterlimit:10;}
	.st1{fill:#F1E184;stroke:#C09801;stroke-width:2.3;stroke-linecap:round;stroke-linejoin:round;stroke-miterlimit:10;}
	.st2{fill:none;stroke:#C29909;stroke-width:2.3;stroke-linecap:round;stroke-linejoin:round;stroke-miterlimit:10;}
</style>
<path class="st0" d="M275.2,221.1v3.5c0,2.8,2.2,5,5,5h35.7c2.8,0,5-2.2,5-5v-3.5 M320.9,11.2V7.7c0-2.8-2.2-5-5-5h-35.7
	c-2.8,0-5,2.2-5,5v3.5"/>
<path class="st0" d="M285.9,194.1H4.1V36.7h281.8 M312,36.7h280.4v157.3H311.6"/>
<path class="st0" d="M382.5,28h200.4v175.7H382.5 M219.9,203.8H13.6V28h206.3"/>
<rect x="589.1" y="23.7" class="st1" width="7" height="7"/>
<rect x="1.1" y="23.7" class="st1" width="7" height="7"/>
<rect x="589.1" y="200.2" class="st1" width="7" height="7"/>
<rect x="379" y="200.2" class="st1" width="7" height="7"/>
<rect x="216.4" y="200.2" class="st1" width="7" height="7"/>
<rect x="379" y="24.5" class="st1" width="7" height="7"/>
<rect x="216.4" y="24.5" class="st1" width="7" height="7"/>
<rect x="1.1" y="200.2" class="st1" width="7" height="7"/>
<path class="st0" d="M23.7,107.7V46h261.7v-0.1l13.4-13.4l13.4,13.4V46h261.7v58.2h18.6 M573.3,123.1v61.7H311.7l-13.5,13.5
	l-13.5-13.5H23.2v-58.2H4.1"/>
<rect x="20.2" y="104.2" class="st1" width="7" height="7"/>
<rect x="569.8" y="119.6" class="st1" width="7" height="7"/>
<path class="st0" d="M462.6,36.7V24.2c0-2.8-2.2-5-5-5H139.9c-2.8,0-5,2.2-5,5v12.5 M134.9,194.1v14c0,2.8,2.2,5,5,5h317.7
	c2.8,0,5-2.2,5-5v-14 M223.5,213.1v3c0,2.8,2.2,5,5,5H368c2.8,0,5-2.2,5-5v-3 M373,19.2v-3c0-2.8-2.2-5-5-5H228.5c-2.8,0-5,2.2-5,5
	v3"/>
<path class="st2" d="M364.5,184.1v-24.3c0-2.8-2.2-5-5-5H238c-2.8,0-5,2.2-5,5v25.3"/>
<path class="st0" d="M358.1,203.8H238.4 M358.1,28H238.4"/>
<rect x="19.7" y="181.1" class="st1" width="7" height="7"/>
<rect x="20.2" y="42.5" class="st1" width="7" height="7"/>
<rect x="569.8" y="181.2" class="st1" width="7" height="7"/>
<rect x="569.8" y="42.5" class="st1" width="7" height="7"/>
</svg>
