<svg xmlns="http://www.w3.org/2000/svg" width="488" height="412"><g opacity=".5" fill="#fff"><path d="M350.6 91c.4 1.1 1.1 2.9 1.1 5.1 0 3.3-1.5 6-1.5 6s-1.5-2.7-1.5-6c0-2.3.7-4.3 1.2-5.3-1.1-.3-2.2-.6-3.3-1-2.1 1.2-3.6 3.5-3.6 6.2 0 4 3.2 7.2 7.2 7.2s7.2-3.2 7.2-7.2c0-1.5-.5-2.9-1.2-4-1.9-.3-3.7-.6-5.6-1z"/><path d="M377.8 88.8c-4 0-7.2 3.2-7.2 7.2s3.2 7.2 7.2 7.2c.7 0 1.3-.1 1.9-.3 1.2-3 2.8-5.8 5.2-8-.6-3.5-3.5-6.1-7.1-6.1zm-.1 13.3s-1.5-2.7-1.5-6l1.5-6s1.5 2.7 1.5 6l-1.5 6z"/><path d="M67.2 167.7c2 0 3.7-1.6 3.7-3.7l-3.7-7.4s-3.7 5.4-3.7 7.4 1.7 3.7 3.7 3.7z"/><path d="M326.7 113.1c2 0 3.7-1.6 3.7-3.7 0-2-3.7-7.4-3.7-7.4s-3.7 5.4-3.7 7.4c0 2.1 1.7 3.7 3.7 3.7z"/><path d="M232.2 16.7c2 0 3.7-1.6 3.7-3.7 0-2-3.7-7.4-3.7-7.4s-3.7 5.4-3.7 7.4c0 2.1 1.6 3.7 3.7 3.7z"/><path d="M187.3 52.6c2 0 3.7-1.6 3.7-3.7 0-2-3.7-7.4-3.7-7.4s-3.7 5.4-3.7 7.4c0 2.1 1.7 3.7 3.7 3.7z"/><path d="M294.5 38.2c2 0 3.7-1.6 3.7-3.7 0-2-3.7-7.4-3.7-7.4s-3.7 5.4-3.7 7.4 1.6 3.7 3.7 3.7z"/><path d="M358.6 301.7c0 2 1.6 3.7 3.7 3.7s3.7-1.6 3.7-3.7c0-2-3.7-7.4-3.7-7.4s-3.7 5.4-3.7 7.4z"/><path d="M304.6 371.2c-.1 2 1.5 3.7 3.5 3.8 2 .1 3.7-1.5 3.8-3.5.1-2-3.3-7.6-3.3-7.6s-3.9 5.3-4 7.3z"/><path d="M397.5 143.5c0 2 1.6 3.7 3.7 3.7 2 0 3.7-1.6 3.7-3.7 0-2-3.7-7.4-3.7-7.4s-3.7 5.3-3.7 7.4z"/><path d="M192.1 408.3c0 2 1.6 3.7 3.7 3.7s3.7-1.6 3.7-3.7c0-2-3.7-7.4-3.7-7.4s-3.7 5.4-3.7 7.4z"/><path d="M139.3 343.1c0 2 1.6 3.7 3.7 3.7 2 0 3.7-1.6 3.7-3.7 0-2-3.7-7.4-3.7-7.4s-3.7 5.3-3.7 7.4z"/><path d="M415.7 263.5s-3.7 5.4-3.7 7.4 1.6 3.7 3.7 3.7c2 0 3.7-1.6 3.7-3.7 0-2-3.7-7.4-3.7-7.4z"/><path d="M107.2 85c2 0 3.7-1.6 3.7-3.7 0-2-3.7-7.4-3.7-7.4s-3.7 5.4-3.7 7.4c.1 2.1 1.7 3.7 3.7 3.7z"/><path d="M67.8 278.9c0 2 1.6 3.7 3.7 3.7 2 0 3.7-1.6 3.7-3.7 0-2-3.7-7.4-3.7-7.4s-3.7 5.4-3.7 7.4z"/><path d="M406.8 73.4c2 0 3.7-1.6 3.7-3.7 0-2-3.7-7.4-3.7-7.4s-3.7 5.4-3.7 7.4 1.7 3.7 3.7 3.7z"/><path d="M395.1 323.5c5.9 5.9 15.1 7.2 20.8 7.3l-28.1-28.1c.1 5.6 1.4 14.9 7.3 20.8z"/><path d="M42.1 251.2l34.3-34.3c-6.6 0-18.3 1.3-25.7 8.6-7.4 7.4-8.5 19.3-8.6 25.7z"/><path d="M159.8 52.6l-25.8 25.9c5.4-.2 13.7-1.4 19-6.8 5.4-5.4 6.6-13.8 6.8-19.1z"/><path d="M411 93.4l-27 26.9c5.5-.2 14.3-1.4 19.9-7 5.7-5.7 6.9-14.5 7.1-19.9z"/><path d="M356.5 59.8c-7.2-7.2-18.7-8.5-25.3-8.6l33.9 33.9c-.1-6.4-1.4-18-8.6-25.3z"/><path d="M303.5 292.3c0 3.7 3.4 6.6 7.2 6.6h17.7c3.7 0 7.1-3 7.1-6.6v-6.3h-32v6.3zm16.4-2.6c1.5 0 2.7 1.2 2.7 2.7 0 1.5-1.2 2.7-2.7 2.7s-2.7-1.2-2.7-2.7c0-1.5 1.2-2.7 2.7-2.7z"/><polygon points="216.9,287 221,287 222.4,278 218.5,278"/><path d="M138.1 262.1c0 6.8 5.5 11.9 12.3 11.9l86.3.2v-15.2h-98.5v3.1z"/><polygon opacity=".5" points="252.6,278.3 252.6,278.4 254.6,278.3"/><path d="M273.6 278h-4l1.6 9c-.1 3.1-2.6 6-5.7 6h-15.7c-.9 1.5-1.9 2.8-3.1 4h18.8c5.4 0 9.7-4.8 9.7-10.2v-.4l-1.6-8.4z"/><rect x="252.6" y="259.1" width="47.3" height="15.2"/><path d="M339.1 274.3h.1c6.8 0 12.3-5.5 12.3-12.3v-3h-12.4v15.3z"/><path d="M182.7 314.3c1.2.9 1.8 2.2 1.8 3.8 0 .6.4 1 1 1s1-.4 1-1c0-1.4-.4-2.7-1.1-3.8h-2.7z"/><path d="M215.2 314.3c1.2.9 1.8 2.2 1.8 3.8 0 .6.4 1 1 1s1-.4 1-1c0-1.4-.4-2.7-1.1-3.8h-2.7z"/><path d="M286 338.2c1.2.9 1.8 2.2 1.8 3.8 0 .6.4 1 1 1s1-.4 1-1c0-1.4-.4-2.7-1.1-3.8h-2.7z"/><path d="M277.7 338.2c1.2.9 1.8 2.2 1.8 3.8 0 .6.4 1 1 1s1-.4 1-1c0-1.4-.4-2.7-1.1-3.8h-2.7z"/><path d="M193.8 294.1c0-1.4-.4-2.7-1.1-3.8h-2.7c1.2.9 1.8 2.2 1.8 3.8 0 .6.4 1 1 1 .5 0 1-.5 1-1z"/><path d="M168.4 290.3c1.2.9 1.8 2.2 1.8 3.8 0 .6.4 1 1 1s1-.4 1-1c0-1.4-.4-2.7-1.1-3.8h-2.7z"/><path d="M211.2 338.2c1.2.9 1.8 2.2 1.8 3.8 0 .6.4 1 1 1s1-.4 1-1c0-1.4-.4-2.7-1.1-3.8h-2.7z"/><path d="M232.5 362.1c1.2.9 1.8 2.2 1.8 3.8 0 .6.4 1 1 1s1-.4 1-1c0-1.4-.4-2.7-1.1-3.8h-2.7z"/><path d="M232.5 386l.4.3c.8 1 1.2 2.3.9 3.7-.1.5.3 1.1.8 1.2h.2c.5 0 .9-.3 1-.8.3-1.6 0-3.1-.7-4.4h-2.6z"/><path d="M313.3 314.3c1.2.9 1.8 2.2 1.8 3.8 0 .6.4 1 1 1s1-.4 1-1c0-1.4-.4-2.7-1.1-3.8h-2.7z"/><path d="M112.4 268h-17.3c-1.6 0-2.6-.9-2.6-2.6s1-2.4 2.6-2.4h8c3.8 0 7.4-3.7 7.4-7.6v-9.6c0-1.1-.9-1.8-2-1.8s-2 .7-2 1.8v9.7c0 1.6-1.7 3.5-3.4 3.5h-8c-3.8 0-6.6 2.6-6.6 6.4s2.8 6.6 6.6 6.6h17.3c1.6 0 3 1.7 3 3.4s-1.3 3-3 3h-2c-3.8 0-6.9 3.1-6.9 7v2.3c0 1.1.8 2.3 1.9 2.3s2-1.2 2-2.3v-2.3c0-1.6 1.3-3 3-3h2c3.8 0 7-3.1 7-7s-3.2-7.4-7-7.4z"/><path d="M124.7 205.1v-7.2c-6.6-.6-12.7-2.6-18.2-5.7 3.7 6.8 10.3 11.7 18.2 12.9z"/><path d="M87.9 172v15.3c2.8-.7 5.3-2.2 7.2-4.3-2.9-3.3-5.4-7-7.2-11z"/></g><g fill="#C09801"><path d="M212.6 63.7c1.1 1.1 2.6 1.4 4.1 1.1v4.2c-1.4.4-2.8 1-3.5 1.7-2.1 2.1-2.4 5.3-.5 7.1 1.1 1.1 2.6 1.4 4.1 1.1v4.2c-1.4.4-2.8 1-3.5 1.7-2.1 2.1-2.4 5.3-.5 7.1 1.1 1.1 2.6 1.4 4.1 1.1v4.2c-1.4.4-2.8 1-3.5 1.7-2.1 2.1-2.4 5.3-.5 7.1 1.1 1.1 2.6 1.4 4.1 1.1v4.2c-1.4.4-2.8 1-3.5 1.7-2.1 2.1-2.4 5.3-.5 7.1s5 1.6 7.1-.5c2.1-2.1 2.8-9.4 2.8-9.4s-2 .2-4.1.6v-4.5c.4-.2.9-.5 1.2-.8 2.1-2.1 2.8-9.4 2.8-9.4s-2 .2-4.1.6v-4.5c.4-.2.9-.5 1.2-.8 2.1-2.1 2.8-9.4 2.8-9.4s-2 .2-4.1.6v-4.5c.4-.2.9-.5 1.2-.8 2.1-2.1 2.8-9.4 2.8-9.4s-2 .2-4.1.6v-4.5c.4-.2.9-.5 1.2-.8 2.1-2.1 2.8-9.4 2.8-9.4s-2 .2-4.1.6v-9.8c0-.6-.3-1-.8-1-.6 0-1 .4-1 1v10.3c-1.4.4-2.8 1-3.5 1.7-2.1 2.1-2.4 5.3-.5 7.1z"/><path d="M183.5 101.6c.8.8 2 1.1 3.1.9v4.6c-1.1.3-2.1.8-2.7 1.3-1.7 1.7-1.9 4.3-.4 5.8.8.8 2 1.1 3.1.9v4.6c-1.1.3-2.1.8-2.7 1.3-1.7 1.7-1.9 4.3-.4 5.8s4.1 1.3 5.8-.4c1.7-1.7 2.3-7.7 2.3-7.7s-1.5.1-3.1.5v-4.9l.8-.6c1.7-1.7 2.3-7.7 2.3-7.7s-1.5.1-3.1.5v-4.9l.8-.6c1.7-1.7 2.3-7.7 2.3-7.7s-1.5.1-3.1.5v-7.5c0-.6-.4-1-1-1s-.9.4-.9 1v8c-1.1.3-2.1.8-2.7 1.3-1.7 1.9-1.9 4.5-.4 6z"/><path d="M332.1 364.4s-.6 5.7 2.5 8.8c3.1 3.1 8.8 2.5 8.8 2.5s.6-5.7-2.5-8.8c-3.1-3.1-8.8-2.5-8.8-2.5z"/><path d="M336.7 29.3c3.1-3.1 2.5-8.8 2.5-8.8s-5.7-.6-8.8 2.5c-3.1 3.1-2.5 8.8-2.5 8.8s5.6.7 8.8-2.5z"/><path d="M111.9 53.4c3.1 3.1 8.8 2.5 8.8 2.5s.6-5.7-2.5-8.8c-3.1-3.1-8.8-2.5-8.8-2.5s-.7 5.7 2.5 8.8z"/><path d="M376.5 165s-.6 5.7 2.5 8.8c3.1 3.1 8.8 2.5 8.8 2.5s.6-5.7-2.5-8.8c-3.1-3.1-8.8-2.5-8.8-2.5z"/><path d="M282.9 11.4s.6-5.7-2.5-8.8c-3.1-3.1-8.8-2.5-8.8-2.5s-.6 5.7 2.5 8.8c3.1 3.1 8.8 2.5 8.8 2.5z"/><path d="M160.2 370.4c-3.1 3.1-2.5 8.8-2.5 8.8s5.7.6 8.8-2.5c3.1-3.1 2.5-8.8 2.5-8.8s-5.6-.6-8.8 2.5z"/><path d="M180.9 10.5s-5.7-.6-8.8 2.5c-3.1 3.1-2.5 8.8-2.5 8.8s5.7.6 8.8-2.5c3.1-3.1 2.5-8.8 2.5-8.8z"/><path d="M53.7 135.7c3.1-3.1 2.5-8.8 2.5-8.8s-5.7-.6-8.8 2.5c-3.1 3.1-2.5 8.8-2.5 8.8s5.7.6 8.8-2.5z"/><polygon points="235.5,184.5 235.5,215.4 242.4,212.4 245.8,220.6 252.7,217.8 249.3,209.6 256.7,206.5"/><path d="M389.4 295.7c-2.2 0-3.7.1-3.7.2l-1.6.2-.2 1.6c-.1.8-1.8 18.5 8.3 28.7 7.4 7.4 18.8 8.5 25 8.5 2.2 0 3.7-.1 3.7-.2l1.6-.2.2-1.6c.1-.8 1.8-18.5-8.3-28.7-7.4-7.4-18.8-8.5-25-8.5zm5.7 27.8c-5.9-5.9-7.1-15.2-7.3-20.8l28.1 28.1c-5.7-.2-14.9-1.4-20.8-7.3zm-4.7-23.8c5.7.1 15.2 1.3 21.2 7.3s7.2 15.6 7.3 21.2l-28.5-28.5z"/><path d="M127.3 82.2l1.6.2c.1 0 1.4.1 3.5.1 5.8 0 16.5-1 23.4-8 9.6-9.6 7.9-26.2 7.8-26.9l-.2-1.6-1.6-.2c-.1 0-1.4-.1-3.5-.1-5.8 0-16.5 1-23.4 8-9.6 9.6-7.9 26.2-7.8 26.9l.2 1.6zm32.5-29.6c-.2 5.2-1.4 13.6-6.8 19s-13.7 6.6-19 6.8l25.8-25.8zm-22 3.8c5.5-5.5 14-6.6 19.4-6.8l-26.2 26.2c.1-5.2 1.3-13.9 6.8-19.4z"/><path d="M82.9 214.8l-.2-1.6-1.6-.2c-.1 0-1.7-.2-4.3-.2-7.1 0-20.4 1.3-28.9 9.8-11.8 11.8-9.7 32.3-9.6 33.2l.2 1.6 1.6.2c.1 0 1.7.2 4.3.2 7.1 0 20.4-1.3 28.9-9.8 11.7-11.8 9.7-32.4 9.6-33.2zm-40.8 36.4c0-6.3 1.2-18.3 8.6-25.7 7.4-7.4 19.1-8.6 25.7-8.6l-34.3 34.3zm28.4-6.1c-7.2 7.2-18.7 8.5-25.3 8.6l33.9-33.9c-.1 6.5-1.4 18.1-8.6 25.3z"/><path d="M108 356.2c-.8 0-1.4.1-1.4.1l-1.6.2-.2 1.6c0 .3-.7 6.7 3.1 10.5 2.8 2.8 6.9 3.2 9.1 3.2.8 0 1.4-.1 1.4-.1l1.6-.2.2-1.6c0-.3.7-6.7-3.1-10.5-2.8-2.8-6.9-3.2-9.1-3.2zm2.8 9.4c-1.5-1.5-1.9-3.8-2-5.5 1.5.1 4 .5 5.5 2s1.9 3.8 2 5.5c-1.6-.1-4.1-.5-5.5-2z"/><path d="M424.7 168.9l1.6.2s.5.1 1.4.1c2.2 0 6.3-.4 9.1-3.2 3.8-3.8 3.1-10.2 3.1-10.5l-.2-1.6-1.6-.2s-.5-.1-1.4-.1c-2.2 0-6.3.4-9.1 3.2-3.8 3.8-3.1 10.2-3.1 10.5l.2 1.6zm5.7-9.2c1.5-1.5 3.9-1.9 5.5-2-.1 1.6-.5 4-2 5.5s-3.9 1.9-5.5 2c.2-1.7.6-4.1 2-5.5z"/><path d="M289.7 393.7l-1.6-.2s-.5-.1-1.4-.1c-2.2 0-6.3.4-9.1 3.2-3.8 3.8-3.1 10.2-3.1 10.5l.2 1.6 1.6.2s.5.1 1.4.1c2.2 0 6.3-.4 9.1-3.2 3.8-3.8 3.1-10.2 3.1-10.5l-.2-1.6zm-5.8 9.2c-1.5 1.5-3.9 1.9-5.5 2 .1-1.6.5-4 2-5.5s3.9-1.9 5.5-2c-.1 1.7-.5 4-2 5.5z"/><path d="M378.2 337.7l-1.6-.2c-.3 0-6.7-.7-10.5 3.1-2.8 2.8-3.2 6.9-3.2 9.1 0 .8.1 1.4.1 1.4l.2 1.6 1.6.2c.3 0 6.7.7 10.5-3.1 2.8-2.8 3.2-6.9 3.2-9.1 0-.8-.1-1.4-.1-1.4l-.2-1.6zm-5.7 9.2c-1.5 1.5-3.8 1.9-5.5 2 .1-1.5.5-4 2-5.5s3.8-1.9 5.5-2c-.2 1.6-.5 4-2 5.5z"/><path d="M295.4 72l1.6.2s.5.1 1.4.1c2.2 0 6.3-.4 9.1-3.2 3.8-3.8 3.1-10.2 3.1-10.5l-.2-1.6-1.6-.2s-.5-.1-1.4-.1c-2.2 0-6.3.4-9.1 3.2-3.8 3.8-3.1 10.2-3.1 10.5l.2 1.6zm5.8-9.2c1.5-1.5 3.9-1.9 5.5-2-.1 1.6-.5 4-2 5.5s-3.9 1.9-5.5 2c.1-1.7.5-4 2-5.5z"/><path d="M90.2 105.2c.8 0 1.4-.1 1.4-.1l1.6-.2.2-1.6c0-.3.7-6.7-3.1-10.5-2.8-2.8-6.9-3.2-9.1-3.2-.8 0-1.4.1-1.4.1l-1.7.3-.1 1.6c0 .3-.7 6.7 3.1 10.5 2.7 2.7 6.8 3.1 9.1 3.1zm-2.8-9.5c1.5 1.5 1.9 3.8 2 5.5-1.5-.1-4-.5-5.5-2s-1.9-3.8-2-5.5c1.5.1 4 .5 5.5 2z"/><path d="M49.5 196.1c.8 0 1.4-.1 1.4-.1l1.6-.2.2-1.6c0-.3.7-6.7-3.1-10.5-2.8-2.8-6.9-3.2-9.1-3.2-.8 0-1.4.1-1.4.1l-1.6.2-.2 1.6c0 .3-.7 6.7 3.1 10.5 2.7 2.7 6.8 3.2 9.1 3.2zm-2.8-9.5c1.5 1.5 1.9 3.8 2 5.5-1.5-.1-4-.5-5.5-2s-1.9-3.8-2-5.5c1.5.1 4 .5 5.5 2z"/><path d="M119.4 295h-28.1c-1.6 0-2.8 1.3-2.8 2.8v4.9c-1.8.1-5.5.5-8 2.9-2.2 2-3 4.8-3 8.4s.8 6.4 3 8.4c2.5 2.3 6.2 2.8 8 2.9v3.8c0 2.2 1.8 4 4 4h27.8c1.7 0 3.1-1.4 3.1-3.1v-11h-18.7c-.1 0-.2-.1-.2-.2v-3.8h-5v-7h13v1h4v1h5v3h1v2h1v-16.1c0-2.1-1.9-3.9-4.1-3.9zm-30.9 26.2c-1.3-.1-3.8-.4-5.3-1.8-1.3-1.2-1.7-3-1.7-5.4s.4-4.2 1.7-5.4c1.6-1.4 4.1-1.8 5.3-1.8v14.4z"/><path d="M485.6 263.4c-48.2 0-93-14.8-130.1-40.1v-32c11.8 7.1 24.8 13.2 38 17.7v24.3l2-.6c3.6-.9 10.5-5 10.5-13.4 0-2.8-.8-5.1-1.9-7 17.1 4.8 35 7.3 53.6 7.3 1.1 0 2-.9 2-2s-.9-2-2-2c-16.1 0-31.7-2-46.7-5.7 1.6-.9 3.1-2.3 4.4-4.3 4.7-7.1 1.2-14.2-1.4-17l-1.7-1.9-13.2 19.9c-15.5-4.9-30.1-11.6-43.7-20v-34.6c0-9-5.2-16-17-16h-39c-1.8-5-4.4-7.6-6.9-11.4 1.5.6 3.1.9 5 .9h.2c8.5-.1 12.4-7 13.3-10.7l.6-1.8h-26.1c-14.9-27.5-23.3-59.4-23.3-92.8 0-1.1-.9-2-2-2s-2 .9-2 2c0 29.3 6.4 57.2 17.8 82.3l-7.1 10.7c-9.5-25.2-14.7-52.5-14.7-81 0-1.1-.9-2-2-2s-2 .9-2 2c0 20.1 2.5 39.6 7.3 58.2l-17.9 17.9 2.2 1.3c.1.1 3.3 1.9 7.5 1.9 3.6 0 6.8-1.4 9.4-4 1.2-1.2 2-2.4 2.6-3.6 1.5 4.5 3 9 4.7 13.4l-4.2 6.3 2.4.8c.2.1 2.1.7 4.8.7h.2c1.6 3.6 3.2 7.4 5 10.9h-63.9v-86.5c1.5-.6 2.9-2.2 3-4.2.1-1.7-1.9-4.5-3-6.2v-9.4c0-.6-.4-1-1-1s-1 .4-1 1v9.3c-1.2 1.6-2.8 4.3-2.9 6-.1 2.3 1 4.3 2.9 4.7v4.8c-1.2-1.1-3.9-1.8-6-2.2v-13.1c0-.6-.4-1-1-1s-1 .4-1 1v12.8c-.8-.1-.9-.2-.9-.2s-.1 3.8.9 6.8v7.4c-.8-.1-.9-.2-.9-.2s-.1 3.8.9 6.8v7.5c-.8-.1-.9-.2-.9-.2s-.1 3.8.9 6.8v7.5c-.8-.1-.9-.2-.9-.2s-.1 3.8.9 6.8v7.5c-.8-.1-.9-.2-.9-.2s.7 7.3 2.8 9.4c1.9 1.9 4.2 2.3 6.1 1.1v17.4h-27v-47c1.2-.5 1.9-1.8 2-3.4.1-1.5-1-4-2-5.3v-8.3c0-.6-.4-1-1-1s-1 .4-1 1v8.2c-1.1 1.2-1.8 3.7-1.9 5.2-.1 1.8.4 3.4 1.9 3.8v4.6c-1-.8-2.4-1.3-4-1.6v-8.8c0-.6-.4-1-1-1s-1 .4-1 1l.2 8.4c-.6-.1-1-.1-1-.1s.3 2.7 1 4.9v7.9c-.6-.1-1-.1-1-.1s.3 2.7 1 4.9v7.9c-.6-.1-1-.1-1-.1s.6 6 2.3 7.7c1.5 1.5 3 1.8 4.5 1v10h-29c-9 0-15.9 7-15.9 16v16h-6v-30c3-.7 5.8-2.6 7.9-4.7 2.1-2.1 3.6-4.3 4.4-7.3h4.8c0-4.7-1.9-9.5-5-12.6-3-3-7.4-5-13.9-5-23.9 0-43.2 20.7-43.2 44.8 0 1-.1 1.9 0 2.9v35.6c5.5 0 10.9-2.3 14.4-5.9.9.8 1.8 1.6 2.7 2.3 3.5 12.2 14.5 21.2 27.9 21.2v-27.1h6v80.1c0 9 7 15.9 15.9 15.9h86.3v4.4c0 2.2-1.8 4.6-4 4.6h-67.8c-11 0-20.4 8.3-20.4 19.3s9.4 19.7 20.4 19.7h157.5c2.2 0 4 2 4 4.2s-1.8 3.8-4 3.8h-121.5c-11 0-20.3 9.1-20.3 20.1s9.3 19.9 20.3 19.9h35.9c2.2 0 4 1.9 4 4.1s-1.8 4-4 4h-8c-4.4 0-7.2 3.6-7.2 8s2.8 8 7.2 8h8c11 0 19.8-8.9 19.8-19.9s-8.8-19.9-19.8-19.9h-35.9c-2.2 0-4-1.8-4-4s1.8-4.1 4-4.1h121.6c11 0 20.1-8.8 20.1-19.8s-9.1-20.2-20.1-20.2h-157.5c-2.2 0-4-1.5-4-3.7s1.8-4.3 4-4.3h67.8c5.5 0 10.4-1.9 14-5.5 1.2-1.2 2.2-2.5 3.1-4 1.8-3 2.6-6.4 2.6-10.2v-4.5h47v14.3c0 5.9 5.2 10.6 11.2 10.6h17.7c5.9 0 10.9-4.8 10.9-10.6l.1-14.3c9 0 16-7 16-15.9v-34c7.5 5 15.9 9.8 24 13.9v25l1.9-.6c3.6-.9 10.5-5 10.5-13.4 0-2.1-.4-3.9-1.1-5.4 29 12.8 61.1 19.9 94.7 19.9 1.1 0 2-.9 2-2 .2-1.2-.6-2.1-1.7-2.1zm-73.1-69.8c1.1 2.3 2.1 6-.5 9.9-1.9 2.9-4.6 4.3-8.1 4.3h-.8l9.4-14.2zm-15 17.1c2.2 1.3 4.5 3.8 4.5 8.5s-2.3 7.2-4.5 8.5v-17zm-141.5-106c-1.9 1.9-4.1 2.8-6.6 2.8-1.1 0-2.1-.2-2.9-.4l12-12c.6 2.5.8 6.3-2.5 9.6zm-127.5 21.3h8c-1.5 4.9-6.2 7.4-8 8v-8zm-40.6 61.3v-15.3c1.9 4 4.3 7.8 7.2 11-1.9 2-4.4 3.5-7.2 4.3zm9.7-7.6c-5.2-6.2-8.7-13.9-9.6-22.4 6.6 1.8 11.4 7.8 11.4 15 0 2.6-.6 5.2-1.8 7.4zm27.1 25.4c-7.8-1.2-14.5-6.1-18.2-12.8 5.4 3.1 11.6 5.1 18.2 5.7v7.1zm0-11.2c-7.7-.7-14.7-3.6-20.6-8.1-.4-1.8-.7-3.7-.7-5.7 0-12.6 9.2-23 21.3-24.9v38.7zm-.2-42.7c-9.6 1.3-17.5 7.3-21.8 15.6-2-6.9-7.7-12.3-14.8-13.7.1-21.1 16-38.1 36.6-40.1v38.2zm10 26.8h-6v-6h6v6zm171.6-61c-1.2 2.2-3.7 4.5-8.4 4.5h-.2c-4.6 0-7.1-2.4-8.4-4.5h17zm-37.4 3.9l9.2-14c1.1 2.3 2 5.9-.5 9.9-3.2 4.9-8.7 4.1-8.7 4.1zm4.8 3.6c2.5-.8 5.1-2.3 7.2-5.5.8-1.2 1.4-2.5 1.7-3.7 3.9 7.1 8.2 14.2 12.9 20.7h-16.5c-1.8-3.7-3.6-7.7-5.3-11.5zm-71-62.9c1.8 1.4 4.3 1.7 6 .6v6.3c-1.2-1.1-3.9-1.8-6-2.2v-4.7zm0 14.1c1.8 1.4 4.3 1.7 6 .6v6.3c-1.2-1.1-3.9-1.8-6-2.2v-4.7zm0 14.2c1.8 1.4 4.3 1.7 6 .6v6.3c-1.2-1.1-3.9-1.8-6-2.2v-4.7zm0 18.8v-4.7c1.8 1.4 4.3 1.7 6 .6v6.3c-1.3-1.1-3.9-1.8-6-2.2zm-27-8.7c1.4 1 2.7 1.2 4 .5v6.1c-1-.8-2.4-1.3-4-1.6v-5zm0 17.7v-5c1.4 1 2.7 1.2 4 .5v6.1c-1.1-.7-2.5-1.2-4-1.6zm-25.1 156.3c-6.8 0-12.3-5.2-12.3-11.9v-3.1h98.5v15h-86.2zm98.2 8.4c0 8.8-7.2 15.6-15.9 15.6h-67.8c-4.4 0-8 3.9-8 8.3s3.6 7.7 8 7.7h157.5c8.8 0 16.1 7.4 16.1 16.2 0 8.8-7.3 15.8-16.1 15.8h-121.6c-4.4 0-8 3.7-8 8.1 0 4.4 3.6 7.9 8 7.9h35.9c8.8 0 15.9 7.3 15.9 16.1s-7.2 15.9-15.9 15.9h-8c-2.2 0-4-1.8-4-4s1.8-4 4-4h8c4.4 0 8-3.5 8-7.9s-3.6-8-8-8h-35.9c-8.8 0-15.9-7.2-15.9-15.9 0-8.8 7.2-16.1 15.9-16.1h121.6c4.4 0 8-3.4 8-7.8s-3.6-8-8-8l-157.5-.3c-8.8 0-15.9-6.9-15.9-15.7 0-8.8 7.2-15.3 15.9-15.3h67.8c4.4 0 7.8-4.2 7.8-8.7v-23.9c0-2.1 2-3.9 4.2-3.9s4 1.8 4 4v23.9zm50.9-8.4h-47v-15h47v15zm36 18.3c0 3.7-3.4 6.7-7.1 6.7h-17.7c-3.7 0-7.2-3-7.2-6.7v-6.3h32v6.3zm0-10.3h-32v-28.7c0-3.8 3.5-7.3 7.2-7.3h17.7c3.7 0 7.1 3.5 7.1 7.3v28.7zm16-19.9c0 6.8-5.3 11.9-12 11.9v-15.1h12v3.2zm0-7h-12.4v-1.8c0-6-4.8-11.3-10.7-11.3h-17.7c-5.9 0-10.7 5.3-10.7 11.3v1.8h-48.1c-1.1-2.4-3.6-4.2-6.4-4.6v-6.8l3.8-3.6c.4-.4.4-1 0-1.4-.4-.4-1-.4-1.4 0l-3.2 3.2-3.2-3.2c-.4-.4-1-.4-1.4 0-.4.4-.4 1 0 1.4l3.6 3.6v6.8c-2.8.4-5.1 2.1-6.2 4.5h-99v-103c0-6.8 5.2-12 12-12h126c10.7 20.7 24.4 39.5 40.5 56.1l-17.2 17.2 2.2 1.3c.1.1 3.3 1.9 7.5 1.9 3.6 0 6.8-1.4 9.4-4 3.4-3.4 4.2-7.2 4-10.6 8.9 8.5 18.5 16.3 28.6 23.4v29.8zm-33-54.9c.7 2.4.9 6.3-2.4 9.6-1.9 1.9-4.1 2.8-6.6 2.8-1.1 0-2.1-.2-2.9-.4l11.9-12zm8.2-1.2h17c-1.3 2.2-3.8 5.3-8.5 5.3s-7.3-3.1-8.5-5.3zm24.8 21.5c-5.4-3.9-10.7-8-15.7-12.3 8-.3 11.9-6.9 12.8-10.5l.6-2.5h-27.5c-16.2-16.3-30-34.7-40.8-55.2h17.3c14.6 19.4 32.7 35.9 53.3 48.9v31.6zm0-36.4c-18.5-12-34.8-26.8-48.2-44.1h36c6.8 0 12.3 5.2 12.3 12v32.1zm32 77.3v-17c2.2 1.3 4.5 3.8 4.5 8.5s-2.3 7.2-4.5 8.5z"/><circle cx="319.9" cy="292.4" r="2.7"/><circle cx="114.5" cy="125.5" r="2.9"/><path d="M377.2 122.4l.2 1.6 1.6.2c.1 0 1.4.1 3.6.1 6 0 17-1.1 24.2-8.2 9.9-9.9 8.2-27.1 8.1-27.8l-.2-1.6-1.6-.2c-.1 0-1.4-.1-3.6-.1-5.1 0-14.9-.2-24.4 8.3l-.2.2c-2.4 2.2-4 5-5.2 8-3.4 8.7-2.6 19.1-2.5 19.5zm33.8-29c-.2 5.4-1.4 14.2-7 19.9-5.6 5.6-14.3 6.9-19.9 7l26.9-26.9zm-22.9 4c5.7-5.7 14.7-6.9 20.2-7l-27.3 27.3c.2-5.4 1.3-14.5 7.1-20.3z"/><path d="M346.5 89.8c1.1.4 2.2.7 3.3 1-.4 1-1.2 3-1.2 5.3 0 3.3 1.5 6 1.5 6s1.5-2.7 1.5-6c0-2.2-.6-4-1.1-5.1 1.9.5 3.8.7 5.5.9 6.3.7 11.1 0 11.1 0l1.6-.2.2-1.6c.1-.9 2.1-21.4-9.6-33.2-8.5-8.5-21.8-9.8-28.9-9.8-2.6 0-4.2.2-4.3.2l-1.6.2-.2 1.6c-.1.9-2.4 21.7 9.6 33.2 3.9 3.7 8.3 6 12.6 7.5zm10-30c7.3 7.3 8.5 18.9 8.6 25.3l-33.9-33.9c6.6 0 18 1.3 25.3 8.6zm6 28.3c-6.6 0-18.3-1.3-25.7-8.6-7.4-7.4-8.6-19.4-8.6-25.7l34.3 34.3z"/><path d="M379.2 96.1c0-3.3-1.5-6-1.5-6s-1.5 2.7-1.5 6 1.5 6 1.5 6 1.5-2.7 1.5-6z"/></g></svg>