<?xml version="1.0" encoding="utf-8"?>
<!-- Generator: Adobe Illustrator 18.1.0, SVG Export Plug-In . SVG Version: 6.00 Build 0)  -->
<!DOCTYPE svg PUBLIC "-//W3C//DTD SVG 1.1//EN" "http://www.w3.org/Graphics/SVG/1.1/DTD/svg11.dtd">
<svg version="1.1" xmlns="http://www.w3.org/2000/svg" xmlns:xlink="http://www.w3.org/1999/xlink" x="0px" y="0px" width="488px"
	 height="412px" viewBox="0 0 488 412" enable-background="new 0 0 488 412" xml:space="preserve">
<g id="White_50_x25__Opacity">
	<g opacity="0.5">
		<path fill="#FFFFFF" d="M350.6,91c0.4,1.1,1.1,2.9,1.1,5.1c0,3.3-1.5,6-1.5,6s-1.5-2.7-1.5-6c0-2.3,0.7-4.3,1.2-5.3
			c-1.1-0.3-2.2-0.6-3.3-1c-2.1,1.2-3.6,3.5-3.6,6.2c0,4,3.2,7.2,7.2,7.2c4,0,7.2-3.2,7.2-7.2c0-1.5-0.5-2.9-1.2-4
			C354.3,91.7,352.5,91.4,350.6,91z"/>
		<path fill="#FFFFFF" d="M377.8,88.8c-4,0-7.2,3.2-7.2,7.2c0,4,3.2,7.2,7.2,7.2c0.7,0,1.3-0.1,1.9-0.3c1.2-3,2.8-5.8,5.2-8
			C384.3,91.4,381.4,88.8,377.8,88.8z M377.7,102.1c0,0-1.5-2.7-1.5-6s1.5-6,1.5-6s1.5,2.7,1.5,6S377.7,102.1,377.7,102.1z"/>
		<path fill="#FFFFFF" d="M67.2,167.7c2,0,3.7-1.6,3.7-3.7s-3.7-7.4-3.7-7.4s-3.7,5.4-3.7,7.4S65.2,167.7,67.2,167.7z"/>
		<path fill="#FFFFFF" d="M326.7,113.1c2,0,3.7-1.6,3.7-3.7c0-2-3.7-7.4-3.7-7.4s-3.7,5.4-3.7,7.4
			C323,111.5,324.7,113.1,326.7,113.1z"/>
		<path fill="#FFFFFF" d="M232.2,16.7c2,0,3.7-1.6,3.7-3.7c0-2-3.7-7.4-3.7-7.4s-3.7,5.4-3.7,7.4C228.5,15.1,230.1,16.7,232.2,16.7z
			"/>
		<path fill="#FFFFFF" d="M187.3,52.6c2,0,3.7-1.6,3.7-3.7c0-2-3.7-7.4-3.7-7.4s-3.7,5.4-3.7,7.4C183.6,51,185.3,52.6,187.3,52.6z"
			/>
		<path fill="#FFFFFF" d="M294.5,38.2c2,0,3.7-1.6,3.7-3.7c0-2-3.7-7.4-3.7-7.4s-3.7,5.4-3.7,7.4C290.8,36.5,292.4,38.2,294.5,38.2z
			"/>
		<path fill="#FFFFFF" d="M358.6,301.7c0,2,1.6,3.7,3.7,3.7s3.7-1.6,3.7-3.7c0-2-3.7-7.4-3.7-7.4S358.6,299.7,358.6,301.7z"/>
		<path fill="#FFFFFF" d="M304.6,371.2c-0.1,2,1.5,3.7,3.5,3.8c2,0.1,3.7-1.5,3.8-3.5c0.1-2-3.3-7.6-3.3-7.6
			S304.7,369.2,304.6,371.2z"/>
		<path fill="#FFFFFF" d="M397.5,143.5c0,2,1.6,3.7,3.7,3.7c2,0,3.7-1.6,3.7-3.7c0-2-3.7-7.4-3.7-7.4S397.5,141.4,397.5,143.5z"/>
		<path fill="#FFFFFF" d="M192.1,408.3c0,2,1.6,3.7,3.7,3.7s3.7-1.6,3.7-3.7c0-2-3.7-7.4-3.7-7.4S192.1,406.3,192.1,408.3z"/>
		<path fill="#FFFFFF" d="M139.3,343.1c0,2,1.6,3.7,3.7,3.7c2,0,3.7-1.6,3.7-3.7c0-2-3.7-7.4-3.7-7.4S139.3,341,139.3,343.1z"/>
		<path fill="#FFFFFF" d="M415.7,263.5c0,0-3.7,5.4-3.7,7.4c0,2,1.6,3.7,3.7,3.7c2,0,3.7-1.6,3.7-3.7
			C419.4,268.9,415.7,263.5,415.7,263.5z"/>
		<path fill="#FFFFFF" d="M107.2,85c2,0,3.7-1.6,3.7-3.7c0-2-3.7-7.4-3.7-7.4s-3.7,5.4-3.7,7.4C103.6,83.4,105.2,85,107.2,85z"/>
		<path fill="#FFFFFF" d="M67.8,278.9c0,2,1.6,3.7,3.7,3.7c2,0,3.7-1.6,3.7-3.7c0-2-3.7-7.4-3.7-7.4S67.8,276.9,67.8,278.9z"/>
		<path fill="#FFFFFF" d="M406.8,73.4c2,0,3.7-1.6,3.7-3.7c0-2-3.7-7.4-3.7-7.4s-3.7,5.4-3.7,7.4C403.1,71.7,404.8,73.4,406.8,73.4z
			"/>
		<path fill="#FFFFFF" d="M395.1,323.5c5.9,5.9,15.1,7.2,20.8,7.3l-28.1-28.1C387.9,308.3,389.2,317.6,395.1,323.5z"/>
		<path fill="#FFFFFF" d="M42.1,251.2l34.3-34.3c-6.6,0-18.3,1.3-25.7,8.6C43.3,232.9,42.2,244.8,42.1,251.2z"/>
		<path fill="#FFFFFF" d="M159.8,52.6L134,78.5c5.4-0.2,13.7-1.4,19-6.8C158.4,66.3,159.6,57.9,159.8,52.6z"/>
		<path fill="#FFFFFF" d="M411,93.4L384,120.3c5.5-0.2,14.3-1.4,19.9-7C409.6,107.6,410.8,98.8,411,93.4z"/>
		<path fill="#FFFFFF" d="M356.5,59.8c-7.2-7.2-18.7-8.5-25.3-8.6l33.9,33.9C365,78.7,363.7,67.1,356.5,59.8z"/>
		<path fill="#FFFFFF" d="M303.5,292.3c0,3.7,3.4,6.6,7.2,6.6h17.7c3.7,0,7.1-3,7.1-6.6V286h-32V292.3z M319.9,289.7
			c1.5,0,2.7,1.2,2.7,2.7c0,1.5-1.2,2.7-2.7,2.7s-2.7-1.2-2.7-2.7C317.2,290.9,318.4,289.7,319.9,289.7z"/>
		<polygon fill="#FFFFFF" points="216.9,287 221,287 222.4,278 218.5,278 		"/>
		<path fill="#FFFFFF" d="M138.1,262.1c0,6.8,5.5,11.9,12.3,11.9l86.3,0.2v-15.2h-98.5V262.1z"/>
		<polygon opacity="0.5" fill="#FFFFFF" points="252.6,278.3 252.6,278.4 254.6,278.3 		"/>
		<path fill="#FFFFFF" d="M273.6,278h-4l1.6,9c-0.1,3.1-2.6,6-5.7,6h-15.7c-0.9,1.5-1.9,2.8-3.1,4h18.8c5.4,0,9.7-4.8,9.7-10.2
			c0-0.1,0-0.3,0-0.4L273.6,278z"/>
		<rect x="252.6" y="259.1" fill="#FFFFFF" width="47.3" height="15.2"/>
		<path fill="#FFFFFF" d="M339.1,274.3h0.1c6.8,0,12.3-5.5,12.3-12.3V259h-12.4V274.3z"/>
		<path fill="#FFFFFF" d="M182.7,314.3c1.2,0.9,1.8,2.2,1.8,3.8c0,0.6,0.4,1,1,1c0.6,0,1-0.4,1-1c0-1.4-0.4-2.7-1.1-3.8H182.7z"/>
		<path fill="#FFFFFF" d="M215.2,314.3c1.2,0.9,1.8,2.2,1.8,3.8c0,0.6,0.4,1,1,1c0.6,0,1-0.4,1-1c0-1.4-0.4-2.7-1.1-3.8H215.2z"/>
		<path fill="#FFFFFF" d="M286,338.2c1.2,0.9,1.8,2.2,1.8,3.8c0,0.6,0.4,1,1,1c0.6,0,1-0.4,1-1c0-1.4-0.4-2.7-1.1-3.8H286z"/>
		<path fill="#FFFFFF" d="M277.7,338.2c1.2,0.9,1.8,2.2,1.8,3.8c0,0.6,0.4,1,1,1c0.6,0,1-0.4,1-1c0-1.4-0.4-2.7-1.1-3.8H277.7z"/>
		<path fill="#FFFFFF" d="M193.8,294.1c0-1.4-0.4-2.7-1.1-3.8H190c1.2,0.9,1.8,2.2,1.8,3.8c0,0.6,0.4,1,1,1
			C193.3,295.1,193.8,294.6,193.8,294.1z"/>
		<path fill="#FFFFFF" d="M168.4,290.3c1.2,0.9,1.8,2.2,1.8,3.8c0,0.6,0.4,1,1,1c0.6,0,1-0.4,1-1c0-1.4-0.4-2.7-1.1-3.8H168.4z"/>
		<path fill="#FFFFFF" d="M211.2,338.2c1.2,0.9,1.8,2.2,1.8,3.8c0,0.6,0.4,1,1,1c0.6,0,1-0.4,1-1c0-1.4-0.4-2.7-1.1-3.8H211.2z"/>
		<path fill="#FFFFFF" d="M232.5,362.1c1.2,0.9,1.8,2.2,1.8,3.8c0,0.6,0.4,1,1,1c0.6,0,1-0.4,1-1c0-1.4-0.4-2.7-1.1-3.8H232.5z"/>
		<path fill="#FFFFFF" d="M232.5,386c0.1,0.1,0.3,0.2,0.4,0.3c0.8,1,1.2,2.3,0.9,3.7c-0.1,0.5,0.3,1.1,0.8,1.2c0.1,0,0.1,0,0.2,0
			c0.5,0,0.9-0.3,1-0.8c0.3-1.6,0-3.1-0.7-4.4H232.5z"/>
		<path fill="#FFFFFF" d="M313.3,314.3c1.2,0.9,1.8,2.2,1.8,3.8c0,0.6,0.4,1,1,1c0.6,0,1-0.4,1-1c0-1.4-0.4-2.7-1.1-3.8H313.3z"/>
		<path fill="#FFFFFF" d="M112.4,268H95.1c-1.6,0-2.6-0.9-2.6-2.6s1-2.4,2.6-2.4h8c3.8,0,7.4-3.7,7.4-7.6v-9.6c0-1.1-0.9-1.8-2-1.8
			s-2,0.7-2,1.8v9.7c0,1.6-1.7,3.5-3.4,3.5h-8c-3.8,0-6.6,2.6-6.6,6.4s2.8,6.6,6.6,6.6h17.3c1.6,0,3,1.7,3,3.4s-1.3,3-3,3h-2
			c-3.8,0-6.9,3.1-6.9,7v2.3c0,1.1,0.8,2.3,1.9,2.3s2-1.2,2-2.3v-2.3c0-1.6,1.3-3,3-3h2c3.8,0,7-3.1,7-7S116.2,268,112.4,268z"/>
		<path fill="#FFFFFF" d="M124.7,205.1v-7.2c-6.6-0.6-12.7-2.6-18.2-5.7C110.2,199,116.8,203.9,124.7,205.1z"/>
		<path fill="#FFFFFF" d="M87.9,172v15.3c2.8-0.7,5.3-2.2,7.2-4.3C92.2,179.7,89.7,176,87.9,172z"/>
	</g>
</g>
<g id="_x23_BE993A">
</g>
</svg>
